<?xml version="1.0" encoding="utf-8"?>
<!-- Generator: Adobe Illustrator 19.0.0, SVG Export Plug-In . SVG Version: 6.00 Build 0)  -->
<svg version="1.1" id="Layer_1" xmlns="http://www.w3.org/2000/svg" xmlns:xlink="http://www.w3.org/1999/xlink" x="0px" y="0px"
	 viewBox="275 313.8 1550.1 375.2" style="enable-background:new 275 313.8 1550.1 375.2;" xml:space="preserve">
<style type="text/css">
	.st0{fill:#838383;}
	.st1{fill:none;}
	.st2{fill:#E6E6E6;}
	.st3{fill:#686868;}
	.st4{fill:#B9B9B9;}
	.st5{fill:#D4D4D4;}
	.st6{fill:#E6E6E6;stroke:#B9B9B9;}
	.st7{fill:#FFFFFF;}
	.st8{fill:#FEFEFE;stroke:#E6E6E6;}
	.st9{fill:#E6E6E6;stroke:#FEFEFE;}
	.st10{fill:#565656;}
	.st11{fill:#FFFFFF;stroke:#000000;stroke-miterlimit:10;}
</style>
<path class="st0" d="M579.4,639.7c-12,1.7-24.1,3.2-36.2,4.3c-15.1,1.4-18.2,1.6-27.1-9.9c-11.9-15.4-24.9-30.1-38-44.5
	c-2.4-2.7-5.5-7.8-8.9-9.3c-6.3-2.8-20.6,1.5-27.5,2c0-2.2,22.5-3.3,25.8-3.7c-5.4-6.2-10.3-14.7-19.2-14.9c0.3-1.8,4.7,0.7,5.3-1
	c1.4-3.8-15.6-16.1-18-18.9c-2.8-3.1-12.6-14.9-11.1-19.3c0.3-0.9,14.2,16.8,15.6,18.4c11,13.2,23,25.4,34.7,38
	c12.2,13,23.5,26.5,34.5,40.5c4.2,5.3,8.3,12.7,13.9,16.7c5.7,4.1,5.4,3.9,13.9,3.1c7-0.7,119.5-13,119.5-14.9
	c-0.7,5.8-27.5,5.6-31.3,6.1C610,634.7,594.7,637.4,579.4,639.7C571.1,640.9,584.1,639,579.4,639.7z"/>
<g>
	<path class="st1" d="M618,541.2c0.6,1.6,4.4-1.6,4.4-2.1c0-1.3-6.1-0.4-7-0.4C615.9,540,616.8,540.8,618,541.2
		C618.2,541.7,617.6,540.3,618,541.2z"/>
	<path class="st1" d="M620.1,544.4c-0.2-0.9-0.7-1.2-1.6-1.1C618.9,545.2,619.5,545.5,620.1,544.4C620.2,544,620,544.7,620.1,544.4z
		"/>
	<path class="st1" d="M617.2,520.7c0-0.7-7.3-1.5-7.3-1.5C610.6,521.3,617.3,522.7,617.2,520.7C617.2,519.8,617.3,522.4,617.2,520.7
		z"/>
	<path class="st1" d="M617.2,530.9c1.2-6.1,0.2-7.8-6-7.4c0.6,2.2,0.2,6.2,2.1,7.3C614,531.2,617,532.7,617.2,530.9
		C617.1,531.4,617,532.8,617.2,530.9z"/>
	<path class="st1" d="M612,513.7c-1.3-1.1-2.8-1.4-4.5-0.7C608.4,515.3,612.6,516.6,612,513.7C612,512.6,612.1,514.2,612,513.7z"/>
	<path class="st1" d="M526.9,475.5c7.6,0.4,15.9-1,23.5-1.7c3.8-0.4,7.7-0.5,11.4-1.2c-8,1.6,11.2-1.2,6.9-2.7
		c-0.7-0.2-44.6,3.8-45,4.9C523.7,475.6,526.9,475.5,526.9,475.5C528.8,475.6,526.4,475.5,526.9,475.5z"/>
	<path class="st1" d="M610.6,532.4c-0.4-0.6-0.8-1.1-1-1.5C609.8,531.7,609.9,532.5,610.6,532.4z"/>
	<path class="st1" d="M453.6,478.6c4.1,0.3,27.9,4.7,29.8-1.3C473.9,475.8,463.1,478,453.6,478.6
		C467.6,479.7,467.4,477.7,453.6,478.6z"/>
	<path class="st2" d="M648.1,597.2C648,597.2,648,597.2,648.1,597.2C648,597.2,648,597.2,648.1,597.2z"/>
	<path class="st2" d="M670.3,613.4v-0.1V613.4z"/>
	<path class="st2" d="M524.4,475.3C526.5,476,523.6,474.5,524.4,475.3C524.7,475.4,524.3,475.2,524.4,475.3z"/>
	<path class="st2" d="M602.4,512.1c0,0.2,0.1,0.3,0.1,0.5"/>
	<path class="st2" d="M483.4,477.3C483.3,477.2,483.3,477.2,483.4,477.3C483.4,477.2,483.4,477.3,483.4,477.3z"/>
	<path class="st2" d="M453.6,478.6c-10.7-0.8-21-1.4-24.6,0.5C433,479.7,443.1,479.2,453.6,478.6z"/>
	<path class="st2" d="M453.6,478.6c-8.6,0.4-17.3,0.8-25.9,1.3c1.4,3.5,3.7,10.3,7,12.3c3.5,2.2,15,0,19.2,0c13-0.2,26-0.9,39-2.1
		c-4.8-8.7-8.1-12.7-18.1-12.3C467.7,478.2,460.6,478.2,453.6,478.6C449.5,478.8,457.1,478.4,453.6,478.6z"/>
	<path class="st2" d="M563.6,515.8c0,0,0-0.1,0-0.2C563.7,515.7,563.7,515.7,563.6,515.8z"/>
	<path class="st2" d="M574.4,496.5C573.4,495.4,574.5,496.8,574.4,496.5L574.4,496.5z"/>
	<path class="st2" d="M621,548.1c0.4,0.7,1,1.3,1.8,1.7C622.3,547.5,621.7,546.9,621,548.1z"/>
</g>
<path class="st3" d="M506.4,621.8c1.1,1.4,2.3,2.8,3.5,4.1c-6.2-4.2-27.6,4.5-35.2,5.7c-11.9,1.8-23.9,3.2-35.9,4.8
	c-21.6,2.9-41.8-0.7-63.2-4.3c-12.5-2.1-24.8-4.9-37.3-6.8c-9.9-1.6-20.6-1.1-24-11.2c-6.4-18.7-13.3-74,16.3-70.3
	c38.1,4.8,75.3,11.7,113.8,13.6c-7.2-4-10-5.7-18.2-5.7c-11.5,0-22.7-3.5-34.1-3.4c-19.5,0.2-38.6-4-58.2-6.7
	c0.7-0.3,33.6-1.8,33.6-1.6c0-2.6-32.1-4-36.2-6.3c-10.9-6.1-8.7-41.8,2.6-46.8c5.2-2.3,16.3,3.4,19.4-3.2c3-6.2-3.3-22.7-2.6-30.3
	c1.9-22.7,12.6-29.3,33.1-23.7c8.2,2.2,59.5,10.6,59.1,17.6c-0.5,7.3-38.6-6.4-43.3-7.4c-10.7-2.3-29.6-11.1-37.6-2.7
	c-6.1,6.4-10.2,33.1-3.8,40.8c2.9,3.5,13.7,3.7,18.6,5.2c8.4,2.6,16.7,5.2,25.6,5.9c4.7,0.4,41,0.5,35.1,9.8
	c8.4-0.1,25.1-4.8,30.1,3c-10,1.7-18.8,5.8-29,6.1c-11.4,0.3-19.9-0.7-31.1-3.3c-19.5-4.6-40.2-3.1-59.4-8.1c-2.7-0.7-10-5-12.7-3.7
	c-2.2,1-3.5,11-3.9,13.7c-0.8,5-1.9,12.6,0.2,17.6c2.8,6.8,3.1,5.4,11.8,6.8c21.9,3.6,43.7,7.7,65.7,11.1c7.9,1.2,16.2-0.4,23.9,1.1
	c6,1.2,24.6,11.2,20.5,19.8c-5.9,12.4-62.5-3.7-72.7-5.4c-14.9-2.5-30-5.4-45.1-7.1c-14.6-1.6-18.5,4.1-19.9,18
	c-2.1,21.1-1.5,43.9,21.8,50c12.6,3.3,25.6,3.8,38.3,6c11.2,2,22.1,5.3,33.5,6.5C442,634.3,474.2,625.6,506.4,621.8
	C506.9,622.5,492.9,623.4,506.4,621.8z"/>
<path class="st4" d="M397.4,488.3c-3.9-0.7-35.8-8.7-37.1-6c-9.1-5.4-4.8-38.2-0.1-43.8c5-5.9,10.8-3.8,18.3-2
	c13.9,3.3,27.6,7,41.4,11.1c4.6,1.4,13.2,5.7,17.9,5c2.5-0.4,4.6-3,7.8-3.8c14.2-3.9,33.9-0.8,48.7-1c14.5-0.2,28.9-0.8,43.3-1.8
	c13.4-0.9,32.1,1.1,44.7-3.4c0.2,0.3,0.2,0.7,0,1c-20.9,0-44.4,4.6-66.1,5.6c-14.8,0.7-29.7,1.6-44.5,2.2
	c-8.8,0.3-19.1-0.8-27.7,0.9c-1.2,0.2-15.8,6.2-13.4,9.9c1.3,5.1,140.9-11.1,140.9-6.8c0,1.4-99.2,5.8-108.4,6.3
	c-10.3,0.6-35.4-3.5-38.1,9.2c-0.8,3.6,8.3,21.2,8.4,21.1C432.9,493,400.5,488.9,397.4,488.3C391.6,487.2,401.7,489.1,397.4,488.3z"
	/>
<path class="st0" d="M582.5,442.7c-19.7,5.8-46.6,3.3-66.5,4.7c-19.1,1.3-38.3,1.9-57.4,1.4c-9.1-0.2-11.4,0.4-17.4,1.2
	c-1.2,0.2-1.4,2.4-3.2,2.7c-6.6,0.9-20.3-5.7-26.9-7.7c-15.9-4.8-32.5-9.5-48.6-9.5c3.7-7.4,30.6,1.7,38,3.5
	c8.4,2.1,32.6,14.2,40.3,10.7c9-4.2-20.6-10.4-23.5-11.2c-7.3-1.9-14.6-3.6-22-5.4c-3.1-0.8-16.6-2.3-18.2-4.8
	c7-3,19.9-0.6,27.5-0.7c7.2-0.1,14.3,0,21.4-0.3c12-0.4,23.5-1,35.4-1.4c25.8-0.8,52.1-1.3,78.1,2.2c11.2,1.5,23.1,3.3,34.6,5.4
	c3.7,0.7,16.1,0.3,16,4.4c-0.1,3.3-0.6,3.6-1.7,3.5c-1.3-0.2-2.7,0.1-4,0.5C583.3,442.3,582.5,442.5,582.5,442.7
	C580.8,443.2,582.5,442.6,582.5,442.7z"/>
<path class="st5" d="M670.3,613.4c-1.8-3.7,46.7-14.7,50.8-15.5c23-4.5,46.2-9.9,68.8-15.9c1.3,13.2-22.4,10.9-32,12.8
	c-7.8,1.5-15.7,2.9-23.5,4.4c-2.6,0.5-22.8,2.8-24,5.1c10.6,1.7,26.4-4,37-5.8c12.9-2.1,28.9-8.2,41.8-6.8c0,4.6-1.3,6.9-4.1,8.4
	c-1.5,0.8-12.6,0.5-14.9,0.8c-6.1,1-12.1,1.8-18.1,2.5c-5.5,0.6-61,6-61,9.1c0-0.9,88.1-11,95.5-11c0.5,1-6.4,15.6-7.2,16.2
	c-3,2.2-14.9,2.2-18.8,2.7c-6.3,0.8-12.7,1.4-19.1,2.1c-12.2,1.3-24.2,2.9-36.3,4.6c-7.5,1.1-15,2-22.5,3
	c-3.4,0.4-16.4,4.1-19.8,2.4C662.8,632.5,669.6,613.7,670.3,613.4C670.5,613.8,669.2,613.8,670.3,613.4z"/>
<path class="st5" d="M425.8,470.8c-1.9-11.2,23.5-8.2,29.1-8.5c13.7-0.7,27.5-1.6,41.2-2.3c7.4-0.4,75.2-1.4,75.7-4.5
	c0-4.5-139.6,12-140.9,6.8c-0.8-2.3,8.5-9,10.4-9.7c6.7-2.5,18.7-0.6,25.7-0.9c14.2-0.5,28.3-1.3,42.5-2c12.7-0.6,25.3-1.4,37.9-2.2
	c7.5-0.5,27.7,1,33.7-3.2c-1,3.5-8.1,7.7-8.7,10.7c-0.9,5.4-1.2,6.8-7.6,8.4c-15.1,3.8-35.2,1.7-50.8,2.5
	c-15.2,0.8-30.4,1.8-45.6,2.6c-8,0.5-15.9,1.2-23.9,1.5C439.9,470.3,430,472.5,425.8,470.8C425.6,469.6,426.8,471.2,425.8,470.8z"/>
<path class="st4" d="M540,427.7c-4.9,2.4-23.8-2.1-29.4-2.2c-12.1-0.2-23.7,0-35.6,0.5c-18.2,0.7-37.3,1.1-55.8,1.5
	c-13.2,0.3-26.6-0.8-39.9,0.1c-6.2,0.4-13.7-1.5-18.5,1.9c-8.9,6.4-9.9,21.9-9.8,31.6c0.1,6.3,3.4,14.3,2.8,20.4
	c-0.4,4.1,2,1.8-0.7,4.6c-1,1-10.4,0.8-11.1,0.8c2-2.7,10.8,1.1,12.4-1.9c0.7-1.3-1.8-6.4-2.1-8c-1.8-8.2-2.3-17.2-1.3-25.5
	c4.1-33.9,33.9-25.4,59.9-25.6c22.2-0.1,44.3-1.9,66.5-2.1c11-0.1,22,0.5,33,0.8C516.9,424.8,534.4,423.4,540,427.7
	C539.8,427.8,539.1,427,540,427.7z"/>
<path class="st0" d="M784.7,622.8c-13.7-4.6-40.5,3.1-55.5,4.8c-12.1,1.4-24.1,3-36.1,4.7c-8.9,1.3-24.5,0.3-32.3,3.6
	c0.9-5.6,62-9.1,69-10.2c11.4-1.8,22.8-2.6,34.2-3.7c6.2-0.6,16.5-4.4,22.5-2.6C793.9,621.5,789.6,620.7,784.7,622.8
	C784.4,622.7,785.4,622.5,784.7,622.8z"/>
<path class="st2" d="M760.8,621.6c-15.6,0-31.6,3.6-46.8,5.7c-4.8,0.7-51.6,10.2-54,6.1c-0.7-0.9,12.1-19.7,2.8-17.4
	c-4.9,1.2-2.9,9.1-7.1,9.1c0-3.5,3.6-10.7,7.9-10.7c11.7,0.1-1.8,17.2-0.7,17.7c5.7,2.8,23-2.8,29.4-3.7c12-1.6,23.9-3.3,35.9-4.8
	c10.8-1.3,21.6-2.2,32.3-3.6c4.3-0.6,13.9-0.3,17.5-2.5c2.7-1.6,3.4-7.3,5.1-7.9c-0.7,6.2,1.2,3.8,6.2,8.8
	C781.3,621.6,768.2,616.9,760.8,621.6C760.7,621.6,761.9,620.9,760.8,621.6z"/>
<path class="st3" d="M586.4,639.5c0.2,0-2.8,0.3-2.8-0.5c0-2.7,58.2-8.1,62.4-9.5c-0.6,0.2-1.3,0.3-1.9,0.3c3.3-0.3,7.6,4.8,7.6,8
	c-10.1,2.5-24.3-1.2-34.9-0.6C606.7,637.8,596.4,638.6,586.4,639.5C585.8,639.6,587.5,639.4,586.4,639.5z"/>
<path class="st3" d="M660.8,635.6c7.8-3.3,23.5-3.5,32.4-4.8c10.7-1.5,21.6-3.4,32.4-4.7c10.1-1.2,19.7-1.9,29.8-3
	c5.1-0.6,24.5-3.1,28.5-1c-5.2,4.6-26.3,3.1-32.6,3.9c-12.6,1.8-25.4,3-38.1,4.6c-18.2,2.2-37.3,5.9-55.8,5.9
	C658.1,635,659.2,634.7,660.8,635.6C661.5,635.3,660,635.6,660.8,635.6z"/>
<path class="st4" d="M790.1,582.1c-17.4,4.6-35.1,8.6-52.7,12.5c-4.8,1.1-36.8,9.7-38.1,7.3c12.5,0,28.7-7,41.1-9.7
	c8.9-1.9,18.1-3.9,26.9-7C772.2,583.5,790.1,574.4,790.1,582.1C787.1,582.9,790.1,581.8,790.1,582.1z"/>
<path class="st4" d="M789.4,591.6c-12.7-1.4-29.1,4.7-41.8,6.9c-10.7,1.8-26.4,7.4-37,5.7c2.5-5,36.9-7.4,42.9-8.6
	C757.4,594.9,790.2,587.6,789.4,591.6C786.7,591.3,789.5,591.1,789.4,591.6z"/>
<path class="st4" d="M660.8,635.6c-2.1,0-14.1,5.5-14.8,1.8c-0.5,0.1,6.5,0.8,6.5-0.1c0-1-7-5.8-5.3-7.9c1.8-1.8,8.7,0.8,9.3-3.1
	c0.1-0.7-69.6,11.8-74.5,9c8.8-5.6,29.6-4.5,40.2-5.9c11.6-1.5,23.9-4.5,35.5-4.5c2.4,5.4-6.3,5.7-5.3,9.5
	c1.6,6.4,22.6-19.4,9.3-17.5c3.4-6.7,3.7,5.1,3.7,5.4c-0.3,1.6-5.9,10.3-5.3,11c1.5,1.5,4.3-1,5.5,0.2
	C664.6,633.9,661,633.5,660.8,635.6C660.1,635.6,660.9,634.5,660.8,635.6z"/>
<path class="st0" d="M571.3,492.9c-0.3,0.1-6-5.8-6-5.8c0,0.1,15-2,16.7-1.7c7.1,1.2,1.6,0.7,6.6,3.8c0.9,0.5,4.3,0.7,5.1,0.7
	C593.3,489.4,570.8,492.2,571.3,492.9C571,493,570.7,492.1,571.3,492.9z"/>
<path class="st3" d="M571.3,492.9c-1.2-1.6,18.4-3.6,18.8-2C583.4,490.9,576.8,498.4,571.3,492.9C570.7,492.1,571.4,493,571.3,492.9
	z"/>
<path class="st0" d="M571.5,493.1c2.2,0.7,3.4,1.5,5.4,2C574.6,497.5,572.8,496.8,571.5,493.1C572.5,493.4,572.1,494.5,571.5,493.1z
	"/>
<path class="st2" d="M577.7,448.4c0.2-1.7,3.3-4,4.6-4.7C582.3,445.4,578.7,447.4,577.7,448.4C577.8,447.5,577.8,448.3,577.7,448.4z
	"/>
<path class="st2" d="M585.9,484.6c-1.4-0.3-2.6,0.4-3.9,0.7C582.7,484.1,585.1,483.7,585.9,484.6z"/>
<path class="st2" d="M575,452.3c0.3-1.1,0.7-2.2,1.9-2.7C576.5,450.6,575.9,451.5,575,452.3z"/>
<path class="st5" d="M593.3,489.8c-0.9,0.3-1.8,0.1-2.6-0.5C591.6,489.1,592.5,489.3,593.3,489.8z"/>
<path class="st2" d="M571.8,458.1c0.2-0.8,0.6-1.4,1.4-1.7C573.1,457.2,572.6,457.9,571.8,458.1z"/>
<path class="st2" d="M573.2,455.7C571.6,454.7,573.7,453.7,573.2,455.7C572.9,455.5,573.3,455.3,573.2,455.7z"/>
<path class="st2" d="M569.6,462.8c0-0.6,0.5-0.9,1-1.2C571.1,462.6,570.1,462.5,569.6,462.8z"/>
<path class="st2" d="M570.6,460.6c0.3-0.6,0.2-1.4,0.9-1.7C571.4,459.5,571.5,460.3,570.6,460.6z"/>
<path class="st2" d="M574.2,453.3c0-0.5,0.2-0.7,0.7-0.8C574.9,453,574.7,453.2,574.2,453.3z"/>
<path class="st2" d="M589.4,489.2C587.9,489.7,589.4,488,589.4,489.2C589.1,489.3,589.4,489,589.4,489.2z"/>
<path class="st4" d="M341.5,486.6C340.8,486.6,340.9,486,341.5,486.6C341.3,486.6,341.4,486.5,341.5,486.6z"/>
<path class="st2" d="M573.2,456.2C573.2,455.3,573.8,455.9,573.2,456.2C573.2,456,573.4,456.1,573.2,456.2z"/>
<path class="st0" d="M325.2,510.2C326.2,510.2,325.2,511,325.2,510.2C325.4,510.2,325.2,510.4,325.2,510.2z"/>
<path class="st4" d="M420.1,563.9c7.6,0,15.3,0.4,23.1,0c4.6-0.2,8.8-0.8,12.6,1.3c0.9,0.5,12.2,12.6,11.8,13.5
	c-1,2.1-23.6,2.5-25.7,2.7c0-1,3.2-17.7,4.4-16.4c-3.2-3.6-22,3.4-25.1,1.3c10.4,6.2-6.3,8.4-3.1,16.4c0.9,1.8,22.1-1.1,23.7-1.2
	c0,2.8-36.4-0.8-26.9,10.5c1.5,1.8,18.2-1.3,21-1.7c8.5-1.1,7.7,0.6,6-7.9c7.2-0.5,18.6-4.4,25.3-2.4c5,1.5,9.9,8.8,13.2,12.4
	c2.5,2.7,26.9,27.7,25.5,29.8c-30.5,0-62.6,10.8-94.1,8.4c-19.3-1.5-39.4-5-58.9-8.5c-8.1-1.5-19.4-1.5-27-4.9
	c-6.3-2.8-2.8-0.6-5.1-4.9c-7-12.7-7.1-33.6-4.9-47.4c2.5-15.7,7.4-16.1,21.6-14.6C364.4,553.2,394.2,557,420.1,563.9
	C420.2,563.9,418.6,563.5,420.1,563.9z M412.3,600.7c-1,0.3,2.7,4.7,0.7,6.9c-2.1,2.3-12.3-0.4-15.1-0.8c-3.3-0.5-42.3-5.8-42.3-5.1
	c0,2.9,56.1,6.5,59.8,11.7c4.5,6.2-0.2,14.5,8.8,17c2.7,0.7,35.6-2.5,36.3-4.6c0.5-1.5-9.8-18.2-9.1-19c1.3-1.6,19.8-0.7,19.3-3
	c-0.8-2.3-18.8,3.3-20.8,2c-2.2-1.4-3.7-6.8-4.6-8.6c-4.4-8.9-4.4-6.5-15.8-5.3c-3.1,0.3-11.2-0.4-13.5,1.1
	C411.4,595.9,415.4,594.5,412.3,600.7z M474.2,603.6c1.8-0.3,13.8-1.2,13.7-2.2C487.6,599.3,469.4,603.6,474.2,603.6
	C476.2,603.3,473.8,603.6,474.2,603.6z"/>
<path class="st4" d="M331.8,526.6c-1.9-6-3.1-24.5,1-30c4.5-6,32.5,1.7,41.1,2.9c14.4,2,31.4,2.9,44.9,8.4c7.7,3.2,8.7,2.7,17.5,2.9
	c10.4,0.3,12.8,7.6,19.2,15.8c7.4,9.5,14.7,18.8,22.7,27.7c14.7,16.4,30.4,32.1,44.6,49c5.3,6.4,24.7,23.7,11.7,31.2
	c-10.7,6.1-31.5-27.8-38.8-36.4c-10.1-12-21.2-23.1-31.5-34.9c-6.3-7.2-12.7-14.7-18.6-22.2c-3.4-4.3-6-10.8-9.8-14.5
	c-3.9-3.9-4.7-5.5-11.2-2.3c-3.4,3.1,11.8,16.1,9.4,18.8c-2.8,2.8-18.7-1.1-22.6-1.5c-10.1-1.1-20-3.5-29.9-5.5
	C371.4,534.1,337.7,535.5,331.8,526.6C330.5,522.5,332.4,527.5,331.8,526.6z M427,521.4c3,0.1,11.7-4.8,10.9-8.8
	c-0.2-0.8-16,0.2-17.2,1.6C415.1,520.8,422.6,522,427,521.4C429,521.5,425.5,521.6,427,521.4z"/>
<path class="st2" d="M497.9,601.2c5.5,8.2,12.7,15.6,19.3,22.8c8.8,9.6,11.1,13.5,25.5,12.6c19.2-1.3,38.5-3.5,57.6-6.2
	c10.3-1.4,20.5-3.3,30.8-4.7c4.5-0.6,21.2-4.9,23.8-2c0.9,1-20.6,4.1-23.3,4.4c-8.4,1.1-16.7,2.3-25.1,3.4
	c-15.2,2.1-30.2,3.7-45.4,5.6c-9,1.1-17.9,2.9-27,3.4c-9.1,0.5-8.9-0.4-14.4-7c-13.4-16.4-26.8-32.2-40.7-48.2
	c-0.1,0.4,3.3-1.3,3-1.4c-2.2,0,3.5,6.9,4.4,8.1C490.5,597.2,494.9,598.8,497.9,601.2C498.1,601.5,496.8,600.3,497.9,601.2z
	 M499,606.4C499.6,606.4,499,606.1,499,606.4C499.1,606.4,499,606.3,499,606.4z"/>
<path class="st5" d="M497.9,601.2c-6.1,0-21.5-18.5-26.5-23.8c-6.4-6.9-12.9-13.8-19-21c-4.1-4.8-8.3-9.6-12.4-14.5
	c-1.5-1.8-11.9-17.4-13.9-17.4c6.9-7.7,9.7,2.5,12.7,7.3c5.5,8.8,13.1,16.6,19.8,24.5c6.7,7.8,13.5,15.4,20.4,23
	C482.8,583.6,497.9,595.7,497.9,601.2C497.7,601.2,497.9,601,497.9,601.2z"/>
<path class="st5" d="M441.7,581.4c-1.6,0.1-22.8,3-23.7,1.2c-0.9-1.7,5.3-10,6.5-11.4c0.5-0.6,4.9-5.1,5-4.4
	c-0.3-1.3-5.2-1.1-5.2,0.7c-1.2-0.1-2.3-0.5-3.1-1.4c3.4,1.7,22-4.8,25.1-1.3C445.7,564.2,438.8,581.4,441.7,581.4
	C438.9,581.6,441.8,581.4,441.7,581.4z"/>
<path class="st5" d="M441.9,582.3c1.6,8.5,0.5,7.3-8.2,8.1c-2.4,0.2-18.1,3.2-19.5,1.3C406.8,581.3,438.9,582.7,441.9,582.3z"/>
<path class="st4" d="M523.6,638.8c16.6,8.3,39.2-6.3,57.3-3.3C575.5,639.4,524.7,644.5,523.6,638.8
	C524.6,639.3,523.8,639.8,523.6,638.8z"/>
<path class="st4" d="M457.4,562.5c7.1,3.5,14.8,15.7,20.1,21.5c3,3.3,20.2,18.2,20.2,22.8C493.1,604.5,456.3,565.7,457.4,562.5
	C458.6,563.1,457.3,562.8,457.4,562.5z"/>
<path class="st4" d="M426,524.6c1.2,0,31,34.4,31,37.5c-6.4-3.2-11.9-12.9-16.4-18.4C437.4,539.9,426,529.8,426,524.6
	C426.2,524.6,426,525.2,426,524.6z"/>
<path class="st4" d="M497.9,606.8c3.7,2.8,26.6,27.9,25.6,31.9C518.6,636.8,497.9,611.5,497.9,606.8
	C499.6,608.1,497.9,607.4,497.9,606.8z"/>
<path class="st0" d="M463,498c-4.9,0.2-22.1,3.6-25.8,0.9c0.8,0.6-1.9-6.3-2-6.4c3.1,0,43.6-1.3,43.7-0.8c-1.8,0.7-17.8,1.9-18,3.4
	C461.5,496.2,462.1,497.2,463,498C458.2,498.2,462.7,497.1,463,498z"/>
<path class="st5" d="M437.8,492.4c-5.3,0-10.6-8.1-11-13.6c1.5-2.2,27.4-1.4,31.2-1.6c3.2-0.1,25.5-0.4,25.4,0
	c-1.4,2.8-19.5,1-22.5,1.1c-4.1,0.2-31.7-0.7-32.9,1.8C425.7,483.9,436.3,490.9,437.8,492.4C437,492.4,437.6,492.2,437.8,492.4z"/>
<path class="st5" d="M526.9,475.5c-1.2,0.4-2.2,0.2-3-0.6c0,1.2,43.1-5.5,45-4.9c4.5,1.1-15.4,4.4-6.9,2.7c-4.6,0.9-9.4,1.1-14,1.5
	C541,474.8,533.9,475.5,526.9,475.5z"/>
<path class="st4" d="M472.4,493c1.7-1.4,4.6-0.6,6.5-1.3c-0.3-1.7-11.5,1.4-13,0.2c2.2-1.7,27.3-3.2,28.2-1.1
	C493.5,489.6,475.8,493,472.4,493C473.6,492,472.9,493,472.4,493z M480.2,491.5c0.5,0.2,0.9,0.1,1.4,0
	C481.1,491.4,480.7,491.3,480.2,491.5z"/>
<path class="st0" d="M666.1,609.3c-0.2-0.4-2.2-2.6-1.1-2.9c0.5,0.2,4.8,2.1,4.9,2.4c0.5,1.4,0.6,7.7-3,5.9
	C666.8,612.9,666.5,611.1,666.1,609.3C666,609.1,666.3,610.4,666.1,609.3z"/>
<path class="st4" d="M670.6,612.4c1.6-4.4-2.8-3.5-4.5-5.4C668.9,605.2,672.6,612.4,670.6,612.4C671.1,611,670.9,612.4,670.6,612.4z
	"/>
<path class="st5" d="M713.8,597.8c0,1.1-9.7,2.7-9.6,2.7C705.7,599,712,598.2,713.8,597.8C713.8,598.1,710.7,598.5,713.8,597.8z"/>
<path class="st5" d="M425.1,475.7c-1.3-2-1.3-3.6,0.2-4.7C425.5,472.6,425.4,474.2,425.1,475.7C424.6,474.4,425.4,475.3,425.1,475.7
	z"/>
<path class="st4" d="M666.8,614.6c1.1,0.6,2.6-1.6,3.5-1.8C670.3,614.9,666.2,615.2,666.8,614.6
	C667.8,615.1,666.7,614.7,666.8,614.6z"/>
<path class="st0" d="M668.7,607c-0.5,1.5-1.8-0.6-1.9-0.7C667.2,605.1,668.7,606.3,668.7,607C668.5,607.6,668.7,606.9,668.7,607z"/>
<path class="st5" d="M730.7,594.1c-0.9,0.8-1.8,1-2.9,0.7C728.7,594.4,729.7,594.1,730.7,594.1z"/>
<path class="st5" d="M456.8,492.4c-1,0-1.9,0-2.9,0C454.2,492,456.8,491.3,456.8,492.4C455.8,492.4,456.8,492.3,456.8,492.4z"/>
<path class="st5" d="M426.3,478.4c-1.2-0.3-1.1-1.3-1.2-2.2C425.8,476.7,426.1,477.6,426.3,478.4z"/>
<path class="st4" d="M463,491.9c-0.3,0.3-2.8,0.9-2.8,0C461.1,491.9,462.1,491.9,463,491.9C462.1,492.7,462.1,491.9,463,491.9z"/>
<path class="st5" d="M719.7,596.7c-0.9,0.4-1.8,0.7-2.7,0.7C717.8,596.7,718.6,596.3,719.7,596.7z"/>
<path class="st5" d="M634.4,595.8c-0.9-0.1-1.8,0.3-2.7-0.2C632.6,595.3,633.5,594.9,634.4,595.8z"/>
<path class="st4" d="M456.8,492.4c0-0.7,2.7-0.2,2.8-0.2C458.7,492.3,457.7,492.3,456.8,492.4C456.8,492.3,457.8,492.6,456.8,492.4z
	"/>
<path class="st5" d="M739.5,592.1c-0.7,0.9-1.8,0.7-2.7,0.9C737.6,592.3,738.5,592.2,739.5,592.1z"/>
<path class="st5" d="M742.7,591.6c-0.9,0.3-1.7,1.1-2.7,0.5C740.9,591.8,741.7,591.3,742.7,591.6z"/>
<path class="st5" d="M733.9,593.3c-0.7,0.7-1.5,1-2.5,0.7C732.2,593.6,733,593.3,733.9,593.3z"/>
<path class="st5" d="M701.8,601.1c-0.8,0.5-1.5,0.8-2.5,0.7C700.1,601.2,700.9,600.9,701.8,601.1z"/>
<path class="st5" d="M459.6,492.2c-2.2,0.2-2.4-0.1-0.6-0.6C460.1,491.6,461,492.2,459.6,492.2z"/>
<path class="st5" d="M724.3,595.5c-0.6,0.7-1.4,0.8-2.2,0.5C722.8,595.7,723.6,595.5,724.3,595.5z"/>
<path class="st5" d="M617.8,594.9c-0.6,0.8-1.3,0.5-2,0.2C616.4,594.6,617.1,594.9,617.8,594.9z"/>
<path class="st4" d="M444.6,492.6c-0.7,0.3-1.3,0.4-2,0C443.3,492.2,444,492.2,444.6,492.6z"/>
<path class="st5" d="M736.3,593c-0.5,0.3-1,0.8-1.7,0.3C735.1,592.9,735.7,592.6,736.3,593z"/>
<path class="st5" d="M716.5,597.5c-0.6,0.4-1.2,0.8-2,0.3C715.2,597.4,715.8,597.4,716.5,597.5z"/>
<path class="st5" d="M744.6,591.1c-0.4,0.4-0.9,0.5-1.5,0.5C743.5,590.9,744,590.7,744.6,591.1z"/>
<path class="st5" d="M647.1,597.2c-0.6,0-1.2-0.1-1.7-0.5C646.1,596.5,646.6,596.6,647.1,597.2z"/>
<path class="st5" d="M721.7,596c-0.3,0.7-0.9,0.7-1.5,0.7C720.5,596.1,721.1,596.1,721.7,596z"/>
<path class="st5" d="M607.2,595.1C603.6,597.3,607.2,592.3,607.2,595.1C606.7,595.4,607.2,595,607.2,595.1z"/>
<path class="st5" d="M727.3,594.8c-0.3,0.7-0.8,0.9-1.5,0.5C726.2,594.9,726.7,594.8,727.3,594.8z"/>
<path class="st5" d="M640.5,596.2c-0.5,0-1,0.2-1.5-0.2C639.6,595.8,640.1,595.5,640.5,596.2z"/>
<path class="st5" d="M636.3,596c-0.5,0-1,0.2-1.5-0.2C635.4,595.5,635.9,595.2,636.3,596z"/>
<path class="st5" d="M703.6,600.6c-0.3,0.4-0.8,0.4-1.2,0.5C702.6,600.6,702.9,600.3,703.6,600.6z"/>
<path class="st4" d="M437.8,492.4C437.8,490.7,440.4,494.3,437.8,492.4C437.8,492.3,438.2,492.7,437.8,492.4z"/>
<path class="st5" d="M667.4,605.3c-0.4-0.2-0.7-0.5-0.8-1C667.3,604.4,667.4,604.8,667.4,605.3z"/>
<path class="st5" d="M668.5,606.6c-0.4-0.1-0.7-0.3-0.8-0.8C668.3,605.8,668.6,606.1,668.5,606.6z"/>
<path class="st5" d="M642,596.5c-0.3,0-0.6,0.1-0.8-0.2C641.6,595.9,641.8,596,642,596.5z"/>
<path class="st5" d="M609.4,595.1c-0.2,0.3-0.5,0.3-0.7,0C608.9,594.7,609.2,594.7,609.4,595.1z"/>
<path class="st4" d="M449.7,492.6c-0.2,0.3-0.5,0.3-0.7,0C449.2,492.3,449.5,492.3,449.7,492.6z"/>
<path class="st5" d="M620.9,595.3c-0.3,0-0.5-0.1-0.5-0.4C620.7,594.8,620.9,594.9,620.9,595.3z"/>
<path class="st2" d="M486,523.5"/>
<path class="st2" d="M633.3,609.9c-23.5,2.4-49.7,8.8-73.1,7.2c-18.3-1.3-31.1-26-41.6-38.9c-15-18.4-29.6-38-46.9-54.4
	c-3.3-3.1-15.7-10.5-16.1-15.5c-0.6-8.9,8.7-1.4,11.7-6.5c1.1-1.8-5.8-4.1-5.2-6.2c1.7-5.4,16.2-2.3,19.4-0.5
	c11.3,6.6,20.1,25,27.5,35.6c14.9,21.4,34.3,55,60.6,63c14.9,4.5,30.7-1.2,46-0.9c13.7,0.3,27.9,2.5,40.7,7.4
	c3.2,1.2,12.7,3.8,9.4,7C661.9,611,638,609.4,633.3,609.9C622.5,611,658.3,607.3,633.3,609.9z"/>
<path class="st0" d="M327.3,542.2c0.9-0.4,2.8-0.9,7.1-1.7c10.6-2.1,32.4-0.5,40.1,0.8c12.5,2.2,23.5,4,36,6
	c4.6,0.8,35.9,5,34.2,10.2c-2,6-102.5-12.9-119.5-13.7C324.3,543.8,325.6,542.9,327.3,542.2z"/>
<path class="st0" d="M424.3,509.7c-29.5-8.4-60-10-90-16c1.8-6.6,86.8,13.9,95.9,13.9C430.2,507,424.8,509.7,424.3,509.7
	C422.9,509.3,424.5,509.7,424.3,509.7z"/>
<path class="st2" d="M420.7,631.3c2,0,41.6-5.2,41.8-4.5C459.5,630.3,420.7,633.7,420.7,631.3C421.6,631.3,420.7,631.5,420.7,631.3z
	"/>
<path class="st5" d="M350,531.9c19.7,1.4,39,5.2,58.4,8.7c-6,3-22.1-2.7-28.6-3.8C369.9,535.2,359.8,534.2,350,531.9
	C352.9,532.1,352.5,532.5,350,531.9z"/>
<path class="st5" d="M461.7,626.7c14.5-1.9,28.8-4.2,43.3-6.1c0.3,0.4,0.5,0.8,0.5,1.3C499.7,622.6,463.2,630.5,461.7,626.7
	C464,626.4,461.9,627.2,461.7,626.7z"/>
<path class="st2" d="M406.2,541.2c0-0.9,16.5,1.3,16.3,0.7c0-1.7-2.7-5.3-2.1-7.4c0.1-0.4,9.1,9,9.1,9.5
	C423.5,543.8,412.1,544.2,406.2,541.2C406.2,540.5,406.8,541.5,406.2,541.2z"/>
<path class="st4" d="M424.8,509.7c0-3.3,29.7-2.9,29.5-3.1C454.5,507.5,426.6,509.8,424.8,509.7
	C424.8,508.8,428.3,509.9,424.8,509.7z"/>
<path class="st5" d="M420.7,631.3c0,3.8-12.7-1.5-13-1C408.5,629.3,419.5,631.2,420.7,631.3C420.7,631.6,416.3,630.9,420.7,631.3z"
	/>
<path class="st0" d="M443.1,563.8c-2.8,1.4-17.1,2-20.5,0.3C424.1,563.4,442.4,562.6,443.1,563.8
	C442.9,563.9,442.8,563.3,443.1,563.8z"/>
<path class="st0" d="M453.3,506c-0.8,1.1-14.3,1.8-15.1,1C440.6,505.7,453.3,505.4,453.3,506C452.8,506.7,453.3,505.7,453.3,506z"/>
<path class="st4" d="M467.6,493.7c-0.8,0.7-5.2,1-5.5,1.9c-0.3,1.2,2.3,1.2,1.8,2.4c-0.9,0-3-1.7-2.9-2.8
	C461.1,494.6,467.2,493.3,467.6,493.7C466.5,494.6,467.4,493.5,467.6,493.7z"/>
<path class="st0" d="M459.3,503.3c-1,1.2-4.8,1.6-5.9,1.7C454.1,504.4,458.4,502.8,459.3,503.3C458.8,503.9,458.5,502.9,459.3,503.3
	z"/>
<path class="st0" d="M360.3,482.2c1.2-2,2.6-2.1,4.1-0.4C363.7,481.6,359.9,481.8,360.3,482.2C361.4,480.2,360.5,482.4,360.3,482.2z
	"/>
<path class="st0" d="M437.1,507c-1.1,0.8-2.3,0.8-3.5,0.6C434.6,506.9,435.8,507,437.1,507z"/>
<path class="st0" d="M462.9,502.8c-1,0.1-1.9,0.3-2.9,0.4C460.3,502.9,463.5,501.6,462.9,502.8C461.9,502.7,463,502.6,462.9,502.8z"
	/>
<path class="st0" d="M433.1,507.6c-0.6,0.6-1.3,0.5-1.9,0.1C431.8,507.3,432.4,507.4,433.1,507.6z"/>
<path class="st4" d="M464.7,499.4C464.7,497.3,465,499.6,464.7,499.4C464.7,499,464.9,499.5,464.7,499.4z"/>
<path class="st4" d="M462.9,502.8C463.7,501.1,465,503.2,462.9,502.8C463,502.6,463.5,502.9,462.9,502.8z"/>
<path class="st0" d="M466.6,501.9C465.2,501.9,467.4,499.5,466.6,501.9C466.4,501.9,466.7,501.6,466.6,501.9z"/>
<path class="st0" d="M332.2,533.6c-0.1,0-0.3,0-0.4,0"/>
<path class="st0" d="M331.9,527.3c0,0.3,0,0.7,0,1C331.8,528,331.8,527.6,331.9,527.3z"/>
<path class="st0" d="M311.6,559.9c-0.1-0.3-0.1-0.6,0.3-0.8C312.2,559.5,312.1,559.8,311.6,559.9z"/>
<path class="st0" d="M376.1,427.6c0.3-0.1,0.5,0.1,0.6,0.4C376.3,428.1,376.1,427.9,376.1,427.6z"/>
<path class="st0" d="M312.9,555.5c-0.1-0.3,0.1-0.5,0.4-0.6C313.3,555.2,313.2,555.4,312.9,555.5z"/>
<path class="st4" d="M465.4,501.9c-0.1,0.4-0.3,0.5-0.5,0.1C465,501.9,465.2,501.8,465.4,501.9z"/>
<path class="st0" d="M435,543.9C435,543.9,435,544,435,543.9C434.9,543.9,434.9,543.9,435,543.9z"/>
<path class="st5" d="M582,443.7c-0.2,0.4-0.5,0.5-1,0.5C581.2,443.6,581.4,443.2,582,443.7z"/>
<path class="st4" d="M785.2,599.9c2.2,2.9-13.8,2.7-16.8,3.1c-9.8,1.3-19.6,2.5-29.5,3.6c-4.7,0.5-47.6,6.6-47.9,5.5
	C691,606.7,778.3,601.3,785.2,599.9C785.5,600.3,784.7,600,785.2,599.9z"/>
<path class="st5" d="M666.8,614.6c1.3-1.3-12.9-2.9-14.9-2.7c-9.7,1-19.4,3.1-28.9,5c-4.9,1-57,7.8-57,8.8
	c0-0.1,95.8-11.2,95.8-11.9c0,2.2-6,7.7-6,11.5c-10.7,0-127.1,13.5-127.1,10.8c5.5,2.3,9.8-8.4,9.8-11.7c6.1,6.1,52.1-8.7,52.7-7
	C599.7,614,665.3,605.3,666.8,614.6C666.7,614.7,666.7,614,666.8,614.6z M560.7,626.2c0,0.8,4.3,0.2,4.1-0.1
	C563.6,625.4,562.2,625.4,560.7,626.2C560.7,626.3,561.9,626.1,560.7,626.2z"/>
<path class="st4" d="M656.4,624.1c-4.8,0,5.5-10.6,5.5-10.5c0,0.6-95.8,11.8-95.8,11.9c0-0.6,63.6-10.1,69.6-11.2
	c4-0.7,26.2-6.8,28.5-1.6C664.5,613.3,656.4,621,656.4,624.1C656,624.1,656.4,624,656.4,624.1z"/>
<path class="st0" d="M661.8,617.1c13.4-1.9-7.7,23.9-9.3,17.4c-0.5-1.8,4.8-4.9,5.2-5.9c0.6-1.3-0.3-3.2,0.4-4.7
	C659.5,621.1,659.1,619.8,661.8,617.1C662.5,617,661,617.9,661.8,617.1z"/>
<path class="st4" d="M658.3,623.4c0,0.5-0.1,0.9-0.4,1.2C657.6,624.1,657.7,623.7,658.3,623.4z"/>
<path class="st4" d="M659,621.2c0.1,0.4-0.1,0.8-0.4,1C658.1,621.6,658.5,621.4,659,621.2z"/>
<path class="st4" d="M659.5,619.7c0,0.4-0.2,0.7-0.5,1C658.7,620.1,659,619.9,659.5,619.7z"/>
<path class="st5" d="M660.5,615.8c0.2-0.5,0.5-0.5,1-0.5C661.3,615.8,661,615.9,660.5,615.8z"/>
<path class="st5" d="M662.5,614.6c0.1-0.2,0.3-0.3,0.5-0.2C662.9,614.7,662.8,615,662.5,614.6z"/>
<path class="st0" d="M651.6,636.8C653,636.1,651.6,639.6,651.6,636.8C652.2,636.5,651.6,637.1,651.6,636.8z"/>
<path class="st2" d="M460,625.8c-10.3,0.9-22.9,5.6-33.1,4.2c-8.5-1.2-3.8,2.1-7.5-3.5c-2-3-2.6-7-0.7-9c2-2.1,29.7-4.7,33.3-3.6
	c5.6,1.6,2.1,0.4,5,7.2C457.8,622.9,460,624,460,625.8C457.6,626,460,625.6,460,625.8z"/>
<path class="st5" d="M454.9,613.4c-9.6,3-20.7,1.5-30.6,3.6c-8.8,1.9-8.9,4.2-2.9,13.2c-2.9-0.4-4.4-9.9-4.9-11.9
	c-2.6-9.6-4.5-7.9-14.8-9.5c-4.3-0.7-46.1-6.1-46.1-7.4c0-0.7,33,3.7,36,4.1c4.8,0.7,11.6,3.2,16.4,2.3c6.8-1.2,4.3,2.3,4.8-6.1
	c8.1,0.2,17-1,25.1-2.2c9.9-1.4,6.3-2.2,10.8,5.6c-3.6,0.1-33.9,1.6-34.4,3.6c-0.2,0.4,2.3,6.8,2.8,7.2c2.8,2.1,13.2-0.8,16.3-1.1
	c4.2-0.4,8.3-1,12.5-1.5c7.9-0.9,7.6,1,5.9-5.6C454.1,609.6,453.4,611.2,454.9,613.4C453,614,454.7,613.1,454.9,613.4z"/>
<path class="st2" d="M451.7,607.8c1.5,6.2,2.6,3.5-3.4,5.5c-4.2,1.4-10.4,1.2-14.9,1.6c-3.1,0.3-13,3.2-15.7,1.6
	c-0.5-0.3-3.7-7-3.4-7.7c2-3,18.8-2,23.1-2.4C444.1,605.7,446.7,606,451.7,607.8z"/>
<path class="st5" d="M412.3,600.7c4.9-9.8-4.1-4.2,5.8-7.8c3.8-1.4,9.4-0.9,13.4-1.3c1-0.1,10.2-1.8,11.2-1c2.5,2,1.1,6.2,2.4,7.8
	C434.2,598.4,423.3,601,412.3,600.7C412.5,600.3,415.7,600.8,412.3,600.7z"/>
<path class="st2" d="M412.3,600.7c11.2,0.7,22.5-2.5,33.7-2.5C446.1,599,412.3,603.6,412.3,600.7z"/>
<path class="st5" d="M451.7,607.8c-0.8-0.6-1.4-1.3-1.9-2.2c1.6-0.3,20.4-3.3,20.8-2C471.1,605.8,450.4,604.4,451.7,607.8
	C450.6,607.4,451.1,606.3,451.7,607.8z"/>
<path class="st5" d="M474.2,603.6c-4,0,13.7-4.4,13.7-2.2C488,602.2,475.8,603.4,474.2,603.6C473.8,603.6,476.2,603.3,474.2,603.6z"
	/>
<path class="st2" d="M424.3,567.6c0.2-0.9,4.9-2.4,5.2-0.7C430,569.2,425.1,568.2,424.3,567.6C424.4,567.2,424.7,567.9,424.3,567.6z
	"/>
<path class="st5" d="M459.8,624.9c-3.7-2-4.1-7.9-4.5-11.5C455.3,613.4,458.9,623.1,459.8,624.9
	C458.3,624.1,458.9,623.2,459.8,624.9z"/>
<path class="st5" d="M412.3,600.7C412.3,602.1,410.7,600.7,412.3,600.7C412.3,600.9,412,600.7,412.3,600.7z"/>
<path class="st5" d="M460,625.8C460,624.2,460.6,625.8,460,625.8C460,625.6,460.2,625.8,460,625.8z"/>
<path class="st2" d="M591.3,617.1c1.3,1.3-16.9,3.7-20.5,4.2c-8.5,1.2-25,6.7-32.4,2.2c-6.5-3.9-12-16.1-17.3-22.2
	c-15.1-17.3-31.3-33.4-46.2-50.7c-7.2-8.3-13.8-16.9-20.5-25.4c-2.6-3.3-13.9-14.7-9.3-16.4c3.4-1.3,17.4,15.8,20,18.4
	c9,9,17.8,18.5,25.7,28.4c14.5,18.1,27.7,37.6,44.2,54c6.7,6.7,10.7,12.1,20.6,11c4.3-0.5,7.5-1,11.5-1.3
	C574.8,618.7,583.4,617.1,591.3,617.1C591.5,617.3,591,617.1,591.3,617.1z"/>
<path class="st5" d="M536.6,611.2L536.6,611.2L536.6,611.2z"/>
<path class="st5" d="M427,521.4c-4.4,0.6-11.6-0.1-6.2-7.2c1.3-1.7,17-2.4,17.2-1.6C439,516.7,430.6,521.8,427,521.4
	C425.5,521.6,429,521.6,427,521.4z"/>
<path class="st5" d="M429.5,543.5c0,0.3-8.7-10.1-9.1-9.2c-0.5,1.4,2.9,5.2,1.4,6.3c-1.8-2.5-2.9-7.8-2.7-10.9
	c0.1-2.6,2.3-11,4.2-5.5c0.5,1.5-1.2,4.6-0.8,5.9c0.1,0.4,4.3,8.4,5.4,4c0,0.4-8.2,2.6-1.9,7.1c1.4,1,9.8-0.4,8.9,1.6
	C433.2,543.1,431.3,543.4,429.5,543.5C429.5,543.1,431,543.5,429.5,543.5z"/>
<path class="st5" d="M490.6,568.4c2,1,10.3,8.5,10.3,10.8C499,578.2,490.6,570.7,490.6,568.4C492.2,569.2,490.6,569,490.6,568.4z"/>
<path class="st5" d="M419.5,542.2c-2.1-0.2-8.8,0.2-10.5-1.5C410,539.7,419.1,540.6,419.5,542.2
	C416.7,541.9,419.4,541.8,419.5,542.2z"/>
<path class="st5" d="M484.5,561.8c0.4,0.1,6.5,5.3,6.1,6.4C490,567.9,484.5,563.1,484.5,561.8C485.7,562.2,484.5,562.1,484.5,561.8z
	"/>
<path class="st5" d="M461.7,535.1c1.9,0.4,4.7,4.9,5.4,6.4C465.4,540.9,462.4,536.6,461.7,535.1
	C462.8,535.3,462.4,536.7,461.7,535.1z"/>
<path class="st5" d="M453.7,524.9c1,0.3,3.9,4,3.9,4.9C456,528.4,454.7,526.7,453.7,524.9C455.1,525.3,454.8,526.6,453.7,524.9z"/>
<path class="st5" d="M506.9,585.8c1.7,1.3,3.1,2.9,4.2,4.7C510,590.3,506.9,585.7,506.9,585.8C508.2,586.6,507.3,587,506.9,585.8z"
	/>
<path class="st5" d="M458.1,530.5c1.5,1.1,2.7,2.4,3.4,4.2C460.1,533.5,458.9,532.1,458.1,530.5z"/>
<path class="st5" d="M480.3,557.2c1.6,1.1,3.1,2.2,3.7,4.2C482.8,559.9,481.2,558.8,480.3,557.2z"/>
<path class="st5" d="M533.1,616.8c1.4,1.1,2.4,2.6,3.2,4.2C534.9,619.8,533.7,618.6,533.1,616.8z"/>
<path class="st5" d="M530.2,612.7c1.1,1.1,2.2,2.3,2.7,3.9C531.8,615.4,530.6,614.3,530.2,612.7z"/>
<path class="st5" d="M475.4,551.5c1.4,0.9,2.4,2.1,3.2,3.4C477.1,554.2,476.1,553,475.4,551.5z"/>
<path class="st5" d="M527,608.7c1.3,1,2.3,2.2,2.9,3.7C528.6,611.4,527.7,610.2,527,608.7z"/>
<path class="st5" d="M502.3,580.9c1.5,0.6,2.1,2,2.9,3.2C503.9,583.4,503.1,582.1,502.3,580.9z"/>
<path class="st5" d="M444.9,513.4c1.2,0.5,1.7,1.6,2.2,2.7C446,515.5,445.3,514.5,444.9,513.4z"/>
<path class="st5" d="M450,520c1.1,0.6,1.6,1.7,2.2,2.7C450.9,522.2,450.5,521.1,450,520z"/>
<path class="st5" d="M468.1,542.7c0.9,0.6,1.8,1.4,2.2,2.5C469.2,544.7,468.5,543.8,468.1,542.7z"/>
<path class="st5" d="M513.6,593.1c0.9,0.3,1.4,0.8,1.7,1.7C514.4,594.5,513.8,594,513.6,593.1z"/>
<path class="st5" d="M443.1,510.9c0.7,0.5,1.2,1.2,1.5,2C443.6,512.6,443.2,511.9,443.1,510.9z"/>
<path class="st5" d="M522.4,603.1c0.9,0.3,1.4,0.8,1.7,1.7C523.2,604.5,522.6,604,522.4,603.1z"/>
<path class="st5" d="M471,546.4c0.9,0.3,1.4,0.8,1.7,1.7C471.9,547.8,471.3,547.3,471,546.4z"/>
<path class="st5" d="M515.8,595.5c0.8,0.2,1.3,0.7,1.5,1.5C516.5,596.8,516,596.3,515.8,595.5z"/>
<path class="st5" d="M525.5,606.8c0.8,0.2,1,0.8,1.2,1.5C526,608.1,525.8,607.4,525.5,606.8z"/>
<path class="st5" d="M521.2,601.6c0.7,0.2,1.1,0.5,1.2,1.2C521.7,602.7,521.3,602.3,521.2,601.6z"/>
<path class="st5" d="M519.7,599.9c0.7,0.1,1.1,0.5,1.2,1.2C520.2,601,519.8,600.6,519.7,599.9z"/>
<path class="st5" d="M537.3,622.4c0.8,0.1,0.9,0.7,1,1.2C537.5,623.6,537.4,623,537.3,622.4z"/>
<path class="st5" d="M421.9,541.2C422.8,541.2,422.5,543.5,421.9,541.2C422.2,541.2,422,541.6,421.9,541.2z"/>
<path class="st5" d="M449,518.5c0.4,0.2,0.7,0.5,0.7,1C449.1,519.4,449,519,449,518.5z"/>
<path class="st5" d="M420.9,542.2c-0.3,0.3-0.7,0.3-1,0C420.2,541.9,420.6,541.9,420.9,542.2z"/>
<path class="st5" d="M470.3,545.4c0.6,0,0.8,0.4,0.7,1C470.6,546.2,470.3,545.9,470.3,545.4z"/>
<path class="st5" d="M447.1,516.3c0.5,0,0.7,0.3,0.7,0.7C447.3,517,447.1,516.8,447.1,516.3z"/>
<path class="st5" d="M518,598c0.5,0,0.7,0.3,0.7,0.7C518.2,598.7,518,598.4,518,598z"/>
<path class="st5" d="M479.3,555.9c0.5,0,0.7,0.3,0.7,0.7C479.6,556.6,479.3,556.4,479.3,555.9z"/>
<path class="st5" d="M524.3,605.3c0.5,0,0.7,0.3,0.7,0.7C524.6,606,524.3,605.8,524.3,605.3z"/>
<path class="st5" d="M512.1,591.4c0.5,0,0.7,0.3,0.7,0.7C512.4,592.1,512.1,591.8,512.1,591.4z"/>
<path class="st5" d="M452.4,523.2c0.5,0,0.7,0.3,0.7,0.7C452.7,523.9,452.5,523.6,452.4,523.2z"/>
<path class="st5" d="M474.9,550.8c0.5,0,0.5,0.4,0.5,0.7C475.1,551.4,474.9,551.1,474.9,550.8z"/>
<path class="st5" d="M448.5,518c0.3,0,0.5,0.2,0.5,0.5C448.7,518.5,448.5,518.3,448.5,518z"/>
<path class="st5" d="M579.1,635.4c-0.1,0.2-0.3,0.2-0.5,0.2C578.7,635.3,578.8,635,579.1,635.4z"/>
<path class="st5" d="M499,606.4C499,606.1,499.6,606.4,499,606.4C499,606.3,499.1,606.4,499,606.4z"/>
<path class="st2" d="M605.7,594.8c0,0.6-8.1,0.5-8.1,0.5C598.8,594.1,604.6,594.5,605.7,594.8C605.7,594.9,603.1,594.1,605.7,594.8z
	"/>
<path class="st2" d="M600.6,591.5c0.7,0.5,1.3,1.1,1.9,1.7C602.4,593.6,599.7,593.5,600.6,591.5
	C600.7,592.3,600.1,592.6,600.6,591.5z"/>
<path class="st5" d="M575.7,596.3c-0.3,0.4-2.5,0.9-2.5,0C574,596.3,574.9,596.3,575.7,596.3C575,597.2,574.9,596.3,575.7,596.3z"/>
<path class="st2" d="M551.4,501.8c-0.8,0.4-1.3,0.3-2.1,0.2C550.1,501.5,550.6,501.6,551.4,501.8z"/>
<path class="st5" d="M588.2,595.6C587.8,596.4,584.1,595.6,588.2,595.6C587.8,596.4,587.6,595.6,588.2,595.6z"/>
<path class="st2" d="M586.4,595.5C586.4,597.6,584.6,594.1,586.4,595.5C586.4,595.7,585.9,595.1,586.4,595.5z"/>
<path class="st2" d="M586.8,563c-0.4,0.4-0.8,0.3-1.2,0.1C585.9,562.6,586.4,562.9,586.8,563z"/>
<path class="st2" d="M568.3,594.4c-0.8,0-0.8-0.7-1-1.2C568,593.3,568.1,593.8,568.3,594.4z"/>
<path class="st2" d="M576.9,596.3C573.9,596.3,576.9,596.1,576.9,596.3C576.5,596.3,576.9,596.2,576.9,596.3z"/>
<path class="st5" d="M570.8,596.7c-0.4,0.4-0.6,0.3-0.8-0.2C570.3,596.5,570.6,596.5,570.8,596.7z"/>
<path class="st2" d="M573.2,596.3C573.2,597.9,572,595.1,573.2,596.3C573.2,596.4,572.8,595.9,573.2,596.3z"/>
<path class="st5" d="M568.8,595.8C567.8,595.7,568.8,593.7,568.8,595.8C568.1,595.7,568.8,595.6,568.8,595.8z"/>
<path class="st2" d="M567.3,593.1c-0.3-0.1-0.5-0.4-0.5-0.7C567.4,592.4,567.4,592.7,567.3,593.1z"/>
<path class="st2" d="M568.8,595.3c-0.2-0.1-0.3-0.3-0.2-0.5C568.9,594.9,569.2,594.9,568.8,595.3z"/>
<path class="st2" d="M582.8,596C581.7,596,582.8,595.6,582.8,596C582.6,596,582.8,595.8,582.8,596z"/>
<path class="st5" d="M576.9,596.3C576.9,595.1,577.7,597.1,576.9,596.3C576.9,596.2,577.2,596.6,576.9,596.3z"/>
<g>
	<path class="st5" d="M550.2,615.4c-4.2-3.2-9.2-8.9-12.5-13.1c0.8,0.7,1.5,1.4,2.3,2.1c-1-5.2-11.3-13.5-14.8-17.7
		c-4.2-5.2-8.4-10.5-12.6-15.7c-10.1-12.3-20.4-24.4-30.9-36.2c-4.9-5.5-9.9-11-15.3-16.1c-2.7-2.6-9-10.9-12.4-12.1
		c-2.3-0.8-15.3,1.9-18.9,2.2c-1,0.1-13.9-0.2-11.2,3.1c1.7,2.1,17.5-1.9,18.9-1.8c5.4,0.7,6.3,1.8,11.8,7.2
		c13.1,12.7,26.3,25.9,37.5,40.4c7.2,9.4,47,70,59.9,59.5C551.4,616.6,550.8,616,550.2,615.4C549.8,615.1,550.5,616.2,550.2,615.4z
		 M530.1,600.9C529,600.9,531.2,600.9,530.1,600.9C529.9,600.9,530.2,600.9,530.1,600.9z"/>
	<path class="st5" d="M560,602.9c-2.1-6.5-17.4-15.3-22.1-20.3c-9.8-10.3-18.8-21.3-28.1-32c-8.2-9.5-16.9-18.5-25.1-28.1
		c-4.1-4.9-8.2-9.8-12.3-14.7c-5.5-6.6-5.3-5.5-13.7-3.9c30.5,28.4,52.7,66.3,86.2,91.1c6.2,4.6,10.5,8.5,17.7,8.7
		c10.5,0.2,21.7-3.2,32.3-3.7c23.8-1.2,47.6,0.9,70.7,6.2C633.4,594.3,593.2,596.5,560,602.9C559,599.8,571.4,600.7,560,602.9z"/>
	<path class="st5" d="M664.1,606.9c0.8-1,1.9-1.6,3.3-1.6c-24.8-19-73.2-11.3-101.3-7.6c19.5-1.2,39.3-2.2,58.9-1.3
		c4.4,0.2,42,3.7,41.4,8.9c-0.7,3.6-31.5,0.2-33.2,1.2c0,1.2,3.3,1.8,3.3,2.1c0.2,1.8-65.2,5.2-73.4,8.3c0.8-0.1,1.6-0.2,2.4-0.3
		c-4.5,0.4-14.8-3.2-17.4-1.5c-6.8,4.4,1.8,5.6,4.6,5.9c14.4,1.5,31.3-2.8,45.7-4.7c14-1.9,28.1-3,42.2-4.8c9.4-1.2,17.1,1,26.1,1
		C666.5,611.2,664.1,607.3,664.1,606.9z"/>
	<path class="st5" d="M570.2,596.9C570.8,598,572.1,593,570.2,596.9C570.3,597.1,570.4,596.5,570.2,596.9z"/>
	<path class="st5" d="M568.4,595.6c-5.1-15.2-22.4-31.2-31.9-44.1c-3.6-4.8-41.4-62-43.1-61.2c0.6,1.9-13.5,2-15.5,2.2
		c15.8,11.8,26.3,31.7,37.2,47.7c8.3,12.2,17.6,23.7,27.9,34.3c5.7,5.9,18.7,24.7,27.2,22.9C569.8,596.6,569.2,596,568.4,595.6
		C568.3,595.3,568.6,596,568.4,595.6z M554.5,583.4c-1,0.2-2.2-3-0.8-3.3C554.7,580.1,555.2,583.2,554.5,583.4z"/>
</g>
<path class="st5" d="M666.8,606.3c-0.6-1.3-22.5-3.5-22.8-5.4C643.3,597.5,667.7,606.5,666.8,606.3
	C666.9,606.5,665.7,606.1,666.8,606.3z"/>
<path class="st5" d="M559.8,620.2c-3.2,3.2-15.6,1.8-17.2-3.1c5.4,1.5,4.2,3.3,10.1,3.7C555,620.9,557.5,619.1,559.8,620.2
	C559.7,620.3,559.6,620.1,559.8,620.2z"/>
<path class="st5" d="M567.1,608.2"/>
<path class="st5" d="M554.9,582.9c0,1.8-3.4-2.3-1.2-2.7C554.7,580.7,555.1,581.6,554.9,582.9C554.9,583,554.8,582,554.9,582.9z"/>
<path class="st5" d="M590.4,617.1c-0.5,1.4-6.2,0.5-5.6,0.7C586.7,617.6,588.5,617.3,590.4,617.1C590.1,618,588.5,617.2,590.4,617.1
	z"/>
<path class="st5" d="M540.7,615.1c-1.7-0.9-3.1-2.2-4.1-3.9C537.7,611.2,540.4,614.4,540.7,615.1
	C538.9,614.2,539.9,613.4,540.7,615.1z"/>
<path class="st5" d="M536.6,611.2c-1.2-0.9-2.6-1.6-2.9-3.2C534.8,608.9,536.2,609.6,536.6,611.2z"/>
<path class="st5" d="M576.2,616.3c1.5-0.2,2.9-0.3,4.4-0.5C580.2,616.9,576,616.2,576.2,616.3C577.6,615.9,577.1,616.8,576.2,616.3z
	"/>
<path class="st5" d="M578.1,618.3c-0.9,1.1-2.1,1.3-3.7,0.7C575.1,618.1,577.2,618.3,578.1,618.3C578,618.6,577.6,618.3,578.1,618.3
	z"/>
<path class="st5" d="M552.9,617.8c1.1-0.1,2.1-0.4,3.2-0.2C555.5,618.2,553.5,618.3,552.9,617.8z"/>
<path class="st5" d="M544.9,609.7c0.9,0.3,1.4,0.8,1.7,1.7C545.7,611.1,545.1,610.6,544.9,609.7z"/>
<path class="st5" d="M547.5,612.7c0.9,0.3,1.4,0.8,1.7,1.7C548.4,614.1,547.8,613.5,547.5,612.7z"/>
<path class="st5" d="M550.2,615.4c0.9,0.3,1.5,0.8,1.7,1.7C551.1,616.8,550.5,616.2,550.2,615.4z"/>
<path class="st5" d="M581.8,618.2c-0.7,0.4-1.5,0.4-2.2,0C580.3,617.9,581.1,617.9,581.8,618.2z"/>
<path class="st5" d="M573,619c-0.6,0.4-1.3,0.4-2,0C571.7,618.6,572.3,618.7,573,619z"/>
<path class="st5" d="M569.8,619c-0.5,0.9-1.3,0.3-2,0.5C568.3,618.6,569.2,619.2,569.8,619z"/>
<path class="st5" d="M567.4,617c0.6-0.9,1.3-0.5,2-0.2C568.7,617.3,568,617,567.4,617z"/>
<path class="st5" d="M549.8,594.6c0.7,0.1,1.1,0.7,1.5,1.2C550.4,595.8,549.9,595.3,549.8,594.6z"/>
<path class="st5" d="M564.2,619.5c-0.5,0.8-1.1,0.6-1.7,0.2C563,619.3,563.6,619.6,564.2,619.5z"/>
<path class="st5" d="M547.1,592.1c0.7,0.1,1.1,0.5,1.2,1.2C547.6,593.2,547.2,592.8,547.1,592.1z"/>
<path class="st0" d="M664.7,609.3C663.8,611.2,663.8,608.1,664.7,609.3C664.6,609.5,664.4,608.9,664.7,609.3z"/>
<path class="st5" d="M562,619.8c-0.3,0.9-1,0.3-1.5,0.5C560.8,619.4,561.5,619.9,562,619.8z"/>
<path class="st5" d="M583.8,617.8c-0.3,0.9-1,0.3-1.5,0.4C582.6,617.4,583.2,617.9,583.8,617.8z"/>
<path class="st5" d="M543.1,607.8c0.6,0.1,0.9,0.4,1,1C543.6,608.7,543.2,608.3,543.1,607.8z"/>
<path class="st5" d="M540.5,604.8c0.6,0.1,0.9,0.4,1,1C540.9,605.7,540.5,605.4,540.5,604.8z"/>
<path class="st5" d="M569.8,616.8c0.3-0.8,0.7-0.6,1.2-0.2C570.7,617,570.2,616.8,569.8,616.8z"/>
<path class="st5" d="M558.1,601.4c0.4,0,0.6,0.2,0.7,0.5C558.4,601.9,558.1,601.9,558.1,601.4z"/>
<path class="st5" d="M553.2,597.5c0.3,0,0.5,0.2,0.5,0.5C553.4,598,553.2,597.8,553.2,597.5z"/>
<path class="st5" d="M567.4,619.5c-0.2,0.3-0.3,0.3-0.5,0C567,619.3,567.2,619.2,567.4,619.5z"/>
<path class="st5" d="M560,602.9c0.3,0,0.5,0.2,0.5,0.5C560.2,603.4,560,603.2,560,602.9z"/>
<path class="st5" d="M552.2,617.3c0.3,0,0.5,0.1,0.5,0.5C552.4,617.8,552.2,617.6,552.2,617.3z"/>
<path class="st5" d="M564.4,617.1c0.2-0.3,0.3-0.3,0.5,0C564.8,617.3,564.6,617.3,564.4,617.1z"/>
<path class="st5" d="M605.3,613.4c0.1-0.3,0.1-0.6,0.5-0.2C605.6,613.4,605.5,613.4,605.3,613.4z"/>
<path class="st4" d="M472,493c-1.1,0.7-2.2,1-3.5,0.7C469.6,493.1,470.7,492.6,472,493z"/>
<path class="st5" d="M480.3,492.1c-0.3,0.7-0.7,0.6-1.2,0.2C479.4,492,479.9,492.2,480.3,492.1z"/>
<path class="st0" d="M480.2,491.5c0.5-0.2,0.9-0.1,1.4,0C481.1,491.6,480.7,491.7,480.2,491.5z"/>
<path class="st5" d="M474.5,492.9c-0.1,0.3-0.1,0.6-0.5,0.2C474.1,492.9,474.3,492.8,474.5,492.9z"/>
<path class="st5" d="M478.6,492.4c-0.1,0.3-0.1,0.6-0.5,0.2C478.2,492.4,478.4,492.3,478.6,492.4z"/>
<path class="st4" d="M466.6,501.9C467.4,500.2,467.2,502.5,466.6,501.9C466.7,501.7,466.9,502.2,466.6,501.9z"/>
<path class="st5" d="M453.4,505.1C454.1,505.1,453.4,507.5,453.4,505.1C453.6,505.1,453.4,505.4,453.4,505.1z"/>
<path class="st4" d="M560.7,626.2c1.5-0.8,2.9-0.8,4.2-0.1C564.9,627,560.7,626.5,560.7,626.2C562,626.1,560.7,626.3,560.7,626.2z"
	/>
<path class="st4" d="M666.2,612.1c0.1,0,0.2,0.1,0.2,0.3C666.3,612.3,666.2,612.2,666.2,612.1z"/>
<path class="st4" d="M530.4,600.7C529.8,601.3,529.7,600,530.4,600.7C530.3,600.8,530.3,600.6,530.4,600.7z"/>
<path class="st6" d="M476.7,469.1c17.9-3,32.3,2,49.5,6.5c15.9,4.2,33.1,5,45.2,17.2c34.2,34.8,66.2,72.1,95.1,111.4
	c-17.4-7.9-35.9-9.2-54.7-9.2c-7.4,0-14.8,0.3-22.1,0.7c-4.5,0.3-16,3.3-19.9,1.5c-2.6-1.2-5.8-8.1-7.6-10.5
	C533.8,547.4,506.3,507.5,476.7,469.1C477.9,468.9,491.4,488.2,476.7,469.1z"/>
<path class="st7" d="M534.9,685.4"/>
<path class="st2" d="M625.2,522"/>
<path class="st8" d="M649.3,481.7"/>
<path class="st9" d="M627,462"/>
<path class="st2" d="M616.3,534.7"/>
<path class="st2" d="M621.8,539.2"/>
<g>
	<path class="st6" d="M785.7,565.9c-13.5-16.9-30.4-31.1-44.9-47.1c-11.1-12.3-21.1-26.1-34.1-36.5c-3-2.4-6.1-4.7-9.2-7
		c-8-6-8.5-5.6-17.7-2.3c-10,3.5-20.2,6.2-30.7,8c-25.5,4.3-50.3,5.1-74.3,15.8c19.5,20.9,39.1,41.5,57.3,63.5
		c4.5,5.4,43.4,46.1,38.1,53.2c38.1-20,83.2-20.1,122.2-38.2C790.5,572,788.1,568.8,785.7,565.9
		C778.9,557.4,788.9,569.8,785.7,565.9z"/>
	<path class="st2" d="M574.4,496.5c-0.2-0.2-0.3-0.3-0.5-0.5C574,496.1,574.4,496.6,574.4,496.5z"/>
	<path class="st2" d="M549.9,481c3.9,0.8,29.4,12.7,31.3,4.4c0.2-0.7-9.1-7.7-9.7-8.8c-2.3-3.9-2.6-9.2-1.9-13.6
		c-36.8,1.3-73.5,3.8-110.3,5.4c-8.8,0.4-17.4,1.2-26.2,2.1c-4.4,0.4-8.5-1.2-8,4.4c0.5,5.7,4,3.7,8.4,3.8
		c15.9,0.7,32.6-1.5,48.4-2.3c-1.9-2.5-3.7-4.9-5.6-7.4c19.3-4,34.7,5.4,53.2,5.5c5.6,0,36.9-7.1,39.6-4.3
		c1.7,1.7-15.4,3.5-18.5,3.8c-7.9,0.7-16,1.8-23.9,1.8C534.4,477.7,542.2,479.3,549.9,481C551.9,481.4,545.9,480.1,549.9,481z"/>
</g>
<path class="st2" d="M764.9,447.1"/>
<path class="st2" d="M678.4,610.9"/>
<path class="st5" d="M677.6,608.9"/>
<path class="st2" d="M813.1,485.1"/>
<path class="st2" d="M623.1,440.2"/>
<path class="st2" d="M839,448.5"/>
<path class="st0" d="M506.2,650.5"/>
<path class="st0" d="M529.1,700.8"/>
<path class="st0" d="M676.3,647.9"/>
<path class="st10" d="M305.7,517.5"/>
<path class="st10" d="M327.9,533.8"/>
<path class="st0" d="M350.3,536.3"/>
<path class="st11" d="M303.7,595.7"/>
<path class="st10" d="M640.4,443.3"/>
<path class="st11" d="M599.4,590.7"/>
<path class="st5" d="M628.6,648.8"/>
<path class="st0" d="M370,555.6"/>
<path class="st0" d="M321.7,549.3"/>
<path class="st4" d="M420.4,656.9"/>
<path class="st5" d="M431.6,631.6"/>
<path class="st4" d="M460.1,628.2"/>
<path class="st4" d="M439,631.3"/>
<path class="st4" d="M466.8,627.5"/>
<path class="st5" d="M516.8,623.8"/>
<path class="st5" d="M515.7,622.3"/>
<path class="st5" d="M337.1,534.8"/>
</svg>
