<?xml version="1.0" encoding="utf-8"?>
<!-- Generator: Adobe Illustrator 19.0.0, SVG Export Plug-In . SVG Version: 6.00 Build 0)  -->
<svg version="1.1" id="smilecloud" xmlns="http://www.w3.org/2000/svg" xmlns:xlink="http://www.w3.org/1999/xlink" x="0px" y="0px"
	 width="1000px" height="1000px" viewBox="0 0 1000 1000" style="enable-background:new 0 0 1000 1000;" xml:space="preserve">
<style type="text/css">
	.stsmile0{fill:#FFFF00;stroke:#000000;stroke-width:2;stroke-miterlimit:10;}
	.stsmile1{fill:#FFFF00;}
	.stsmile2{stroke:#000000;stroke-miterlimit:10;}
	.stsmile3{fill:none;stroke:#000000;stroke-width:10;stroke-linecap:round;stroke-linejoin:round;stroke-miterlimit:10;}
</style>
<path id="smilecloudpath" class="stsmile0" d="M198.5,986.8L283.9,700c-5.3,4.9-25.1,22-54.8,22.6c-10.7,0.2-45.4-1.3-64.5-30.4
	c-19.7-30.1-5.8-63.9-4.6-66.7c-3.2,2.9-25.9,23.2-56.3,18.4c-34.8-5.6-57.3-40.7-55.5-66.2C50,554.2,72.8,527,72.8,527l0,0
	c-8.3-1.6-24.1-6.1-37-19.3c-26-26.5-25.6-72.8-7.2-96.7c11.9-15.4,37.8-30.1,37.8-30.1l0,0c-11.3-9.8-41-38.2-46.8-82.7
	c-7.9-60.5,31.5-124.4,87.7-141.4c27.2-8.2,51.9-3.5,65.4,0.3c-1.8-17.5-2.2-51,18.7-79.1c39.7-53.2,130.9-53.1,170.1-19.7
	c15.4,13.2,39.5,45.9,41.3,48l0,0c2.9-6.2,31.5-64.7,96.5-76.7c6.2-1.1,74.6-12.6,114.6,35.8c19.6,23.8,23.1,50.8,23.8,63.1
	c6.5-6.7,53.9-54.1,121.2-47C829.5,89,882.5,152.1,888,215.9c3.1,36.5-9.8,65.7-17.9,80.6c5.1,0.5,59.3,7,84.1,53.7
	c23.3,43.8,6.3,95.8-23.3,125.3c-27.9,27.9-63.1,31.7-74.1,32.4c5.9,10.7,18,36.3,13.2,67.8c-7.3,47.5-48.6,78.9-85.9,89.5
	c-67,19-119.8-29.4-122.5-31.9c1.4,11.3,3.3,40-13.6,67.7c-23.4,38.5-70.6,54.9-111,48.3c-35.4-5.7-57.8-27.8-65.9-36.7L198.5,986.8
	z"/>
<circle id="smilebody" class="stsmile1" cx="463.7" cy="393.8" r="284.5"/>
<ellipse id="smileeye2" class="stsmile2" cx="560.5" cy="298.3" rx="21.1" ry="63.2"/>
<ellipse id="smileeye1" class="stsmile2" cx="369.5" cy="298.3" rx="21.1" ry="63.2"/>
<path id="smilemouth" class="stsmile3" d="M627.3,487.9c-77.8,124.9-254.2,126.9-328,1.1"/>
</svg>
