<?xml version="1.0" encoding="utf-8"?>
<!-- Generator: Adobe Illustrator 19.0.0, SVG Export Plug-In . SVG Version: 6.00 Build 0)  -->
<svg version="1.1" id="donkey" xmlns="http://www.w3.org/2000/svg" xmlns:xlink="http://www.w3.org/1999/xlink" x="0px" y="0px"
	 width="1000px" height="1000px" viewBox="0 0 1000 1000" style="enable-background:new 0 0 1000 1000;" xml:space="preserve">
<style type="text/css">
	.st0{fill:#8A8A8A;}
	.st1{fill:#6E6E6E;}
	.st2{fill:#B3B3B3;}
	.st3{fill:#19150A;}
	.st4{fill:#4C4D4D;}
	.st5{fill:#CACACA;}
	.st6{fill:#C69866;}
	.st7{fill:#D5A76F;}
	.st8{fill:#F3E2CA;}
	.st9{fill:#FFFFFF;}
	.st10{fill:#F5F5F5;}
	.st11{fill:#C3272F;}
	.st12{fill:#F4F6F6;}
	.st13{fill:#664F1F;}
	.st14{fill:#685025;}
	.st15{fill:none;stroke:#4C3A12;stroke-width:4;stroke-miterlimit:10;}
	.st16{fill:none;stroke:#4C3A12;stroke-width:7;stroke-miterlimit:10;}
	.st17{fill:#D99D5E;}
	.st18{fill:#62B173;}
	.st19{fill:#EF5918;}
	.st20{fill:#62531A;}
	.st21{fill:#666666;}
	.st22{fill:#4D4D4D;}
	.st23{fill:#858585;}
	.st24{fill:#676767;}
	.st25{fill:#FEFEFE;}
	.st26{fill:#D3D2BE;}
	.st27{fill:#918F83;}
	.st28{fill:#565656;}
	.st29{fill:#878787;}
	.st30{fill:#545452;}
</style>
<rect id="grownd" y="854.3" class="st0" width="1000" height="145.7"/>
<ellipse id="shadow" class="st1" cx="567.4" cy="937.7" rx="234.7" ry="22.6"/>
<path id="city" class="st2" d="M0,856.8v-88.4h16.2V663.1h73.7V701h12.6v-59h100v63.2h16.8v-51.6l17.5-27v-22.4l1.8,3.1v19.2
	l16.9,26.5v40.8c0,0,3.1,6.7,3.6,56.8l8.6-7.1v-36l4.9-29.9l13-29.9l10.1,29.4l3.2,22.2l17.2,0.2V688l4.5-4.5l29.3-0.1v20.9l4.6-4.6
	l12.3-0.2V633h23.1v14.8h13.3l9,9v50.9h22.7v-43.4h46v22.6H500v-73.8h20.5v43.4c0,0,9.2,6.5,10.2,31.4h15.7v-27.7h23.1v58.1h13.8
	v-76.6h20.3v36.9h37.8v-61.8h20.3v96.9h19.4l3.8-23.6V653l14.9-26v-22.8l2.1,2V627l13.9,23.9v40.6c0,0,8.3,6.2,7.3,63.1h8v-47.2
	l4.2-29.5l13.9-29.8l10.1,29.1l2.1,20.5h19.4V687l3.6-3.6h28.3v21l4.9-4.9h12.5v-66.2h22.5v15.6h14.2l7.5,7.5v51.9h24.8v-44.1h70.8
	v37.5h13.9V642h16.4v214.9H0V856.8z"/>
<g id="leg1">
	<path id="leg1-down_x5F_knee" class="st3" d="M463.3,717.6l-40.5,168.9c0,0-0.3,13,14.5,17.5s24.1-5.7,24.1-5.7l41.3-172.4
		c0,0-0.8-14-16-16S469.9,712.2,463.3,717.6z"/>
	<path id="leg1-down_x5F_boot" class="st4" d="M461.5,898.3l-9.4,27.9L366.5,894c0,0,7.1-20.5,34.6-8.1c0,0,15.8,6.4,21.8,0.7
		L461.5,898.3z"/>
	<ellipse id="leg1-down_x5F_blik" class="st5" cx="384.2" cy="886" rx="5.7" ry="2"/>
	<polygon id="leg1-down_x5F_base" class="st3" points="452.1,926.1 450.8,931.3 363.6,899.6 366.5,893.9 	"/>
	<path id="leg1-up" class="st3" d="M508,573l-43.1,139.8c-1.6,5-1,10.6,1.9,15c2.1,3.2,5.6,6.1,11.1,6.7c3.5,0.4,6.8,0.2,9.8-0.3
		c7.9-1.2,14.8-5.7,19.4-12.2c24.9-35.3,49.9-70.6,74.8-105.9c2.4-3.6,5.9-9.7,7.3-18.1c0.7-3.8,1.5-8.8,0-14.9
		c-2.2-8.9-7.8-14.5-10.8-17.4c-1.4-1.4-5.1-4.9-11-8c-12-6.3-24.6-6.8-34.7-5.5C521.1,553.7,511.4,561.8,508,573z"/>
</g>
<g id="leg2">
	<path id="leg2-down_x5F_knee" class="st3" d="M624.4,730.5l166.8,48.6c0,0,12.9,0.9,18.2-13.7c5.2-14.6-4.6-24.3-4.6-24.3
		l-170.2-49.6c0,0-14,0.1-16.8,15.3C615,721.8,619.4,723.7,624.4,730.5z"/>
	<path id="leg2-down_x5F_boot" class="st4" d="M793.4,739.4l29.4,0.8l-5.6,91.3c0,0-21.7-0.7-17.9-30.7c0,0,1.4-17-5.8-21.1
		L793.4,739.4z"/>
	
		<ellipse id="leg2-down_x5F_blik" transform="matrix(0.2948 0.9556 -0.9556 0.2948 1347.7819 -192.7047)" class="st5" cx="804.4" cy="816.8" rx="5.7" ry="2"/>
	<polygon id="leg2-down_x5F_base" class="st3" points="822.8,740.1 828.1,739.9 823.5,832.6 817.2,831.5 	"/>
	<path id="leg2-up" class="st3" d="M522.8,613.3l96,112.5c3.4,4,8.4,6.4,13.6,6.4c3.9-0.1,8.1-1.4,11.6-5.8c4.7-6,6.8-12.5,7.7-17.1
		c0.7-3.5,0.3-7.1-1-10.4l-54-131.4c-3.4-8.2-10.5-14.4-19.2-16.3c-9.3-2.1-21.9-2.4-34.7,5c-12.9,7.3-20.3,19-24.4,28.8
		C514.3,594.4,516.1,605.4,522.8,613.3z"/>
</g>
<g id="hand2">
	<g id="palm_3_">
		<path id="palm_1_" class="st6" d="M423.7,449.7c0-0.4,0.1-2.4-1.4-4.2c-1.4-1.7-3.3-2-3.7-2.1c-6.8-0.8-13.7-1.5-20.5-2.3
			c0,0-4.2,0.5-4.7,1.2s-2.4,26.5-2.4,26.5s0.9,3.1,3.7,3.8s20.1,2.3,20.1,2.3s5.4,0.7,7.5-3.5C424.2,467.3,423.7,449.7,423.7,449.7
			z"/>
		<path id="finger_x5F_thumb" class="st7" d="M411.4,453.9c-1,0.7-2.5,1.3-3.8,0.5c-1.2-0.7-2.1-2.3-2.1-3.8
			c0.1-1.9,1.8-2.6,1.9-2.7c3.5-2.3,7.1-4.6,10.6-6.9c0.3,0,1.5-0.1,2.7,0.8c0.3,0.2,1.4,1,1.7,2.4c0.3,1.5-0.7,2.5-0.8,2.6
			C418.3,449.1,414.8,451.5,411.4,453.9z"/>
		<path id="finger1_2_" class="st7" d="M404.9,443.5c1.2,0.1,2.9,0.7,3.4,2.1c0.3,0.7,0.3,1.5,0.1,2.2c-0.3,1.2-1.3,2.1-2.5,2.5
			c-0.7,0.2-1.1,0.1-2.3,0c-4.2-0.6-8.4-0.9-12.7-1.5c-0.6-0.1-1.3-0.5-1.7-0.9c-0.3-0.4-0.6-1-0.8-1.7c-0.1-0.4-0.3-1.7,0.5-2.8
			c0.8-1.3,2.3-1.3,2.5-1.3C396,442.5,400.4,443,404.9,443.5z"/>
		<ellipse id="nail1_2_" class="st8" cx="404.9" cy="447" rx="2.8" ry="2.7"/>
		<path id="finger1_1_" class="st7" d="M404,450.6c1.2,0.1,2.9,0.7,3.4,2.1c0.3,0.7,0.3,1.5,0.1,2.2c-0.3,1.2-1.3,2.1-2.5,2.5
			c-0.7,0.2-1.1,0.1-2.3,0c-4.2-0.6-8.4-0.9-12.7-1.5c-0.6-0.1-1.3-0.5-1.7-0.9c-0.3-0.4-0.6-1-0.8-1.7c-0.1-0.4-0.3-1.7,0.5-2.8
			c0.8-1.3,2.3-1.3,2.5-1.3C395.1,449.6,399.6,450.1,404,450.6z"/>
		<ellipse id="nail1_1_" class="st8" cx="404" cy="454.1" rx="2.8" ry="2.7"/>
		<path id="finger1_5_" class="st7" d="M403.2,457.5c1.2,0.1,2.9,0.7,3.4,2.1c0.3,0.7,0.3,1.5,0.1,2.2c-0.3,1.2-1.3,2.1-2.5,2.5
			c-0.7,0.2-1.1,0.1-2.3,0c-4.2-0.6-8.4-0.9-12.7-1.5c-0.6-0.1-1.3-0.5-1.7-0.9c-0.3-0.4-0.6-1-0.8-1.7c-0.1-0.4-0.3-1.7,0.5-2.8
			c0.8-1.3,2.3-1.3,2.5-1.3C394.2,456.5,398.7,457,403.2,457.5z"/>
		<ellipse id="nail1_5_" class="st8" cx="403.1" cy="461.1" rx="2.8" ry="2.7"/>
		<path id="finger1_7_" class="st7" d="M402.5,464.5c1.2,0.1,2.9,0.7,3.4,2.1c0.3,0.7,0.3,1.5,0.1,2.2c-0.3,1.2-1.3,2.1-2.5,2.5
			c-0.7,0.2-1.1,0.1-2.3,0c-4.2-0.6-8.4-0.9-12.7-1.5c-0.6-0.1-1.3-0.5-1.7-0.9c-0.3-0.4-0.6-1-0.8-1.7c-0.1-0.4-0.3-1.7,0.5-2.8
			c0.8-1.3,2.3-1.3,2.5-1.3C393.6,463.5,398,464,402.5,464.5z"/>
		<ellipse id="nail1_7_" class="st8" cx="402.5" cy="468" rx="2.8" ry="2.7"/>
		
			<ellipse id="nail_x5F_thumb" transform="matrix(-0.8026 0.5965 -0.5965 -0.8026 1004.659 566.9398)" class="st8" cx="408.5" cy="449.7" rx="3" ry="1.6"/>
	</g>
	<path id="hand2-up" class="st9" d="M566.3,389.5c-2.9,16.1-6.3,32.8-10.2,49.9c-4.3,18.9-8.8,37-13.5,54.3
		c-0.4,6.8-4.1,12.4-9.3,14.4s-10.1-0.4-11-0.8c-7.5-3.8-11.2-14.9-9.1-27.6c0.4-16.7-0.1-30.2,0.1-39.3c0.4-20.8,1.5-43.7,4.4-52.6
		c5.7-17.7,16.6-23.2,27.7-22.2C556.4,366.6,568.9,375.9,566.3,389.5z"/>
	<path id="hand2-down" class="st9" d="M526.3,508l-97.8-31.5l8.1-25.3l91.1,19c1.9,1,6.9,3.9,10,9.5c4.7,8.5,1.3,16.4,0.7,17.5
		C535,504.7,527.9,507.5,526.3,508z"/>
	<path id="mangete_1_" class="st10" d="M438.1,448c-1.5,10.6-2.9,21.3-4.4,31.9c-4.6-0.8-9.1-1.5-13.7-2.3c1.5-10.4,3-20.8,4.6-31.2
		C429.1,447,433.6,447.5,438.1,448z"/>
	
		<ellipse id="button_1_" transform="matrix(0.1469 -0.9892 0.9892 0.1469 -102.6093 831.2843)" class="st3" cx="430.6" cy="475.1" rx="1.4" ry="1.5"/>
</g>
<g id="short">
	<path id="tye" class="st11" d="M509.2,529.4l-6,10c0,0-5-11.1-7.5-24.1c-2.5-13.1-14.8-116.3-14.8-116.3l-2-3.5l8.8-19.6l4.5,19.8
		L509.2,529.4z"/>
	<path id="short_x5F_body_x5F_main" class="st12" d="M512.8,547.1c-7.6-34.5-13.8-69-21.4-103.5c-6.8-30-3.2-48.5,5.9-55.6
		c15.5-12.1,51.9-31.8,51.9-31.8c7.5,7.1,18,18.5,26.6,35c9.6,18.4,12.9,35.2,14.1,46c2.5,19.4,4.5,40.2,5.7,62.2
		c0.9,15.9,0.1,31.8,0.1,46.4L512.8,547.1z"/>
	<polygon id="short_x5F_top" class="st9" points="485.4,367.6 487.7,398.7 553.2,354.4 547.5,337.2 	"/>
</g>
<g id="hip">
	<path id="hip-base" class="st3" d="M512.8,545.8c27.6-0.1,55.3-0.1,82.9-0.2c0,3.4-0.1,6.9-0.1,10.3c0.3,1.1,5.5,23.6-10.3,39.1
		c-13.1,12.9-32.1,12.5-44.8,7.2c-17.2-7.1-28.4-25.3-27.7-45.5C512.8,553.1,512.8,549.4,512.8,545.8z"/>
	<rect id="belt3" x="512.8" y="546" class="st13" width="24.2" height="10.2"/>
	<rect id="belt2" x="540.4" y="546" class="st13" width="32.3" height="10.2"/>
	<rect id="belt1" x="576.7" y="546" class="st13" width="19.1" height="10.2"/>
</g>
<g id="case">
	<path id="case-main" class="st14" d="M576.1,609.2l104.5,18.9c0,0,11.2,2.9,10.9,17.5l-14,71.8c0,0-2.3,8.3-13.7,9.7l-109.7-20
		c0,0-9.9-4.9-9.9-15.5l13.5-72.7C557.5,618.9,561.8,608.6,576.1,609.2z"/>
	<line id="cap" class="st15" x1="554.2" y1="654.5" x2="683.1" y2="679.7"/>
	<line id="clap1" class="st16" x1="585" y1="653.3" x2="582.4" y2="666.4"/>
	<line id="clap2" class="st16" x1="651.2" y1="666.4" x2="648.6" y2="679.5"/>
	<path id="casehandle" class="st14" d="M588.8,613.9c0.6-3.4,3.2-14.7,12.5-19.1c2.8-1.3,5.2-1.6,8.9-2c8.3-0.9,15.8,0.2,22.5,2
		c13,3.5,20.1,6.4,25.1,12.7c5.5,7,3,19.5,3,19.5l-7.6-1.5c0,0,0.9-3,0.5-6.5c-0.6-5.3-5.1-8.2-7.5-9.9c-3.3-2.4-6.7-3.3-13.4-5.1
		c-7.4-2-11.4-3-16.9-2.7c-3.7,0.2-7,0.3-10.5,2.3c-6.7,3.7-8.8,11.1-9.4,13.3L588.8,613.9z"/>
</g>
<g id="hand1">
	<path id="palm" class="st17" d="M629.4,571.4l19.3,1.1v8.8c0,0,4,0.7,3.5,8.1c-0.4,7.5-6.9,21.8-6.9,21.8s-1,2.1-3.6,1.9
		s-2.9-3.3-2.9-3.3s-0.2,2-3.3,2s-3.6-2.9-3.6-2.9s-0.5,1.7-3.6,1.5c-3-0.2-3.8-3.1-3.8-3.1s-1.2,1.6-3.8,1.2
		c-4.4-0.7-6.3-7.1-6.3-7.1s4.2,0.1,4.9-1.8c0.7-1.9,0.3-7,0.3-7l-2.9-0.1l-4.6,0.1c0,0-0.8-4.1-0.1-5.2c0.7-1.2,10.5-4.4,10.5-4.4
		l3.8-11.6H629.4z"/>
	<path id="hand1-down" class="st9" d="M654.6,469.6v102.8h-29.4l-10.9-92.5c0.4-2.1,1.7-7.7,6.6-12.4c7.4-7,16.8-6.2,18.2-6.1
		C648.2,462.3,653.5,468.2,654.6,469.6z"/>
	<path id="hand1-up" class="st9" d="M550.8,387.3c0,0,83,59.8,103.8,82.3c-0.9,3.3-2.8,8.1-7.2,11.7c-8.1,6.6-21.6,6.2-33.1-1.4
		c-16.2-8-29.6-13.8-38.4-18.1c-20.1-9.9-42-21.5-49.4-28.3c-14.7-13.7-15-26.6-8.9-36.9C523.8,386.2,538.7,378.5,550.8,387.3z"/>
	<polygon id="mangete" class="st10" points="623.3,561.3 659.1,561.3 659.1,577.1 623.3,573.2 	"/>
	<circle id="button" class="st3" cx="654.5" cy="567.2" r="1.5"/>
</g>
<path id="carrot_x5F_green" class="st18" d="M271.5,250.7c0,0,6.2-7.7,6.6-10c0.4-2.4,0.9-4.7,0-6.7s-6.6-6.4-6.6-6.4
	s8.2-4.4,11.9-4.7c3.6-0.4,1.5,4.9,1.5,4.9s5.7,1.5,4,3.8c-1.6,2.4-2.2,3.6-2.2,3.6s8.6-4,9.3,1.5c0.7,5.6-2.4,5-2.4,5h-3.8
	c0,0,5.3,2.2,3.3,5.3s-7.3,0-7.3,0l-4-1.7l-6.9,7.5L271.5,250.7z"/>
<polygon id="rope" class="st9" points="263.5,185.2 267.7,251.1 271.5,250.3 267.5,184.5 "/>
<path id="carrot" class="st19" d="M221.4,319.1c0,0,1-8.3,2.3-11.7c1.8-4.4,30.3-53.7,34.1-56c3.7-2.3,5.9-7.7,16.1-2
	c10.3,5.7,2.3,16.3,1.1,18s-26,31.4-26,31.4S233.7,316.6,221.4,319.1z"/>
<path id="stick" class="st20" d="M491.8,238.2c0,0-20.3-29.2-57.6-36.9c-37.3-7.7-86.9-12.2-108.8-12.2c-21.9,0-63.3-1.5-64.1-3.6
	c-0.8-2.1-1.5-3.3,2.5-4.1s82.4-5.3,146.1,5.3s85.2,39.8,85.2,39.8L491.8,238.2z"/>
<g id="head">
	<path id="ear" class="st21" d="M462.9,241.5c0,0-13.6-14.9-14.4-20.8c-0.8-5.9,1.6-3.5,3.2-2.7s21.3,10.8,24.8,20.2
		C480,247.6,462.9,241.5,462.9,241.5z"/>
	<polygon id="mane" class="st22" points="461.8,255.5 454,240.3 461.8,241 461.8,238 467.4,239.4 468.3,235.9 472.5,238 
		474.3,235.9 477,238 481.2,234.5 483.4,238 488.3,234.5 491.5,239.7 495.5,237.2 497,239.4 502.6,238 502.6,243.4 509.7,239.4 
		509.7,243.2 514.3,243.9 519.7,252.4 522.9,252.1 522.9,257.7 525.3,257.7 525.3,262.2 529.1,262.2 529.1,266.8 532,266.8 
		532,273.3 534.4,272 536,282.2 538,279.8 538,285.5 540.5,284.2 538.9,290.2 540.5,289.1 540.5,295.6 542.4,294.5 542.4,300.9 
		545.8,299.4 545.8,315.4 548,313.8 548,338.6 544.5,340.3 	"/>
	<path id="head_x5F_base" class="st23" d="M452.3,344.6l-39.6-52.1c0,0,18.9-11.1,32.3-10.9c0,0,6.5-26.3,22.5-29.8
		c16-3.6,22.7-1.1,22.7-1.1s-9.4-27.8,0-39c0,0,36.8,31.2,20,59.9c0,0,23.5,16.9,34.7,68.2L490.6,369
		C490.6,368.8,465.7,323.4,452.3,344.6z"/>
	<path id="font_x5F_ear_x5F_inn" class="st24" d="M497.4,257c0,0-10.7-28.5-4.5-32.5c0,0,22.5,19.4,14.3,37l-1.1,1.3L497.4,257z"/>
	<g id="eye">
		<path id="eye_x5F_white" class="st25" d="M476.1,295.4c-8.5-16.9-19.6-20.1-22.1-20.7c-0.3-0.1-0.5-0.1-0.5-0.1
			c-3.3,3.4-2.5,10.9-2.2,13.2c0.1,0.4,0.1,0.7,0.1,0.7c10.9,14.5,22.3,13.5,22.3,13.5s0,0,0-0.1c1.7-1.9,2.5-6.3,2.5-6.3
			C476.2,295.5,476.1,295.5,476.1,295.4z"/>
		<path class="st22" d="M451.4,288.5c0,0,0-0.2-0.1-0.7l0,0c0,11.8,5.7,21.4,12.8,21.4c3.8,0,7.3-2.8,9.6-7.3c0,0,0,0,0,0.1
			C473.7,302,462.3,303,451.4,288.5z"/>
		<ellipse id="eye_x5F_apple" cx="457.2" cy="283.4" rx="3.8" ry="8.5"/>
		<path class="st22" d="M476.1,295.4c0.5-2.3,0.8-4.9,0.8-7.5c0-11.8-5.7-21.4-12.8-21.4c-4.1,0-7.7,3.2-10.1,8.2
			C456.5,275.3,467.6,278.5,476.1,295.4z"/>
		<ellipse id="eye_x5F_blik" class="st25" cx="457.8" cy="280.7" rx="1.2" ry="2.4"/>
	</g>
	<path id="head_x5F_mouth" class="st26" d="M453.3,343.3c0,0-15.9,31.1-48.2,11.7c-26.8-26.1-1.2-58.1,8.1-63.1
		c0,0,23,11.1,30.2,23.8C450.6,328.4,453.9,337.7,453.3,343.3z"/>
	<path id="nosetril" class="st27" d="M413.5,320.2c0,0,8.3-12.3,13.1-6.9c4.8,5.4-5.2,9.9-7.7,11.3c0,0,8.4-5.5,4.8-8.5
		S413.5,320.2,413.5,320.2z"/>
	<path id="tooth" class="st25" d="M406.7,339.2v13.2c0,0-0.4,3.2-2.6,3.7s-4.7,0-5.4,0s-1.9-0.3-2.8-4s-2.1-13.4-2.1-13.4h12.9
		V339.2z"/>
	<polygon id="tooth_x5F_gap" class="st26" points="397.9,338.2 398.3,349.9 398.3,337.2 	"/>
	<path id="lip" class="st27" d="M450,338.1c0,0-7.6,6.6-11.1,10.2c-3.5,3.5-10.2,4.1-14.8,2.4c-4.6-1.7-12.6-10.5-22.5-10.9
		c-10-0.4-9.6,1.1-12.6-0.2c-3-1.3-0.9-6.1,1.3-6.6s11.3-2,17,0.9c5.7,3,11.8,6.6,15.1,10.2C425.8,347.5,433.9,350.4,450,338.1z"/>
</g>
<path id="Other_donkey1" class="st22" d="M310.5,858.9l-4.3-0.1l-21.9-6.4l2.1-10.8c0.1-2.7-2-3.2-2-3.2l-3.6-0.6
	c0.1-0.7,0.1-2.2-0.6-3.1c-0.4-0.5-0.9-0.9-1.5-1.2c0.2-0.7,0.5-1.5,0.5-2.1c0.1-1.4-0.6-1.5-0.6-1.5v-1l1.9,0.2v-2.9h-0.8v-16.8
	c-0.1-0.1-0.2-0.2-0.3-0.3c-2.4-2.5-8.1-6.8-12.5-10.2c-0.4-1.2-0.9-2.5-1.6-3.8c-1.5-2.9-3.4-5-4.8-6.3l0.6-0.4l-1-2.9l0,0V781
	l-0.4,0.3v-2.9l-0.6,0.3v-1.2l-0.3,0.2v-1.2l-0.3,0.2l0.3-1.1l-0.5,0.2v-1.1l-0.4,0.4l-0.3-1.9l-0.4,0.2v-1.2h-0.5v-0.9H256v-0.8
	h-0.4v-1H255l-1-1.6h-0.3c-1.1-3.3-4.1-5.9-4.1-5.9c-0.3,0.3-0.5,0.8-0.6,1.2c-2-1.7-6.4-4.5-14.1-5.8c-11.7-1.9-26-1.1-26.8-1
	c-0.7,0.1-0.6,0.4-0.5,0.8c0,0,0.2,0.1,0.4,0.1l0.7,11.1c-0.9-0.1-1.3,0.5-1.8,0.8c-0.7,0.4-5.9,9.5-6.2,10.3
	c-0.2,0.6-0.4,2.1-0.4,2.1c2.2-0.5,5.1-3.7,5.1-3.7s4.6-5.4,4.8-5.8c0.2-0.3,1.4-1.9,0.2-3l1-1.1l0.7,0.3c0,0,1,0.6,1.3,0
	s-0.6-1-0.6-1h0.7c0,0,0.6,0.1,0.4-0.9c-0.1-1-1.7-0.3-1.7-0.3s0.1-0.2,0.4-0.7c0.3-0.4-0.7-0.7-0.7-0.7s0.4-1-0.3-0.9
	s-2.2,0.9-2.2,0.9s1,0.8,1.2,1.2s0.1,0.8,0,1.2c0,0.3-0.6,1.1-0.9,1.5c-0.1-0.1-0.2-0.1-0.3-0.1l-0.7-11.2c2.3,0.2,7.5,0.4,10.6,0.4
	c4,0,13.1,0.8,19.9,2.2c4.8,1,8,3.9,9.5,5.5c0,0.3,0.1,0.5,0.1,0.8l-0.6,0.4l-0.4-0.6l-0.8,0.6l-0.2-0.1c-0.8-1.7-4.2-3.4-4.5-3.5
	s-0.7-0.6-0.6,0.5c0.1,0.9,1.9,2.9,2.4,3.6v0.1l-1.4-0.1l1.3,2.6c-2.1,1.4-3,5-3,5c-2.2,0-5.1,1.6-5.8,1.9l0,0
	c-1.2,0.7-4,3.9-3.6,7.4c-0.2,0-0.4,0.1-0.6,0.1c-0.4,0.1-0.8,1-0.2,1.2c0.3,0.1,0.4,0.1,0.9,0.1c0.1,0.5,0.2,1.7,0.4,2.2
	c0.2,0.7,0.4,0.7,0.5,0.7s0.6,0.1,1,0c0.1,0,0.2-0.1,0.3-0.2c5.9,3.5,8.8-2.2,8.8-2.2l0,0c2.1-2.7,5.5,2.4,6.5,4.1l-0.6,0.3l0.2,2.1
	l-1.4,3l0.4,0.6c0,0,0.7,5.9,1.4,11.6l-9.3-1.9c0-0.2,0.1-0.4,0.1-0.6c-0.8-0.1-1.7-0.2-2.5-0.3c0,0.3-0.1,0.7-0.1,1
	c0-0.3,0-0.4,0-0.4c0-0.1,0-0.4-0.2-0.7c0-0.1,0-0.2,0-0.3c-0.1-0.2-0.3-0.4-0.3-0.4c-0.2-0.2-0.5-0.2-0.5-0.1
	c-0.2,0.1-0.4,0.2-0.6,0.4c-1-0.1-2.1-0.2-3.1-0.3c0,0-0.7,0.1-0.8,0.2c-0.1,0-0.2,0-0.4,0c0,0-0.3,0-0.5,0.2
	c-0.1,0.2-0.1,0.5-0.1,0.5c0,0.1,0.1,0.2,0.1,0.3c0.1,0.1,0.2,0.2,0.3,0.2s0.2,0,0.3,0l0,0c-0.1,0-0.2,0-0.3,0c0,0-0.3,0-0.5,0.2
	c-0.1,0.2-0.1,0.5-0.1,0.5c0,0.1,0.1,0.2,0.1,0.3c0.1,0.1,0.2,0.2,0.3,0.2s0.2,0,0.3,0l0,0c-0.1,0-0.3,0-0.4,0c0,0-0.3,0-0.5,0.2
	c-0.1,0.2-0.1,0.5-0.1,0.5c0,0.1,0.1,0.2,0.1,0.3c0.1,0.1,0.2,0.2,0.3,0.2s0.3,0,0.4,0l0,0c-0.1,0-0.3,0-0.4,0c0,0-0.3,0-0.5,0.2
	c-0.1,0.2-0.1,0.5-0.1,0.5c0,0.1,0.1,0.2,0.1,0.3c0.1,0.1,0.2,0.2,0.3,0.2c0.2,0,0.4,0,0.5,0.1c0.1,0.2,0.3,0.4,0.6,0.5
	c0.5,0.1,3.7,0.4,3.7,0.4s0.6,0.1,1.1-0.3c0,0.3-0.1,0.5-0.1,0.8c0.8,0.1,1.7,0.3,2.5,0.4c0-0.1,0-0.2,0-0.3l10.8,3.5
	c0.2,1.6,0.4,2.8,0.5,3.3c0.5,2.4,1.4,4.4,1.4,4.4l1.1-1.8c0.2,1,0.4,2.1,0.7,3.1c0,0.6,0,1.2,0,1.8c0,0.1,0,0.1,0,0.2l0,0l-9,29.3
	l-7.4,30.9c-1.1,1-4-0.1-4-0.1c-5-2.3-6.3,1.5-6.3,1.5l-0.5,1l16,5.8l0.2-0.9l1.7-5.1l7.4-31l8.7-12.3l-1,5.5c0,1.9,1.8,2.8,1.8,2.8
	l10.6,1.9l1.9,2.2c0,0,0.6,0.3,1.4,0.4l29.6,8.6c0,0,0.2,0,0.4,0v0.1c1.3,0.8,1.1,3.9,1.1,3.9c-0.7,5.5,3.3,5.6,3.3,5.6l1.2,0.2
	l0.8-17L310.5,858.9z M279.5,836.7c0,0.3,0,0.6,0,0.8l-6.7-1.2l-1.1-2.7c0.2,0,0.5-0.1,0.7-0.1c0,0,0.4,1.2,1.1,1.3
	c0.5,0.1,0.7-0.2,0.7-0.2s0.1,0.5,0.7,0.6c0.6,0,0.7-0.3,0.7-0.3s0.1,0.5,0.7,0.5s0.6-0.4,0.6-0.4s0.1,0.6,0.5,0.6
	c0.5,0,0.7-0.4,0.7-0.4s0.1-0.1,0.2-0.4C278.6,835.2,279.4,835.7,279.5,836.7z M273.2,831.8L273.2,831.8
	C273.3,831.8,273.3,831.8,273.2,831.8C273.3,831.8,273.2,831.8,273.2,831.8z M272.7,831.8L272.7,831.8h0.3
	C272.9,831.8,272.8,831.8,272.7,831.8z M274,826.1h-0.1v2.2h0.4l-0.6,1.7c0,0-1.8,0.6-1.9,0.8s0,1,0,1h0.1c-0.1,0-0.3,0-0.4,0
	c-0.2,0-0.4,0-0.6,0.1l-2-4.7c0-1-0.1-1.8-0.2-2l0,0v-1.9l0,0v-0.1c0-2.7,0.1-5.6,0-8.5c-0.1-1.8-0.2-3.6-0.4-5.4
	c1.1,0.5,2.4,1.1,3.8,1.8L274,826.1z"/>
<path id="Other_donkey2" class="st28" d="M155,839.2l-2.8-0.1l-14.5-4.2l1.4-7.2c0-1.8-1.3-2.1-1.3-2.1l-2.3-0.4
	c0.1-0.5,0.1-1.4-0.4-2.1c-0.3-0.3-0.6-0.6-1-0.8c0.2-0.5,0.3-1,0.3-1.4c0.1-0.9-0.4-1-0.4-1v-0.6l1.2,0.1v-1.9h-0.5v-11.1
	c0,0-0.1-0.1-0.2-0.2c-1.6-1.6-5.3-4.5-8.3-6.7c-0.3-0.8-0.6-1.7-1.1-2.5c-1-1.9-2.2-3.3-3.1-4.2l0.4-0.3l-0.6-1.9l0,0v-3l-0.3,0.2
	v-1.9l-0.4,0.2v-0.8l-0.2,0.1v-0.8l-0.2,0.1l0.2-0.7l-0.3,0.2v-0.7l-0.2,0.3l-0.2-1.2l-0.3,0.2V782h-0.4v-0.6H119v-0.5h-0.3v-0.7
	h-0.4l-0.7-1h-0.2c-0.7-2.2-2.7-3.9-2.7-3.9c-0.2,0.2-0.3,0.5-0.4,0.8c-1.4-1.1-4.2-3-9.3-3.8c-7.7-1.3-17.2-0.7-17.7-0.6
	c-0.5,0.1-0.4,0.2-0.3,0.5c0,0,0.1,0.1,0.3,0.1l0.5,7.3c-0.6-0.1-0.8,0.3-1.2,0.5c-0.5,0.3-3.9,6.2-4.1,6.8
	c-0.2,0.4-0.3,1.4-0.3,1.4c1.5-0.3,3.4-2.5,3.4-2.5s3-3.6,3.1-3.8s0.9-1.3,0.2-2l0.6-0.7l0.5,0.2c0,0,0.6,0.4,0.9,0
	c0.2-0.4-0.4-0.6-0.4-0.6H91c0,0,0.4,0.1,0.3-0.6c-0.1-0.7-1.1-0.2-1.1-0.2s0.1-0.2,0.3-0.4c0.2-0.3-0.5-0.5-0.5-0.5
	s0.3-0.6-0.2-0.6c-0.4,0-1.4,0.6-1.4,0.6s0.7,0.5,0.8,0.8c0.1,0.2,0,0.5,0,0.8c0,0.2-0.4,0.7-0.6,1c-0.1,0-0.1-0.1-0.2-0.1l-0.5-7.4
	c1.5,0.2,5,0.3,7,0.3c2.7,0,8.6,0.5,13.2,1.5c3.1,0.6,5.3,2.6,6.3,3.7c0,0.2,0,0.3,0.1,0.5l-0.4,0.3l-0.3-0.4l-0.5,0.4l-0.1-0.1
	c-0.5-1.1-2.8-2.2-3-2.3s-0.5-0.4-0.4,0.3c0.1,0.6,1.2,1.9,1.6,2.4v0.1l-0.9-0.1l0.9,1.7c-1.4,0.9-2,3.3-2,3.3c-1.4,0-3.4,1-3.8,1.3
	l0,0c-0.8,0.4-2.6,2.6-2.4,4.9c-0.2,0-0.3,0-0.4,0.1c-0.3,0.1-0.5,0.6-0.2,0.8c0.2,0.1,0.3,0.1,0.6,0c0,0.3,0.1,1.1,0.2,1.5
	c0.1,0.5,0.3,0.5,0.3,0.5c0.1,0,0.4,0.1,0.7,0c0.1,0,0.1-0.1,0.2-0.1c3.9,2.3,5.8-1.4,5.8-1.4l0,0c1.4-1.8,3.6,1.6,4.3,2.7l-0.4,0.2
	l0.1,1.4l-0.9,2l0.2,0.4c0,0,0.5,3.9,0.9,7.6l-6.2-1.3c0-0.1,0-0.3,0.1-0.4c-0.5-0.1-1.1-0.1-1.6-0.2c0,0.2-0.1,0.4-0.1,0.7
	c0-0.2,0-0.3,0-0.3c0-0.1,0-0.3-0.2-0.5c0,0,0-0.1,0-0.2c0-0.2-0.2-0.3-0.2-0.3c-0.2-0.1-0.3-0.1-0.3-0.1c-0.1,0.1-0.2,0.2-0.4,0.2
	c-0.7-0.1-1.4-0.2-2-0.2c0,0-0.4,0.1-0.6,0.1c-0.1,0-0.2,0-0.2,0s-0.2,0-0.3,0.2c-0.1,0.1-0.1,0.3-0.1,0.3c0,0.1,0.1,0.2,0.1,0.2
	c0,0.1,0.1,0.1,0.2,0.1s0.1,0,0.2,0l0,0c-0.1,0-0.2,0-0.2,0s-0.2,0-0.3,0.2c-0.1,0.1-0.1,0.3-0.1,0.3c0,0.1,0.1,0.2,0.1,0.2
	c0,0.1,0.1,0.1,0.2,0.1s0.1,0,0.2,0l0,0c-0.1,0-0.2,0-0.3,0c0,0-0.2,0-0.3,0.2c-0.1,0.1-0.1,0.3-0.1,0.3c0,0.1,0.1,0.2,0.1,0.2
	c0,0.1,0.1,0.1,0.2,0.1s0.2,0,0.3,0l0,0c-0.1,0-0.2,0-0.3,0c0,0-0.2,0-0.3,0.2c-0.1,0.1-0.1,0.3-0.1,0.3c0,0.1,0.1,0.2,0.1,0.2
	c0,0.1,0.1,0.1,0.2,0.1s0.2,0,0.4,0c0.1,0.1,0.2,0.3,0.4,0.3c0.3,0.1,2.4,0.3,2.4,0.3s0.4,0.1,0.7-0.2c0,0.2,0,0.3-0.1,0.5
	c0.6,0.1,1.1,0.2,1.7,0.3c0-0.1,0-0.1,0-0.2l7.2,2.3c0.1,1.1,0.3,1.9,0.3,2.2c0.3,1.6,0.9,2.9,0.9,2.9l0.7-1.2
	c0.1,0.7,0.3,1.4,0.4,2.1c0,0.4,0,0.8,0,1.2v0.1l0,0l-6,19.4l-4.9,20.4c-0.7,0.7-2.6-0.1-2.6-0.1c-3.3-1.5-4.2,1-4.2,1l-0.4,0.7
	l10.6,3.8l0.2-0.6l1.1-3.4l4.9-20.5l5.7-8.1l-0.7,3.6c0,1.3,1.2,1.9,1.2,1.9l7,1.3l1.2,1.5c0,0,0.4,0.2,0.9,0.3L151,844
	c0,0,0.1,0,0.3,0v0.1c0.9,0.5,0.7,2.5,0.7,2.5c-0.5,3.6,2.2,3.7,2.2,3.7l0.8,0.1l0.6-11.2L155,839.2z M134.5,824.6
	c0,0.2,0,0.4,0,0.5l-4.4-0.8l-0.7-1.8c0.2,0,0.3,0,0.5,0c0,0,0.2,0.8,0.8,0.9c0.3,0.1,0.5-0.1,0.5-0.1s0.1,0.4,0.5,0.4
	s0.4-0.2,0.4-0.2s0.1,0.3,0.4,0.3c0.4,0,0.4-0.2,0.4-0.2s0,0.4,0.4,0.4c0.3,0,0.4-0.2,0.4-0.2s0-0.1,0.1-0.2
	C133.9,823.6,134.5,823.9,134.5,824.6z M130.4,821.4L130.4,821.4L130.4,821.4L130.4,821.4z M130.1,821.3L130.1,821.3h0.2
	C130.2,821.4,130.1,821.4,130.1,821.3z M131,817.6L131,817.6l-0.1,1.4h0.3l-0.4,1.2c0,0-1.2,0.4-1.3,0.5s0,0.6,0,0.6l0,0
	c-0.1,0-0.2,0-0.3,0s-0.3,0-0.4,0l-1.3-3.1c0-0.7-0.1-1.2-0.1-1.3l0,0v-1.2l0,0c0,0,0,0,0-0.1c0-1.8,0.1-3.7,0-5.6
	c-0.1-1.2-0.2-2.4-0.3-3.6c0.8,0.3,1.6,0.7,2.5,1.2L131,817.6z"/>
<path id="Other_donkey3" class="st29" d="M712.4,846.9h-1.8l-9.3-2.7l0.9-4.6c0-1.1-0.8-1.4-0.8-1.4l-1.5-0.3c0-0.3,0.1-0.9-0.3-1.3
	c-0.2-0.2-0.4-0.4-0.6-0.5c0.1-0.3,0.2-0.6,0.2-0.9c0-0.6-0.3-0.6-0.3-0.6v-0.4l0.8,0.1V833h-0.3v-7.1l-0.1-0.1
	c-1-1-3.4-2.9-5.3-4.3c-0.2-0.5-0.4-1.1-0.7-1.6c-0.6-1.2-1.4-2.1-2-2.7l0.3-0.2l-0.4-1.2l0,0v-1.9L691,814v-1.2l-0.3,0.1v-0.5
	l-0.1,0.1V812l-0.1,0.1l0.1-0.5l-0.2,0.1v-0.4l-0.2,0.2l-0.1-0.8l-0.2,0.1v-0.5h-0.2v-0.4h-0.3v-0.3h-0.2V809H689l-0.4-0.7h-0.1
	c-0.5-1.4-1.7-2.5-1.7-2.5c-0.1,0.1-0.2,0.3-0.3,0.5c-0.9-0.7-2.7-1.9-6-2.5c-4.9-0.8-11-0.5-11.3-0.4s-0.3,0.2-0.2,0.3
	c0,0,0.1,0,0.2,0.1l0.3,4.7c-0.4-0.1-0.5,0.2-0.7,0.3c-0.3,0.2-2.5,4-2.6,4.4c-0.1,0.3-0.2,0.9-0.2,0.9c1-0.2,2.2-1.6,2.2-1.6
	s1.9-2.3,2-2.4c0.1-0.1,0.6-0.8,0.1-1.3l0.4-0.4l0.3,0.1c0,0,0.4,0.2,0.6,0c0.2-0.2-0.3-0.4-0.3-0.4h0.3c0,0,0.2,0,0.2-0.4
	c-0.1-0.4-0.7-0.1-0.7-0.1s0-0.1,0.2-0.3S671,807,671,807s0.2-0.4-0.1-0.4S670,807,670,807s0.4,0.3,0.5,0.5s0,0.3,0,0.5
	c0,0.1-0.3,0.4-0.4,0.6c0,0-0.1,0-0.1-0.1l-0.3-4.8c1,0.1,3.2,0.2,4.5,0.2c1.7,0,5.5,0.3,8.4,0.9c2,0.4,3.4,1.6,4,2.3
	c0,0.1,0,0.2,0,0.3l-0.3,0.2l-0.2-0.3l-0.3,0.3l-0.1-0.1c-0.3-0.7-1.8-1.4-1.9-1.5c-0.1-0.1-0.3-0.2-0.2,0.2s0.8,1.2,1,1.5l0,0
	l-0.6-0.1l0.6,1.1c-0.9,0.6-1.3,2.1-1.3,2.1c-0.9,0-2.2,0.7-2.5,0.8l0,0c-0.5,0.3-1.7,1.6-1.5,3.1c-0.1,0-0.2,0-0.2,0
	c-0.2,0-0.3,0.4-0.1,0.5c0.1,0.1,0.2,0,0.4,0c0,0.2,0.1,0.7,0.2,0.9c0.1,0.3,0.2,0.3,0.2,0.3c0.1,0,0.3,0,0.4,0c0,0,0.1,0,0.1-0.1
	c2.5,1.5,3.7-0.9,3.7-0.9l0,0c0.9-1.2,2.3,1,2.8,1.8l-0.3,0.1l0.1,0.9l-0.6,1.3l0.2,0.3c0,0,0.3,2.5,0.6,4.9l-4-0.8
	c0-0.1,0-0.2,0-0.3c-0.4,0-0.7-0.1-1.1-0.1c0,0.1,0,0.3-0.1,0.4c0-0.1,0-0.2,0-0.2s0-0.2-0.1-0.3v-0.1c0-0.1-0.1-0.2-0.1-0.2
	c-0.1-0.1-0.2-0.1-0.2-0.1c-0.1,0.1-0.2,0.1-0.2,0.2c-0.4,0-0.9-0.1-1.3-0.1c0,0-0.3,0-0.4,0.1c-0.1,0-0.1,0-0.2,0
	c0,0-0.1,0-0.2,0.1c-0.1,0.1,0,0.2,0,0.2c0,0.1,0,0.1,0.1,0.1l0.1,0.1h0.1l0,0h-0.1c0,0-0.1,0-0.2,0.1c-0.1,0.1,0,0.2,0,0.2
	c0,0.1,0,0.1,0.1,0.1l0.1,0.1h0.1l0,0c-0.1,0-0.1,0-0.2,0c0,0-0.1,0-0.2,0.1c-0.1,0.1,0,0.2,0,0.2c0,0.1,0,0.1,0.1,0.1l0.1,0.1
	c0.1,0,0.1,0,0.2,0l0,0c-0.1,0-0.1,0-0.2,0c0,0-0.1,0-0.2,0.1c-0.1,0.1,0,0.2,0,0.2c0,0.1,0,0.1,0.1,0.1l0.1,0.1c0.1,0,0.2,0,0.2,0
	c0,0.1,0.1,0.2,0.2,0.2c0.2,0.1,1.6,0.2,1.6,0.2s0.3,0,0.5-0.1c0,0.1,0,0.2,0,0.3c0.4,0.1,0.7,0.1,1.1,0.2v-0.1l4.6,1.5
	c0.1,0.7,0.2,1.2,0.2,1.4c0.2,1,0.6,1.9,0.6,1.9l0.5-0.8c0.1,0.4,0.2,0.9,0.3,1.3c0,0.3,0,0.5,0,0.8c0,0,0,0,0,0.1l0,0l-3.8,12.4
	l-3.1,13.1c-0.5,0.4-1.7-0.1-1.7-0.1c-2.1-1-2.7,0.6-2.7,0.6l-0.2,0.4l6.8,2.5l0.1-0.4l0.7-2.2l3.1-13.1l3.7-5.2l-0.4,2.3
	c0,0.8,0.8,1.2,0.8,1.2l4.5,0.8l0.8,0.9c0,0,0.2,0.1,0.6,0.2l12.6,3.7c0,0,0.1,0,0.2,0v0.1c0.6,0.3,0.4,1.6,0.4,1.6
	c-0.3,2.3,1.4,2.4,1.4,2.4l0.5,0.1l0.4-7.2L712.4,846.9z M699.2,837.5c0,0.1,0,0.2,0,0.3l-2.9-0.5l-0.5-1.1c0.1,0,0.2,0,0.3,0
	c0,0,0.2,0.5,0.5,0.6c0.2,0,0.3-0.1,0.3-0.1s0.1,0.2,0.3,0.2s0.3-0.1,0.3-0.1s0,0.2,0.3,0.2s0.3-0.2,0.3-0.2s0,0.2,0.2,0.3
	c0.2,0,0.3-0.1,0.3-0.1s0-0.1,0.1-0.2C698.9,836.9,699.2,837.1,699.2,837.5z M696.6,835.4L696.6,835.4
	C696.6,835.5,696.6,835.5,696.6,835.4C696.6,835.5,696.6,835.5,696.6,835.4z M696.4,835.4L696.4,835.4L696.4,835.4L696.4,835.4z
	 M696.9,833L696.9,833l-0.1,0.9h0.2l-0.2,0.7l-0.8,0.3v0.4l0,0c-0.1,0-0.1,0-0.2,0c-0.1,0-0.2,0-0.2,0l-0.8-2c0-0.4-0.1-0.8-0.1-0.9
	l0,0v-0.8l0,0l0,0c0-1.1,0.1-2.4,0-3.6c0-0.8-0.1-1.5-0.2-2.3c0.5,0.2,1,0.5,1.6,0.8L696.9,833z"/>
<path id="Other_donkey4" class="st30" d="M945.3,854.1l-2.9-0.1l-14.7-4.3l1.4-7.3c0-1.8-1.3-2.1-1.3-2.1l-2.4-0.4
	c0.1-0.5,0.1-1.5-0.4-2.1c-0.3-0.3-0.6-0.6-1-0.8c0.2-0.5,0.3-1,0.3-1.4c0.1-0.9-0.4-1-0.4-1V834l1.3,0.1v-1.9h-0.6v-11.3
	c0,0-0.1-0.1-0.2-0.2c-1.6-1.6-5.4-4.6-8.4-6.8c-0.3-0.8-0.6-1.7-1.1-2.6c-1-2-2.3-3.4-3.2-4.2l0.4-0.3l-0.6-1.9l0,0v-3l-0.3,0.2v-2
	l-0.4,0.2v-0.8l-0.2,0.1v-0.8l-0.2,0.1l0.2-0.7l-0.3,0.2v-0.7l-0.2,0.3l-0.2-1.3l-0.3,0.2V796h-0.4v-0.6h-0.5v-0.5h-0.3v-0.7H908
	l-0.7-1h-0.2c-0.7-2.2-2.8-3.9-2.8-3.9c-0.2,0.2-0.3,0.5-0.4,0.8c-1.4-1.2-4.3-3-9.5-3.9c-7.8-1.3-17.5-0.7-18-0.6
	c-0.5,0.1-0.4,0.2-0.3,0.5c0,0,0.1,0.1,0.3,0.1l0.5,7.5c-0.6-0.1-0.8,0.3-1.2,0.5c-0.5,0.3-4,6.3-4.2,6.9c-0.2,0.4-0.3,1.4-0.3,1.4
	c1.5-0.3,3.4-2.5,3.4-2.5s3.1-3.7,3.2-3.9c0.1-0.2,0.9-1.3,0.2-2l0.7-0.7l0.5,0.2c0,0,0.6,0.4,0.9,0s-0.4-0.7-0.4-0.7h0.5
	c0,0,0.4,0.1,0.3-0.6c-0.1-0.7-1.1-0.2-1.1-0.2s0.1-0.2,0.3-0.4c0.2-0.3-0.5-0.5-0.5-0.5s0.3-0.6-0.2-0.6c-0.4,0-1.5,0.6-1.5,0.6
	s0.7,0.5,0.8,0.8c0.1,0.2,0,0.5,0,0.8c0,0.2-0.4,0.7-0.6,1c-0.1,0-0.1-0.1-0.2-0.1l-0.5-7.5c1.5,0.2,5,0.3,7.1,0.3
	c2.7,0,8.8,0.5,13.4,1.5c3.2,0.7,5.4,2.6,6.4,3.7c0,0.2,0,0.3,0.1,0.5l-0.4,0.3l-0.3-0.4l-0.5,0.4l-0.1-0.1c-0.5-1.1-2.8-2.3-3-2.4
	c-0.2-0.1-0.5-0.4-0.4,0.3c0.1,0.6,1.2,2,1.6,2.4v0.1l-1-0.1l0.9,1.7c-1.4,0.9-2,3.3-2,3.3c-1.5,0-3.4,1-3.9,1.3l0,0
	c-0.8,0.4-2.7,2.6-2.4,5c-0.2,0-0.3,0-0.4,0.1c-0.3,0.1-0.5,0.7-0.2,0.8c0.2,0.1,0.3,0.1,0.6,0c0,0.3,0.1,1.1,0.2,1.5
	c0.1,0.5,0.3,0.5,0.3,0.5c0.1,0,0.4,0.1,0.7,0c0.1,0,0.1-0.1,0.2-0.1c3.9,2.3,5.9-1.5,5.9-1.5l0,0c1.4-1.8,3.7,1.6,4.4,2.8l-0.4,0.2
	l0.1,1.4l-0.9,2l0.2,0.4c0,0,0.5,4,0.9,7.7l-6.3-1.3c0-0.1,0-0.3,0.1-0.4c-0.6-0.1-1.1-0.1-1.7-0.2c0,0.2-0.1,0.4-0.1,0.7
	c0-0.2,0-0.3,0-0.3c0-0.1,0-0.3-0.2-0.5c0,0,0-0.1,0-0.2c0-0.2-0.2-0.3-0.2-0.3c-0.2-0.1-0.3-0.1-0.3-0.1c-0.1,0.1-0.3,0.2-0.4,0.2
	c-0.7-0.1-1.4-0.2-2.1-0.2c0,0-0.5,0.1-0.6,0.1s-0.2,0-0.2,0s-0.2,0-0.3,0.2c-0.1,0.1-0.1,0.3-0.1,0.3c0,0.1,0.1,0.2,0.1,0.2
	c0,0.1,0.1,0.1,0.2,0.1c0.1,0,0.1,0,0.2,0l0,0c-0.1,0-0.2,0-0.2,0s-0.2,0-0.3,0.2c-0.1,0.1-0.1,0.3-0.1,0.3c0,0.1,0.1,0.2,0.1,0.2
	c0,0.1,0.1,0.1,0.2,0.1c0.1,0,0.1,0,0.2,0l0,0c-0.1,0-0.2,0-0.3,0c0,0-0.2,0-0.3,0.2c-0.1,0.1-0.1,0.3-0.1,0.3
	c0,0.1,0.1,0.2,0.1,0.2c0,0.1,0.1,0.1,0.2,0.1c0.1,0,0.2,0,0.3,0l0,0c-0.1,0-0.2,0-0.3,0c0,0-0.2,0-0.3,0.2
	c-0.1,0.1-0.1,0.3-0.1,0.3c0,0.1,0.1,0.2,0.1,0.2c0,0.1,0.1,0.1,0.2,0.1c0.1,0,0.2,0,0.4,0c0.1,0.1,0.2,0.3,0.4,0.3
	c0.3,0.1,2.5,0.3,2.5,0.3s0.4,0.1,0.7-0.2c0,0.2-0.1,0.3-0.1,0.5c0.6,0.1,1.1,0.2,1.7,0.3c0-0.1,0-0.1,0-0.2l7.3,2.3
	c0.1,1.1,0.3,1.9,0.3,2.2c0.3,1.6,0.9,3,0.9,3l0.7-1.2c0.1,0.7,0.3,1.4,0.5,2.1c0,0.4,0,0.8,0,1.2v0.1l0,0l-6.1,19.7l-5,20.8
	c-0.7,0.7-2.7-0.1-2.7-0.1c-3.4-1.5-4.3,1-4.3,1l-0.4,0.7l10.7,3.9l0.2-0.6l1.2-3.4l5-20.8l5.8-8.3l-0.7,3.7c0,1.3,1.2,1.9,1.2,1.9
	l7.1,1.3l1.3,1.5c0,0,0.4,0.2,0.9,0.3l19.9,5.8c0,0,0.1,0,0.3,0v0.1c0.9,0.5,0.7,2.6,0.7,2.6c-0.5,3.7,2.2,3.8,2.2,3.8l0.8,0.1
	l0.6-11.4L945.3,854.1z M924.5,839.3c0,0.2,0,0.4,0,0.5L920,839l-0.7-1.8c0.2,0,0.3,0,0.5,0c0,0,0.2,0.8,0.8,0.9
	c0.3,0.1,0.5-0.1,0.5-0.1s0.1,0.4,0.5,0.4s0.4-0.2,0.4-0.2s0.1,0.4,0.4,0.4c0.4,0,0.4-0.2,0.4-0.2s0,0.4,0.4,0.4
	c0.3,0,0.4-0.2,0.4-0.2s0-0.1,0.1-0.2C923.9,838.3,924.5,838.6,924.5,839.3z M920.3,836L920.3,836C920.4,836,920.4,836,920.3,836
	C920.4,836,920.4,836,920.3,836z M920,836L920,836h0.2C920.1,836,920.1,836,920,836z M920.9,832.2L920.9,832.2l-0.1,1.5h0.3
	l-0.4,1.2c0,0-1.2,0.4-1.3,0.5s0,0.6,0,0.6l0,0c-0.1,0-0.2,0-0.3,0s-0.3,0-0.4,0l-1.3-3.2c0-0.7-0.1-1.2-0.1-1.3l0,0v-1.3l0,0
	c0,0,0,0,0-0.1c0-1.8,0.1-3.7,0-5.7c-0.1-1.2-0.2-2.4-0.3-3.6c0.8,0.4,1.6,0.8,2.6,1.2L920.9,832.2z"/>
</svg>
