<?xml version="1.0" encoding="utf-8"?>
<!-- Generator: Adobe Illustrator 19.0.0, SVG Export Plug-In . SVG Version: 6.00 Build 0)  -->

<svg version="1.1" class="quotepic position1" id="richcar" xmlns="http://www.w3.org/2000/svg" xmlns:xlink="http://www.w3.org/1999/xlink" x="0px" y="0px"
	 width="1000px" height="1000px" viewBox="0 0 1000 1000" style="enable-background:new 0 0 1000 1000;" xml:space="preserve">
<style type="text/css">
	.strich0{fill:#002123;}
	.strich1{fill:#606162;stroke:#000000;stroke-width:2;stroke-miterlimit:10;}
	.strich2{fill:#090909;}
	.strich3{fill:#FEFEFE;stroke:#000000;stroke-width:0;stroke-miterlimit:10;}
	.strich4{fill:#3D8C85;stroke:#000000;stroke-width:2;stroke-miterlimit:10;}
	.strich5{fill:#9FD6D3;stroke:#000000;stroke-width:2;stroke-miterlimit:10;}
	.strich6{fill:#015354;stroke:#000000;stroke-width:2;stroke-miterlimit:10;}
	.strich7{fill:#070707;}
	.strich8{fill:#3F3F3F;stroke:#000000;stroke-width:2;stroke-miterlimit:10;}
	.strich9{fill:#030F15;}
	.strich10{fill:#6F706C;stroke:#000000;stroke-width:2;stroke-miterlimit:10;}
	.strich11{opacity:0.23;fill:#9FD6D3;stroke:#000000;stroke-width:2;stroke-miterlimit:10;}
	.strich12{fill:#FEE2D6;stroke:#000000;stroke-width:2;stroke-miterlimit:10;}
	.strich13{fill:#F2EE43;stroke:#000000;stroke-width:2;stroke-linejoin:round;stroke-miterlimit:10;}
	.strich14{fill:none;stroke:#000000;stroke-width:2;stroke-miterlimit:10;}
	.strich15{fill:none;stroke:#000000;stroke-miterlimit:10;}
	.strich16{fill:#444FCC;stroke:#000000;stroke-width:2;stroke-miterlimit:10;}
	.strich17{fill:#FF0000;stroke:#000000;stroke-width:2;stroke-miterlimit:10;}
	.strich18{fill:#FF0100;stroke:#000000;stroke-width:2;stroke-miterlimit:10;}
	.strich19{fill:#6E0100;}
	.strich20{fill:#FFFFC0;stroke:#000000;stroke-width:2;stroke-miterlimit:10;}
	.strich21{fill:#008D89;}
	.strich22{fill:#65CED2;stroke:#000000;stroke-width:2;stroke-miterlimit:10;}
	.strich23{fill:none;stroke:#000000;stroke-width:2;stroke-linecap:round;stroke-linejoin:round;stroke-miterlimit:10;}
	.strich24{fill:#08A249;stroke:#000000;stroke-width:2;stroke-linejoin:round;stroke-miterlimit:10;}
	.strich25{fill:none;stroke:#000000;stroke-width:2;stroke-linecap:round;stroke-miterlimit:10;}
	.strich26{fill:#937500;stroke:#000000;stroke-width:2;stroke-linecap:round;stroke-linejoin:round;stroke-miterlimit:10;}
	.strich27{fill:#FEE2D6;stroke:#000000;stroke-width:2;stroke-linecap:round;stroke-linejoin:round;stroke-miterlimit:10;}
	.strich28{fill:#AB6526;stroke:#000000;stroke-width:2;stroke-linecap:round;stroke-linejoin:round;stroke-miterlimit:10;}
	.strich29{fill:#146967;stroke:#000000;stroke-miterlimit:10;}
	.strich30{fill:#8CD1CF;stroke:#000000;stroke-width:2;stroke-miterlimit:10;}
</style>
<path id="richshadow" class="strich0" d="M189.8,617.1c0,0,15.1,31.4,52.4,7.5s211.5-37,252.3-32.7S623,626.3,623,626.3s6-8.9,18.4-6.5
	s207.4-49.5,207.4-49.5l-133.5-89l-218.5,20.3L340,492.3l-12.1-53.6L282,450.6L189.8,617.1z"/>
<path id="richcover1" class="strich1" d="M325.3,457.2c0,0-29.8-33.2-27.2-39.1c2.7-6,20.6-6.6,20.6-6.6l39.1,62.4L325.3,457.2z"/>
<path id="richwheel2back" class="strich2" d="M363.7,642.9c0,0,1.3,31.2,20.5,27.8s37.9-4.7,45.6-12.4c7.7-7.8,7.7-6.3,10.6-22.2
	s-3.8-60.3-3.8-60.3l-83.4-6.2L363.7,642.9z"/>
<path id="richwheeld2front" class="strich2" d="M751.9,624.9c0,0,1,64.6,40.6,60.5c39.6-4,43.9-8.7,45.7-11.4c1.9-2.7,14.1-27.8,12.3-49.2
	C848.7,603.5,751.9,624.9,751.9,624.9z"/>
<path id="richsmoke2" class="strich3" d="M94.2,637.6c-5-8.8-19.9-26.1-34.5-32c-13.5-5.4-41.7-11.3-27.6,10.2c-1.9-0.6-3.8-1.1-5.7-1.4
	c-3.1-0.6-18.4-3.4-21.7,3.2c-2.2,4.4,1.4,11.9,8.6,18.4c4.9,4.1,12.3,9.3,22.4,13.1c5.5,2,10.5,3.1,14.8,3.8
	c10.8-0.3,13.9-3,14.9-5.2c0-0.1,0-0.1,0.1-0.2c1.1,0.5,2.3,1,3.8,1.9c0,0,4,4.9,15.4,4.7C95.9,653.8,99.2,646.3,94.2,637.6z"/>
<path id="richsmoke1" class="strich3" d="M130.8,643.6c0,0,0.5-8-9.3-14.5s-8.8-9.4-14-8.7s-6.2,6.1-6.2,6.1s-2.5-9.4-12.8-13.9
	s-3.4-1.3-10.3-5.6s-14.8-2-13.7,4c1.1,6.1,10.1,14.6,10.1,14.6s15.5,15.1,21.1,16c5.6,0.9,10.8,3.8,11.7-4.3
	C107.4,637.3,126.9,660.5,130.8,643.6z"/>
<g id="richmuffler">
	<path id="richmuffler1" class="strich4" d="M618.7,612.5c0,0,1.7,15.5-4.9,23.9s-20.8,6-40.5,3.8c-19.7-2.2-65.1-13.8-170.4-3.8l-55.7,5.9
		l13.1-14.9c0,0,172.4-19.5,231.3-7.5c0,0,15.5,2.7,13-7.4C602.2,602.5,618.7,612.5,618.7,612.5z"/>
	<path id="richmuffler2" class="strich4" d="M237.3,648.6c0,0-60.9-0.5-106.5,12.3c0,0-14.6-17.7,12-40.4c0,0,97.2,8.1,113.3-8
		C272.1,596.5,237.3,648.6,237.3,648.6z"/>
	<path id="richmuffler3" class="strich5" d="M458.8,617.1c0,0-10.8,7.8-8.4,29.5c0,0,0,1.7,2.9,0.6c2.9-1.1,62.5-4.2,95.3,4.2
		s38.1,11.2,38.1,11.2l2-44.7L458.8,617.1z"/>
	<path id="richmuffler4" class="strich6" d="M589.5,620.7c0,0-7.9,0.3-8.3,18.1c-0.3,17.8,2.9,22.6,6,23.2c3.2,0.6,12.7-8.7,12.7-19.2
		c0,0-13.4-2.2-5.4-18.2S589.5,620.7,589.5,620.7z"/>
	
		<ellipse id="richmfhole" transform="matrix(0.8137 0.5813 -0.5813 0.8137 456.2969 -155.1215)" class="strich7" cx="470.1" cy="634.2" rx="9" ry="4.3"/>
	
		<ellipse id="richmfhole_1_" transform="matrix(0.8137 0.5813 -0.5813 0.8137 461.0391 -169.9164)" class="strich7" cx="495.6" cy="634.2" rx="9" ry="4.3"/>
	
		<ellipse id="richmfhole_2_" transform="matrix(0.8137 0.5813 -0.5813 0.8137 466.0998 -183.4919)" class="strich7" cx="519.3" cy="635.3" rx="9" ry="4.3"/>
	
		<ellipse id="richmfhole_3_" transform="matrix(0.8137 0.5813 -0.5813 0.8137 471.4637 -196.2432)" class="strich7" cx="541.9" cy="637.3" rx="9" ry="4.3"/>
	
		<ellipse id="richmfhole_4_" transform="matrix(0.8137 0.5813 -0.5813 0.8137 477.1374 -208.7892)" class="strich7" cx="564.3" cy="639.9" rx="9" ry="4.3"/>
</g>
<g id="richwheelback">
	<path id="richtyreback" class="strich2" d="M246.5,698.5c0,0,46.2,5.8,93-16.8c0,0,19.3-9.1,41.3-41.4c22-32.3,33.6-61.5,32.5-80.2
		s-47.4-33.5-93.6-25.6S246.5,698.5,246.5,698.5z"/>
	
		<ellipse id="richwheeiback1_1_" transform="matrix(0.5374 -0.8433 0.8433 0.5374 -387.4907 527.5885)" class="strich8" cx="287.2" cy="617" rx="92.2" ry="51.6"/>
	
		<ellipse id="richwheeiback1" transform="matrix(0.5374 -0.8433 0.8433 0.5374 -386.7908 529.1194)" class="strich5" cx="288.9" cy="617.1" rx="46" ry="25.8"/>
</g>
<g id="richwheelfront">
	<path id="richtyre" class="strich9" d="M646.7,703.3c0,0,52.6,4.8,95.7-10.7c43.1-15.4,71.3-114.1,64.1-131.9
		c-7.2-17.8-91.2-14.7-91.2-14.7L646.7,703.3z"/>
	
		<ellipse id="richwheelfront1_1_" transform="matrix(0.4945 -0.8692 0.8692 0.4945 -196.7199 911.0477)" class="strich8" cx="684.8" cy="624.6" rx="86.9" ry="44"/>
	
		<ellipse id="richwheelfront1" transform="matrix(0.4945 -0.8692 0.8692 0.4945 -196.7199 911.0477)" class="strich5" cx="684.8" cy="624.6" rx="46" ry="23.3"/>
</g>
<path id="richdrivewheel" class="strich10" d="M557.8,473.8c0,0-1.3-15.9-18.9-19.2c-17.6-3.4-24.1,18.2-24.1,25.1s0,18.3,0,21.9
	s-10.8,0-10.8,0l2.2-7c0,0-6.6-27,2.2-35.1c8.8-8.1,10.8-12.6,24.8-15.8c14-3.2,32.9,10.6,35,25.1
	C570.2,483.2,557.8,473.8,557.8,473.8z"/>
<path id="richdashboarsd1" class="strich10" d="M528.8,488.7l1.9-5.6c0,0,46.9-29,51.3-30.7c4.4-1.7,16-1.9,20.6,0c4.6,1.9,5.1,7.3,5.1,7.3
	l-77.4,31.7L528.8,488.7z"/>
<path id="richdashboard2" class="strich10" d="M536.5,491.5c0,0-0.5-7.3,26.4-20.3c26.8-13.1,45-16.7,45-16.7l1.9,3.4L536.5,491.5z"/>
<path id="richglass" class="strich11" d="M487.9,379l51.7-3.7c0,0,45.7,44.4,74.3,90.6c28.6,46.2-136,28.6-136,28.6L487.9,379z"/>
<g id="richhand1_1_">
	<path id="richshoulder2" class="strich12" d="M412.1,399.4L521.9,451l-6.8,12c0,0-92.4-37.8-114.9-43L412.1,399.4z"/>
	<path id="richfinger1" class="strich12" d="M558.3,436.8c0,0,12.4-4.8,8,11.2s-12.2,19.7-13.8,19.7c-1.6,0-2.2-4.9-2.2-4.9L558.3,436.8z"/>
	<path id="richfinger2" class="strich12" d="M548.4,436.2c0,0,4.6-7.4,10.3,0s-2.9,24.2-8,27s-6.8,0.1-6.8-1S548.4,436.2,548.4,436.2z"/>
	<path id="richfinger3" class="strich12" d="M534.8,434.1c0,0,11.6-10.3,14.2,4.7c2.6,14.9-8.5,22-10.6,22.9c-2,0.9-6.4-2.1-7.2-7.1
		C530.3,449.5,534.8,434.1,534.8,434.1z"/>
	<path id="richfinger4" class="strich12" d="M521.7,438.7c0,0,6.7-13,11.7-1.8c5.1,11.1-2.7,21.6-4.6,22.1c-1.9,0.6-3.7,3-5.2-1.4
		c0,0,4.8-12.7-1.6-11.8C515.5,446.7,521.7,438.7,521.7,438.7z"/>
</g>
<path id="richshort" class="strich13" d="M377.9,379.4c0,0,5.1-9.2,17.9-2.6s8.7,14.3,8.7,14.3s7.9-2.9,8.9,4.2c0,0,15.4-9.2,13.7,10.6
	l-3.5-1.4c-1.5-1.8-2.8-2.2-3.6-2.2c-4-0.2-8.4,6.4-10.8,16.8c-0.1,0.6-0.1,1.5,0.1,2.5c0.2,0.8,0.4,1.8,1.2,2.4
	c1.5,1.3,4,0.3,4.2,0.3c2.1,0.7,4.3,1.4,6.4,2.1c-0.8,2.5-1.5,5-2.3,7.5c0,0,28.8,24,23.6,36c-5.2,12-74.2,22.8-82.6,9.8
	c-8.4-13-61.7-66.3-34.2-90.5c0,0,4.8-3.3,10.4-1.9c3.7,0.9,5.5,3.5,7,4.6C346.5,394.9,355.2,394.5,377.9,379.4z"/>
<g id="richhand2_1_">
	<g id="richhand1">
		<path id="richshoulder" class="strich12" d="M340.6,411.4c0,0,154.6,48.2,158.1,48.2s-6.4,11.6-6.4,11.6S391,435,340.6,434.1V411.4z"/>
	</g>
	<path id="richhand2" class="strich12" d="M502.6,446.3c0,0,26.6-0.1,29.1,18.4c2.5,18.5-14.5,23.3-14.5,23.3s-27.2-2.9-28.4-14.2
		c-1.2-11.3,5.5-13.5,5.5-13.5S490.8,448.6,502.6,446.3z"/>
	<path class="strich14" d="M502.3,459.6c0,0,12.6,18.6,25.5,13.5"/>
	<path class="strich15" d="M498.8,462.6c0,0,4.1,0.8,5.9,0"/>
	<path class="strich14" d="M500,471.2c0,0,12.6,18.6,25.5,13.5"/>
	<path class="strich15" d="M496.5,474.2c0,0,4.1,0.8,5.9,0"/>
</g>
<path id="richleg" class="strich16" d="M380.1,491.5c0,0,23.7-30.5,60.9-24.8s47.7,29.8,47.7,29.8L380.1,491.5z"/>
<g id="richcarcase_1_">
	<path id="richhood" class="strich17" d="M545.5,485.5c0,0,62-43.8,178.6-34.8l84.1,11.5l40.6,77.4L545.5,485.5z"/>
	<path id="richcarcase" class="strich17" d="M220.1,635.1c0,0-77-14.2-75-40.9s65.9-98,178.4-137.9l54.4,30.4c0,0-16.6,115.6-10.8,121.3
		c0,0,6.4-11.5,162.9-3.7c0,0-6.8-97.7,4.7-115.9c0,0,10.8-6.4,61.5-9.8S800,458.1,889.4,592.4c0,0-76.5,60.2-139.6,45.6
		c0,0-3.5,0-6-2.6c-4.8-5.2,1-15.9,4.2-26.6c5.7-18.7,6.1-45.2-6.9-61.1c-1.9-2.3-6.8-8.3-15-11.2c-26.9-9.5-58.9,24-69.4,34.9
		c-9.7,10.1-23.9,27.8-33.7,54.9c-28.1-3.4-58.2-5.8-90-6.9c-70.9-2.3-134.8,2.8-189.8,10.9c-2.4,0-5.3-0.3-6.2-2.1
		c-1.6-3.1,3.6-8.7,5-10.4c13.6-15.8,22.6-60,5-81.1c-1.7-2.1-3.7-4.4-7.1-6.2c-23.4-12.9-66.1,21.5-86.9,45.3
		C243.4,586.9,229.4,606.1,220.1,635.1z"/>
	<path id="richcar_x5F_back2" class="strich18" d="M139.8,564.7c0,0-8.5-1.6-10.7-11.2c-2.1-9.6,87.5-106.7,173.4-114.7
		c0,0,11.7,9.1,7.5,14.4L139.8,564.7z"/>
	<path id="richcar_x5F_back1" class="strich18" d="M138.7,569c0,0-3.7-2.7,0.5-6.9c4.3-4.3,69.4-86.5,164.9-106.2c0,0,8.5-2.7,5.9,8
		c-2.7,10.7-9.1,9.9-9.1,9.9s-103.5,39.2-142.5,93.6C158.4,567.4,141.4,580.7,138.7,569z"/>
	<path id="richback_x5F_bumper1" class="strich18" d="M130.8,570.9H121c0,0-3.3,4.4-3.3,7.6s0,22.3,0,22.3h13.1V570.9z"/>
	<path id="richback_x5F_bumper2" class="strich18" d="M129.9,566.3c-0.9,1.6-2,4.1-2.8,7.1c-0.9,3.3-1.3,6.5-1.3,10.8
		c0,9.3,1.7,18.4,2.8,23.1c0,0,10.9,2.2,18.5,0s0-40.8,0-40.8C141.4,566.5,135.7,566.4,129.9,566.3z"/>
	<path id="richdoor_2_" class="strich18" d="M605.1,460.5c0,0-58.7-80.5-66-81.4c-8.3-1-28.8,1-36.6,3.1c0,0-3.7,0-2.5,3.9
		s32,86.1,33.6,93.1c1.6,7,0.5,10.4,0.5,10.4s-8.3,93.6-3.9,113.3c0,0,0.8,3.9-4.9,3.9c-5.7,0-132.2-4.7-159.2,2.1
		c0,0-3.4,1-2.1-7.3c1.3-8.3,7.5-111.9,12.4-115.4l2-3.4c0,0,124.7-2.8,146.4,2.8c0,0,4.3-2.5,2.5-6.9c-1.8-4.3-33.1-91.2-36.4-90.1
		c0,0-0.1,0-0.1,0.1c-0.5,0.5-0.6,1.2-0.6,1.7c-0.1,0.7-0.2,1.4-0.2,2.1c0,1,0,2.6-0.2,4.9c-1.7,28.3-3.4,56.7-5.2,85l-10.7-0.2
		l8.1-103.2c0,0,0.3-3.9,4.9-6.5c4.7-2.6,41.5-4.4,45.9-4.1s8.8,2.9,8.8,2.9c9.3,9.1,18.9,19.1,28.5,30c17.3,19.7,31.7,39,43.7,57
		L605.1,460.5z"/>
	<path id="richotherside" class="strich18" d="M899.5,496c0,0,2.8-2.3,0.5-6.7c-2.4-4.4-44.7-29.8-71.4-28.8c-26.7,1-22,4.4-22,4.4l133,96.1
		l7.4-11.2L899.5,496z"/>
	<path id="richhole_4_" class="strich9" d="M592.6,579.3c1.8-8.9,3.7-16.6,5.3-23c2.7-10.5,5.1-18.3,5.7-20.5c1.9-6.2,3.6-11.5,5.1-15.7
		c3.3,0,6.6,0,9.9,0c-2.9,8.7-5.2,16.2-6.8,22c-2,6.9-4,14.1-6,23.9c-1.1,5.5-1.9,10-2.5,13.3C599.8,579.3,596.2,579.3,592.6,579.3z
		"/>
	<path id="richhole_1_" class="strich9" d="M578.6,579.3c1.8-8.9,3.7-16.6,5.3-23c2.7-10.5,5.1-18.3,5.7-20.5c1.9-6.2,3.6-11.5,5.1-15.7
		c3.3,0,6.6,0,9.9,0c-2.9,8.7-5.2,16.2-6.8,22c-2,6.9-4,14.1-6,23.9c-1.1,5.5-1.9,10-2.5,13.3C585.7,579.3,582.1,579.3,578.6,579.3z
		"/>
	<path id="richhole" class="strich9" d="M564.3,579.3c1.8-8.9,3.7-16.6,5.3-23c2.7-10.5,5.1-18.3,5.7-20.5c1.9-6.2,3.6-11.5,5.1-15.7
		c3.3,0,6.6,0,9.9,0c-2.9,8.7-5.2,16.2-6.8,22c-2,6.9-4,14.1-6,23.9c-1.1,5.5-1.9,10-2.5,13.3C571.4,579.3,567.8,579.3,564.3,579.3z
		"/>
</g>
<path id="richcover2" class="strich1" d="M330.2,459.6c0,0-51.5-29.4-51.3-29.7c0,0,0,0,0,0c0.6-0.1,0.9-1.3,0.9-1.3c0.2-0.7,1-1.6,2.7-3.6
	c2-2.2,4.8-3.6,6.5-4.4c2-0.9,5.1-2.1,9.1-2.6C308.8,431.9,319.5,445.8,330.2,459.6z"/>
<path id="richback_x5F_bumper_x5F_grey" class="strich5" d="M157.3,570c-4.6-1-9.3,0.5-12.4,4c-6.8,7.6-14.7,21.9,4.5,35.2
	c0,0,3.3,2.9,10.1,3.3c6.8,0.3,32.5-0.3,38.4-4.9c4.3-3.4,8.6-11,10.6-14.8c1-1.9,1.5-3.9,1.4-6c-0.1-3-1-6.7-5.2-7.1
	C199.3,579.1,170.4,572.9,157.3,570z"/>
<g id="richintake">
	<path id="richair_x5F_intakeshadow" class="strich19" d="M674.8,450.6h33.9c0,0-8.4-8-19.5-8.5C678,441.7,674.8,450.6,674.8,450.6z"/>
	<path id="richair_x5F_intake1" class="strich18" d="M595.1,475c0,0,56.8-7.2,68.9-5.4l7.2-2.2c-0.3-2.3-1-9.6,3.6-16.7
		c1.2-1.9,4.3-6.5,10.1-8.3c10.1-3.1,19,5.3,19.4,6.6c0,0.1,0.4,1.4,0.4,1.4l0,0h8.2c0,0-11.9-28.4-71.5-10.4
		C641.3,440.1,604,449.6,595.1,475z"/>
	<path id="richair_x5F_intakefront" class="strich18" d="M664.5,468.5c0,0-2.6-26.4,20.2-32.7c0,0,16.5-2.4,27.7,14.5h-6.7
		c-1.1-1.5-4.3-5.5-10.3-7.4c-6.6-2.1-12.2-0.2-13.8,0.4c-1.8,1.1-4.3,2.9-6.4,5.8c-5.2,7.3-3.6,15.7-3.2,17.5
		C672.1,466.5,666.9,466.9,664.5,468.5z"/>
</g>
<g id="richheadlights">
	<path id="richheadlightleft1" class="strich5" d="M903.7,493.5c0,0,36.8,22.4,42.1,38.6c5.3,16.1-2.8,17.9-7,16.8
		c-4.2-1.1-17.5-7.7-22.8-11.9c-5.3-4.2-26.7-29.4-26.7-37s2.8-7.6,5.6-8.3C897.7,491,903.7,493.5,903.7,493.5z"/>
	<path id="richheadlightleft2" class="strich20" d="M901.4,501.4c0,0,0-0.7,0.6-1.2c1.2-1,3.9,0.3,5.7,1.2c7.4,4,14.2,10.4,14.2,10.4
		c6.5,6,9.8,9.2,13.8,13.9c0.7,0.8,4.5,5.5,4.8,10.8c0.1,1.9-0.3,2.7-0.9,3.1c-1.2,0.8-3.4-0.4-4.4-1c-13.9-8.1-19.3-14.2-19.3-14.2
		C911.8,519.8,906.1,512.2,901.4,501.4z"/>
	<path id="richheadlighright1" class="strich5" d="M792.9,525.2c0.2-0.6,1.1-5.8,5.2-6.8c1.6-0.4,3.4-0.7,5.4-0.8c14.5-0.7,25.3,9.4,38.8,22
		c11.6,10.8,14.7,17.1,16.1,20.3c1.6,3.6,6.6,15.4,1.8,20.2c-4.2,4.3-13.7,1.1-19.2-0.8c-11-3.7-17.8-10-27.1-18.8
		c0,0-9-8.5-17.6-22.6C794,534.5,791.6,530,792.9,525.2z"/>
	<path id="richheadlightright2" class="strich20" d="M806.5,525.4c5.7,0.6,11.7,3.8,18.9,9.1c2.6,1.9,7.5,5.8,13,11.5
		c5.3,5.6,7.8,9.4,9.5,13.5c1,2.3,3,7,1.2,8.7c-1.4,1.3-4.6-0.2-7-0.9c-7.2-2.2-35.4-28.2-38-32.8c-2.6-4.6-3.5-4.7-3.3-8
		C801,524.6,805.3,525.2,806.5,525.4z"/>
</g>
<g id="richgrille">
	<polygon id="richgrillefrontbase" class="strich21" points="916.7,580.9 910.1,583.8 822.4,491.6 823.5,471.9 858.4,484.5 940.5,572.3 	"/>
	<line id="richgrilleline" class="strich14" x1="917.3" y1="580.9" x2="820.7" y2="478.7"/>
	<line id="richgrilleline_1_" class="strich14" x1="932.8" y1="584.7" x2="826.3" y2="472.5"/>
	<line id="richgrilleline_2_" class="strich14" x1="934.8" y1="576.2" x2="838.3" y2="474.1"/>
	<polygon id="richgrille1" class="strich5" points="798,460.5 798,493.6 812.6,492.3 815,462.6 	"/>
	<polygon id="richgrille2" class="strich5" points="889.3,591.9 798,493.6 812.6,492.3 903.2,586.6 	"/>
	<path id="richgrille3" class="strich22" d="M940.5,559.1l-77.4-80c0,0-23.2-11-48.2-16.4l-2.4,29.7l90.6,94.3l6.9-2.9l-87.7-92.2l1.1-19.7
		l35,12.6l82.1,87.8V559.1z"/>
</g>
<g id="richbumper">
	<path id="richbumperfront1" class="strich5" d="M777,616.2c0,0,117.7-13.7,159-46.6c0.7-0.6,1.5-1.1,2.4-1.6c2.4-1.3,8-4.3,12.5-6.8
		c6-3.3,15.4,10.7,15.4,10.7v15c0,0-91.9,69.1-185.9,63.5c0,0-15.2,3.4-23.2-17.8C757.2,632.6,750.4,617.1,777,616.2z"/>
	<path id="richbumperfrontlefttooth" class="strich5" d="M812.9,608.7c0,0,0.6-18.2,12.5-21.6c11.9-3.5,39.3,19.7,23.2,63.6
		c0,0-4.8,11.5-20,10.1c0,0-9.8-0.7-9.5-12c0,0,12.8-2.7,14.2-12.2c1.3-9.2-2.6-35.1-19.2-26.4c-0.5,0.3-1.1-0.1-1.1-0.7V608.7z"/>
	<path id="richbumperfrontlefttooth_1_" class="strich5" d="M940.5,564.9c0,0,0.5-17.4,11.3-20.7c10.7-3.3,35.3,17.9,20.7,59.9
		c0,0-4.2,10.9-18,9.5c0,0-8.2-1.7-9.1-10.8c-0.1-1.2,0.5-2.3,1.6-2.8c3-1.4,9.1-5,10-11.7c1.2-8.9-0.6-30.4-15.5-22.1
		c-0.4,0.2-1-0.1-1-0.6V564.9z"/>
</g>
<path id="richline" class="strich23" d="M409,398c0,0-4.7,23.3,0,27.5s10.8,8.6,10.8,8.6"/>
<g id="richscarf_1_">
	<path id="richscarf" class="strich24" d="M210,382c0,0-1.7,5.1,3,17.3c0,0-1.3,9.1-6.4,13.4c0,0,23.9-12.6,53.4,1.6c0,0,7.7,1.8,12-6.7
		s19.6-3.2,23.1-2.5c3.4,0.8,9.5,2,9.5,2s10.3,7.3,13,7.3c2.7,0,12.6-11.8,12.6-11.8s40.9,16.9,68.6-3.4c0,0,11.9-12.6-6.8-14.4
		c0,0,2.9-12.6-7-13.6s-11-0.8-11-0.8l-2.3,0l2.3,12c-2.5,1.7-11.6,7.5-24,6.1c-8.4-1-14.3-4.9-17-6.9c0.4-0.3,1.4-1,1.9-2.3
		c0.7-1.6,0.5-3,0.4-3.5c-5.7,0.4-10.4,3.4-12.1,7.8c-0.6,1.5-0.8,3.3-0.4,5.5l-0.1,3.8c0,0-4-0.3-4.5,1.9c0,0-12.3-5.9-18.2-0.1
		c0,0-22.6-7.3-32.6-0.3C267.3,394.3,221.1,378.4,210,382z"/>
	<path id="richline_3_" class="strich23" d="M362.6,387.5c3.1-0.5,7.8-1.6,12.7-4.8c2-1.3,3.6-2.7,4.8-4"/>
	<path id="richline_4_" class="strich23" d="M359.4,393.9c0,0,24.4,2.1,32.5-9"/>
	<path id="richline_5_" class="strich25" d="M304.5,392.4c0,0-9.6,6.9,0,14.5"/>
</g>
<g id="richsleeve_1_">
	<path id="richsleeve" class="strich13" d="M359,463.5c0,0-32.8-35.6-36.9-43c-4.2-7.4-4.5-11-4.5-13.1s0.6-20.3,15.5-19.7l19.5,13.6
		c0,0,4.4,0.4,4.4,1.5c0,1.1,5.7,0.9,5.7,0.9S344.8,414.3,359,463.5z"/>
	<path id="richsleeveshadow2" class="strich26" d="M376.5,422.2c0,0-0.9-15.9-13.9-18.3c-0.6,0.5-1.3,1.1-2.1,2c-1.8,2-2.7,3.8-3.3,5
		c-0.6,1.3-1.4,3-2,5.2L376.5,422.2z"/>
	<path id="richsleeveshshadow1" class="strich26" d="M374.8,438.1c0,0-4.8,24.4-11.1,26.5c0,0-2.4,1.4-4.7-1.2c-1.2-4.1-2.4-8.7-3.3-13.8
		c-1-5.2-1.6-10.1-1.9-14.5c3.3,0.3,6.7,0.6,10.2,1.1C367.7,436.9,371.4,437.5,374.8,438.1z"/>
	<path id="richline_1_" class="strich25" d="M348.2,438.7c0,0-5.8-33.9,12.7-34.9"/>
	<line id="richline_2_" class="strich25" x1="347.3" y1="403.3" x2="352.6" y2="401.4"/>
</g>
<g id="richhead">
	<path id="richheadbase" class="strich27" d="M332.9,381.6c0.4-0.3,1-0.8,1.4-1.6c0.7-1.2,0.7-2.3,0.8-3.4c0.1-1.4,0.6-3.6-0.2-6.2
		c-2.8-10.2-5.3-9.4-7.1-13.7c0,0-0.8,13-10.3,14.9c0,0-6.9,0-9.8-4.8c0,0-21.2-3-27.1-22.8c-6-19.7,6.9-26.3,6.9-26.3
		s-18.9-37,21.2-60.2c40.1-23.1,73.3-18.1,88.1-8.4c14.9,9.8,37.8,38.7,38.2,51c0.4,12.3-9.8,16.1-9.8,16.1l2.5,3.6
		c0,0,17.5,5.5,18.8,17.7c0,0,10.7,4.4,5.5,13.8c-5.2,9.4-16.2,3.7-16.2,3.7s-3.9,3.9-6.8,0.7c-2.8-3.3-13.3,19.5-13.3,19.5
		s-12.9,11.3-13.3,15.8c0,0-12.9,4.4-17-0.9c-0.1-0.2-0.1-0.1-0.5-0.5c-4.2-4.1-11.1-7.3-11.1-7.3c-1.4,1.1-3.8,2-6.6,3.2
		c-1.4,0.6-7.4,3.3-15.5,2.9C342.4,388.1,335.6,383.7,332.9,381.6z"/>
	<path class="strich27" d="M374.8,376.2c0,0,11.6,15.1,15.1,16.3"/>
	<path class="strich23" d="M327.9,357.6c0,0,8.8,11.9,19.4,13.9"/>
	<path class="strich23" d="M360.8,291.5c0,0,4-9.3,12-11.4"/>
	<path class="strich23" d="M368.5,288.7c0,0,3.7-4.3,10.8-4.9"/>
	<path class="strich23" d="M410.5,286.2c0,0,12.3,3.4,13.9,2.5"/>
	<path class="strich23" d="M366.8,299.5c0,0,0.9-8.9,8-9.4c7.1-0.5,17.3-0.9,28.5,1.4s25.4,3.1,25.4,3.1"/>
	<line class="strich23" x1="362.6" y1="297.7" x2="367.7" y2="296"/>
	<path class="strich23" d="M428.8,337.9c0,0-0.7,5.2,1.2,6.3"/>
	<path class="strich23" d="M428,340.3c0,0-9.6-0.1-9.7,6.8s8.3,6.9,8.3,6.9"/>
	<line class="strich23" x1="411.8" y1="351.9" x2="418.4" y2="346.2"/>
	<path id="richmustasche" class="strich28" d="M442.1,365.6c0,0-5.6-8.3-12.7-9.8c-7.1-1.5-10.1-2.8-17,0c-6.9,2.8-9,12.1-9,12.1
		s-0.9,4.9-3.8,6c-2.8,1.1-3.3,4.3-2.4,6.4s10.2-3.3,10.2-3.3s4.9,0.8,5.8-1.7c0,0,2.7,2.1,5.3,0c0,0,1.7,3.1,5.6,0
		c0,0,2.2,1.1,5.3-3.1c0,0,1.6,2.1,3.4-3.7c0,0,2.4,5.6,3.8-1.1l2.6,3.2l-1.1-6.2L442.1,365.6z"/>
	<path id="richhair" class="strich28" d="M282.8,322c0,0-3.6-9.3-8.4-14.1c-4.8-4.8-4.1-15.1-1.4-20.4s5.5-20,25.6-27.9l-7.2-2.6h10.8
		l-3.4-6l5.5,3.1v-5.7l3.6,3.6l3.1-15.8l-1.6,14.1c0,0,11.1-11.5,18.5-12.9c0,0-4.5,4.1-4.8,8.1c0,0,16.5-15.8,54.2-9.3
		c0,0,18.4,4.3,25.8,12.4c0,0,18.6,5.7,23.4,17.9c0,0-8-7.6-16.1-6.7c0,0-9.5-9.3-15-11.9l2.3,2.4c0,0-2.8-1-6.6-0.7l6.6,4.5
		c0,0-5.9-2.4-9.2-2.4l1.3,3.1c0,0-11.3-8.4-21.4-7.9v2.1l-7.7-1.9l4.3,6l-6-2.9v4.3l-5.5-6l-1,6.2l-4-6.4c0,0-1.7,3.8-4.3,5.7
		c-2.6,1.9-2.9-5.5-2.9-5.5s-0.2,6-2.4,6.4s-6.2-2.4-6.2-2.4l1.4,5.7l-8.4-0.7l3.6,4.8c0,0-5.9-1.7-9.6-1l3.4,4.3l-6.4-1.7
		c0,0-1.2,3.8,1.7,6c0,0-11,0.2-4.5,11s18.9,11.2,23.5,23.9l-5.6-2.6c0,0,1.9,2.6,1.2,6l-5.3-3.6c0,0,3.4,5.7,2.9,10.5l-4.8-2.4
		c0,0-1.4,4.3,1.9,9.1l-6-1.4l1.4,6.2l-6.9-5.3l1.9,7.9c0,0-4.8-12.7-19.6-12.7C284,316.7,282.8,322,282.8,322z"/>
	<polygon class="strich29" points="322.9,322.4 365.2,322.8 365.2,324.8 322.9,324.8 	"/>
	<path class="strich29" d="M365.2,321.2c0,0-0.3,5.8,0,6.2c0.3,0.3,1.7,0.8,1.7,0.8h4.6v-7H365.2z"/>
	<rect x="368.2" y="323.6" class="strich29" width="0.6" height="1.2"/>
	<path id="richfrontglass" class="strich30" d="M372.1,325.5c0,0,0.7,16.1,5.8,23.2c5.1,7.1,13.4,17.8,26.2,6.2s13-24.8,13-24.8
		s3.3-11.1,14.6-9.1l11.6,7.4v-14c0,0-36.5,0.1-45.7,1.3s-22.1,2.7-24.9,4.9C372.6,320.6,372,323,372.1,325.5z"/>
	<path id="richear" class="strich23" d="M320,357.6c0,0-2-2.8-5.4-2.6c-3.4,0.2-5.9,1.8-10,1.3s-11.9-3.7-14.5-8.3
		c-2.6-4.6-4.6-13.7-2.8-18.9c1.8-5.2,10.8-4.2,10.8-4.2s8.7,1.6,10.7,7.2c2,5.6-1.6,7.8,4.2,10c5.8,2.2,7,5.8,7,5.8"/>
	<path id="richearline" class="strich23" d="M295,338.9c0,0-1.2-7.2,6.2-8.2c7.4-1,7.9,3.3,7.9,3.3l0.2,1.8c0,0-12.2-2.6-7.2,13.7"/>
</g>
</svg>
