<?xml version="1.0" encoding="utf-8"?>
<!-- Generator: Adobe Illustrator 19.0.0, SVG Export Plug-In . SVG Version: 6.00 Build 0)  -->
<svg version="1.1" id="happycar" xmlns="http://www.w3.org/2000/svg" xmlns:xlink="http://www.w3.org/1999/xlink" x="0px" y="0px"
	 width="1000px" height="1000px" viewBox="0 0 1000 1000" style="enable-background:new 0 0 1000 1000;" xml:space="preserve">
<style type="text/css">
	.sthappy0{fill:#A7D87F;stroke:#000000;stroke-width:2;stroke-miterlimit:10;}
	.sthappy1{fill:#FFFFFF;stroke:#000000;stroke-width:2;stroke-miterlimit:10;}
	.sthappy2{fill:#010000;}
	.sthappy3{fill:#FEFEFD;}
	.sthappy4{fill:#A9D882;stroke:#000000;stroke-width:2;stroke-linecap:round;stroke-linejoin:round;stroke-miterlimit:10;}
	.sthappy5{fill:#FBD2B4;stroke:#000000;stroke-width:2;stroke-linecap:round;stroke-linejoin:round;stroke-miterlimit:10;}
	.sthappy6{display:none;fill:none;stroke:#000000;stroke-linecap:round;stroke-linejoin:round;stroke-miterlimit:10;}
	.sthappy7{fill:none;stroke:#000000;stroke-width:2;stroke-linecap:round;stroke-linejoin:round;stroke-miterlimit:10;}
	.sthappy8{fill:#D81B2A;stroke:#000000;stroke-width:2;stroke-miterlimit:10;}
	.sthappy9{fill:#FCFDFC;stroke:#000000;stroke-miterlimit:10;}
	.sthappy10{fill:#FCFDFC;stroke:#000000;stroke-linecap:round;stroke-linejoin:round;stroke-miterlimit:10;}
	.sthappy11{fill:#FDBBD4;stroke:#000000;stroke-miterlimit:10;}
	.sthappy12{fill:#71CE4D;stroke:#000000;stroke-width:2;stroke-linecap:round;stroke-linejoin:round;stroke-miterlimit:10;}
	.sthappy13{fill:#A9D882;stroke:#000000;stroke-width:2;stroke-miterlimit:10;}
	.sthappy14{fill:#B27A3E;stroke:#000000;stroke-width:2;stroke-miterlimit:10;}
	.sthappy15{opacity:0.31;fill:#C6F0F9;enable-background:new    ;}
	.sthappy16{fill:#D3D4D6;stroke:#000000;stroke-width:2;stroke-miterlimit:10;}
	.sthappy17{fill:#FF141F;stroke:#000000;stroke-width:2;stroke-miterlimit:10;}
	.sthappy18{fill:#EFF1F5;stroke:#000000;stroke-width:2;stroke-miterlimit:10;}
	.sthappy19{fill:#E6F284;stroke:#000000;stroke-width:2;stroke-miterlimit:10;}
	.sthappy20{fill:#85868A;stroke:#000000;stroke-width:2;stroke-miterlimit:10;}
	.sthappy21{fill:#A9ABAF;stroke:#000000;stroke-width:2;stroke-miterlimit:10;}
	.sthappy22{fill:#8C8D93;}
	.sthappy23{fill:#DDDEE0;stroke:#000000;stroke-width:2;stroke-linecap:round;stroke-linejoin:round;stroke-miterlimit:10;}
	.sthappy24{fill:#E7E7E7;stroke:#000000;stroke-width:2;stroke-miterlimit:10;}
	.sthappy25{fill:#D8B36F;stroke:#000000;stroke-width:2;stroke-linecap:round;stroke-linejoin:round;stroke-miterlimit:10;}
	.sthappy26{fill:none;stroke:#000000;stroke-miterlimit:10;}
	.sthappy27{fill:#FF141F;stroke:#000000;stroke-width:2;stroke-linecap:round;stroke-linejoin:round;stroke-miterlimit:10;}
	.sthappy28{fill:#FFFFFF;stroke:#000000;stroke-width:2;stroke-linecap:round;stroke-linejoin:round;stroke-miterlimit:10;}
	.sthappy29{fill:#FFFF00;stroke:#000000;stroke-width:1;stroke-miterlimit:10;}
	.sthappy30{fill:#FFFF00;}
	.sthappy31{stroke:#000000;stroke-miterlimit:10;}
	.sthappy32{fill:none;stroke:#000000;stroke-width:10;stroke-linecap:round;stroke-linejoin:round;stroke-miterlimit:10;}
</style>
<path id="happyshirt" class="sthappy0" d="M378.5,442.4c0,0,11.4-62,34.5-89.1c0,0,52.2,50.6,70.7,43l10.9,28.8l5.5-6.4l14.5-35.3
	c0,0,30.6,31.6,35.3,69.9c0,0-30.3,16.4-68.3-2.5c0,0-6.9,28.8-21.9,31h-10.1C449.5,481.6,401,514.7,378.5,442.4z"/>
<g id="happyeye2">
	<ellipse id="happyeye1_4_" class="sthappy1" cx="495.8" cy="263" rx="13.6" ry="16.6"/>
	<circle id="happyeyeapple_1_" class="sthappy2" cx="502.4" cy="265.7" r="3.8"/>
	<ellipse id="happyeyeblick_1_" class="sthappy3" cx="501.3" cy="265.7" rx="1" ry="1.1"/>
</g>
<path id="happycollar3" class="sthappy4" d="M517.6,372.1h21.1c0,0-31.9,15.2-35.8,59.1c0,0-6.7-10.2-7-13.6
	C495.9,417.6,512.2,376.8,517.6,372.1z"/>
<g id="happyhead">
	<path id="happyheadbase" class="sthappy5" d="M420.9,344.4c0,0,16.7-38.3,16.7-54.9c0,0-32,8.5-29.3-14.9c2.6-23.4,16.4-19.2,22.9-16.9
		c6.5,2.3,11.4,5.1,11.4,5.1l-34.5-18.3c0,0-3.9-32.9,28-34.3s44,4.8,47.5,6.3c3.5,1.6,6.2,7.9,5.5,12.2c-0.7,4.2-9.7,31.2-9.7,31.2
		s56.2,23.1,57.8,23.8c1.6,0.7,4.6,4.4,1.2,11.6s-15.5,13.2-20.2,13c5.8,22.6,6.1,41.3,3.7,51.7c-2.1,9.2-5.3,14.8-5.3,14.8
		c-2.4,4.2-6.6,10.3-7,10.9c0,0-10.2,23.1-12.8,30.1c-0.1,1-0.1,2-0.2,3l-8.7-28.9C487.9,389.7,438.1,391,420.9,344.4z"/>
	<path id="happytongueline" class="sthappy6" d="M462.5,353.3c0,0,16.8-8.5,25,3"/>
	<path id="happyearline" class="sthappy7" d="M420.1,272.2c0,0,12.7-3.4,17.3,4.6c0,0-5.6-3.9-10,2.4"/>
	<path id="happyeyebrow1" class="sthappy7" d="M462.9,243.5c0,0,6.1-8.5,17.8-7.5"/>
	<path id="happyeyebrow2" class="sthappy7" d="M510.6,243.5c0,0-3.9-6.6-17.8-6.6"/>
	<path id="happyhair" class="sthappy2" d="M408.1,269.5c0,0-10.7-2.9-7.6-22.5c0,0-4,0.6-6.7,5.3c0,0-1.6-13.1,6-18.5l-6.1,2.1
		c0,0,2.4-15.6,14.4-23.4c0,0-6,2.7-10.2,4.7c0,0,2.4-11.3,26.3-15.6c0,0-10-3.6-18.7-1.6c0,0,18-12.9,40.3,2.4
		c0,0,8.9-11.6,27.6-9.6c0,0-7.7,4.2-10.4,10c0,0,15.7-18.7,43.3-3.1c0,0-14.4-0.2-21.2,3.3c0,0,17.1,1.3,21.2,10
		c0,0-42-7.1-63.4,8.2c0,0,12.2,10.5,6,30.9c0,0-1.3-5.8-5.1-8.8c0,0,0.4,9-1.6,12.3c-2,3.3-1.8,6.1-0.7,7.2c0,0-8-7.2-17.1-6.7
		C415.2,256.7,409.2,261.7,408.1,269.5z"/>
	<path id="happysmileline2" class="sthappy7" d="M452.1,281.6c0,0,7.8-3.3,12.2,2.4"/>
	<path id="happysmileline1" class="sthappy7" d="M452.1,287.8c0,0,6.2-4.2,11.3,0"/>
	<path id="happynoseline" class="sthappy7" d="M473.6,295.6c20.6,13.6,42.6,17.3,56.7,7.9c2.6-1.7,5.4-4.3,8-8"/>
	<path id="happythroat" class="sthappy8" d="M454.4,307.5c0,0-7.4,34.4,11.3,51.5l28.7-2c0,0-7.5-15.3-1.4-22.3
		C493.1,334.6,451.4,325.8,454.4,307.5z"/>
	<path id="happytooth1" class="sthappy9" d="M457.3,289.6c0,0-4.3,15.9-4.5,30.9c0,0,1.8,3.6,2.3,3c0.5-0.7,4.6-21.7,4.6-21.7
		c-0.5-1.7-1-3.7-1.3-5.9c-0.5-3.5-0.4-6.6-0.2-9C457.8,287.7,457.6,288.7,457.3,289.6z"/>
	<path id="happytooth2" class="sthappy10" d="M471.9,319.5l-2.5,12c0,0-8.8,3.3-14.3-8.1l4.6-21.7C459.6,301.7,463.4,313.9,471.9,319.5z"
		/>
	<path id="happytooth3" class="sthappy10" d="M490.3,326.3l-2.8,13c0,0-12.1,4.3-18.2-7.7l2.5-12C471.9,319.5,481.2,327,490.3,326.3z"/>
	<path id="happytooth4" class="sthappy10" d="M508.3,325.9v12.4c0,0-13,7.7-20.9,0.9l2.8-13C490.3,326.3,501.4,327.5,508.3,325.9z"/>
	<path id="happytongue" class="sthappy11" d="M461.2,354c0,0,12.5-7.3,20.7-2.5c0,0,19.2-6.2,23,13.6c0,0-8.8-6.1-22.7,0.4
		C482.2,365.6,468.3,364.3,461.2,354z"/>
	<path id="happymouthlinre" class="sthappy7" d="M507.5,367.7c0,0-6.1-10.3-25.3-2.1c0,0-44.5,0-24-79.6c0,0-5.3,50.7,56.3,39"/>
	<path class="sthappy7" d="M500,393.9c3.4-2.6,7.7-6.6,11.7-12.1c4.5-6.2,7.1-12.1,8.6-16.4"/>
</g>
<g id="happyeye1_1_">
	<ellipse id="happyeye1" class="sthappy1" cx="482.6" cy="263.8" rx="14.6" ry="16.8"/>
	<circle id="happyeyeapple" class="sthappy2" cx="481.2" cy="266.6" r="3.8"/>
	<ellipse id="happyeyeblick" class="sthappy3" cx="480.2" cy="266.7" rx="1" ry="1.1"/>
</g>
<g id="happycollar_1_">
	<path id="happycollar4" class="sthappy12" d="M519.6,388.3c0,0,6,8,7,10.1h18.5c0,0-6.8-5.5-6.3-26.3
		C538.7,372.1,525.5,379.9,519.6,388.3z"/>
	<path id="happycollar" class="sthappy13" d="M423.2,338.9c0,0-3.6-2.9-5.7-2.2c-2.1,0.6-6.4,12.6-6.4,15.1s5.8,38.1,54.6,70.5
		c0,0,5.4-28.7,22.2-32.7c0,0-48.8,2.2-68.7-47.7c0,0-1.2-2.4,2.7,0L423.2,338.9z"/>
	<path id="happycollar2" class="sthappy4" d="M490.6,433.9c0,0-14.6-27.2-14.3-36.1c0,0,7.1-8.2,11.6-8.1c0,0,4.1,24.7,15,41.5
		L490.6,433.9z"/>
	<path id="happysleeve" class="sthappy4" d="M458.2,425c0,0,14.7,17.1,24.2,19.2c0,0-0.1,34.5-28.8,39.2c0,0-17.5-11.9-24.3-26.5"/>
	<path id="happyarmpit" class="sthappy7" d="M424.4,468.7c0,0,1.6,5.7,14.2,1.4"/>
</g>
<path id="happyhand" class="sthappy5" d="M482.4,451.8c0,0,50.4,22.8,95.2-13.2c0,0-8.3,17.8-7.8,30.1l-108.6,6.4l18.6-25.5L482.4,451.8z
	"/>
<path id="happywheel" class="sthappy14" d="M565,468.9c-0.3-4.4-0.3-12.8,3.6-22.2c1.4-3.2,6.2-14.2,18.4-21.6
	c2.3-1.4,18.3-10.7,37.5-4.3c22.2,7.4,28.7,29.3,29.2,31.2c-2.6,0.8-5.2,1.6-7.8,2.4c-1.2-3.6-3.5-9.1-8.2-14.4
	c-8.8-9.9-19.9-12.6-23.9-13.4c-4.4-0.2-13.1,0.2-21.8,5.5c-18.5,11.4-18.8,34.8-18.8,36.5C570.4,468.7,567.7,468.8,565,468.9z"/>
<g id="happyfingers">
	<path id="happyfinger1" class="sthappy5" d="M615.5,418.6c0,0,0.2-0.4,0.5-0.9c1.4-2,5.5-6.6,12.7-1.5c9,6.5,3.6,16.2,1.1,17.6
		c-2.5,1.5-9.8,0-9.8,0L615.5,418.6z"/>
	<path id="happyfinger2" class="sthappy5" d="M602.3,418.6c0,0,5.3-8.5,12.6-2.9s9,17.7,1.7,19.9c-7.3,2.2-11.5-1.7-11.5-1.7L602.3,418.6
		z"/>
	<path id="happyfinger3" class="sthappy5" d="M579.8,430.8c0.9-8.3,6.6-14.5,12.9-15.2c7-0.7,12.2,5.7,13.5,7.3c1.4,1.8,4.3,5.3,3.6,9.8
		c-0.1,0.8-0.6,4.4-3.6,6.2c-2.7,1.6-5.9,0.9-7.9-0.3c-1.9-1.1-1.8-2.2-4.2-5.3c-2.6-3.4-5.1-6.7-8.1-6.7
		C585.4,426.6,582.8,426.7,579.8,430.8z"/>
</g>
<path id="happyglass" class="sthappy15" d="M599.1,468.9c0,0-39.4-59.6-34.3-63.6c5.1-4,3.2-8.5,12.7-9s40.4-1,59.1,10
	s47.6,45.6,47.6,45.6L599.1,468.9z"/>
<path id="happyglassborder" class="sthappy16" d="M588,464c0,0-25.8-42.3-33.1-52.2c-7.3-9.9-2.8-18,15.2-19.7c0,0,14.9-0.3,32.3,2.1
	c16.7,2.2,31.1,4.4,41.8,13.1c1.5,1.3,5.2,4.5,8.8,7.7c5.2,4.8,9.1,8.6,12.8,12.4c5.4,5.5,12.4,12.7,20.8,21.6
	c-2.2,0.7-4.3,1.5-6.5,2.2c-3-3.4-14.4-15.9-25.8-27.3c-2.6-2.6-6.5-6.4-12.4-10.1c-1.6-1-4.7-2.8-9.2-4.8
	c-9.1-3.9-14.7-4.3-46.4-6.6c-2.5-0.2-7.3-0.5-9.5,2.3c-1.5,1.9-1.1,4.5-0.9,5.5c1.5,10,23.6,44.3,26.4,48.5L588,464z"/>
<path id="happycarcase" class="sthappy17" d="M599.1,458.8c0,0,60.7-22.7,155.4-0.6s101.6,63.6,101.6,63.6l-15.2,5.5L599.1,458.8z"/>
<g id="happylight1_1_">
	<ellipse id="happylight_x5F_border1" class="sthappy18" cx="854.4" cy="537.6" rx="18.9" ry="31.3"/>
	<ellipse id="happylight1" class="sthappy19" cx="858.5" cy="537.3" rx="17.5" ry="28.7"/>
</g>
<path id="happyotherwheel1" d="M396.1,642.6c0,0,9.3,47,77.5,7.5s51.2-164.9,51.2-164.9S380.2,560.4,396.1,642.6z"/>
<path id="happyotherwheel2" d="M715.2,646.8c0,0,15.1,41.8,75.5,7s-17.9-140.3-17.9-140.3S693.1,585,715.2,646.8z"/>
<g id="happywheelback">
	
		<ellipse id="happywheelbackintyre2" transform="matrix(0.7212 -0.6927 0.6927 0.7212 -322.0577 412.7111)" class="sthappy20" cx="351.7" cy="606.5" rx="95.3" ry="57.3"/>
	
		<ellipse id="happywheelbackintyre1" transform="matrix(0.7212 -0.6927 0.6927 0.7212 -323.8613 404.0252)" class="sthappy20" cx="340" cy="604.4" rx="95.3" ry="57.3"/>
	
		<ellipse id="happywheelbackouttyre" transform="matrix(0.7039 -0.7103 0.7103 0.7039 -324.2661 411.3743)" class="sthappy21" cx="331.3" cy="594.6" rx="99" ry="57.3"/>
	
		<ellipse id="happywheelbackcenter" transform="matrix(0.7039 -0.7103 0.7103 0.7039 -327.8537 408.9517)" class="sthappy22" cx="326.6" cy="597.7" rx="48.6" ry="22.1"/>
	<path id="happypetal4" class="sthappy23" d="M329.1,570.8l-3,24.4h3l18.4-34.4c0,0-14.8,3-19.4,7.3L329.1,570.8z"/>
	<polygon id="happypetal3" class="sthappy23" points="331.7,596.6 359.6,587.2 351.9,601.5 330.5,601.5 	"/>
	<polygon id="happypetal2" class="sthappy23" points="326.1,604.2 326.1,625.7 310.2,634 321.8,604.2 	"/>
	<polygon id="happypetal1" class="sthappy23" points="317.2,600.5 297.1,599.8 289.8,615 316.5,605.1 	"/>
	<path class="sthappy24" d="M363,560.5c-9.9-9.8-34.4-1.1-54.7,19.5c-20.3,20.5-28.8,45.1-19,54.9c9.9,9.8,34.4,1.1,54.7-19.5
		C364.4,594.8,372.8,570.3,363,560.5z M339.8,611.2c-16.9,17-36.6,24.7-44.2,17.2c-7.5-7.5,0-27.3,16.8-44.3
		c16.9-17,36.6-24.7,44.2-17.2S356.7,594.2,339.8,611.2z"/>
	
		<ellipse id="happycenter" transform="matrix(0.6974 -0.7167 0.7167 0.6974 -332.0012 414.1068)" class="sthappy23" cx="324.4" cy="600.2" rx="11.3" ry="8.5"/>
</g>
<g id="happywheelfront">
	
		<ellipse id="happywheelbackintyre2_1_" transform="matrix(0.7212 -0.6927 0.6927 0.7212 -244.0983 628.9967)" class="sthappy20" cx="659.4" cy="617.8" rx="95.3" ry="57.3"/>
	
		<ellipse id="happywheelbackintyre1_1_" transform="matrix(0.7212 -0.6927 0.6927 0.7212 -245.9019 620.3109)" class="sthappy20" cx="647.7" cy="615.7" rx="95.3" ry="57.3"/>
	
		<ellipse id="happywheelbackouttyre_1_" transform="matrix(0.7039 -0.7103 0.7103 0.7039 -241.1709 633.2752)" class="sthappy21" cx="639" cy="605.9" rx="99" ry="57.3"/>
	
		<ellipse id="happywheelbackcenter_1_" transform="matrix(0.7039 -0.7103 0.7103 0.7039 -244.7584 630.8527)" class="sthappy22" cx="634.3" cy="609" rx="48.6" ry="22.1"/>
	<path id="happypetal4_1_" class="sthappy23" d="M636.8,582.1l-3,24.4h3l18.4-34.4c0,0-14.8,3-19.4,7.3L636.8,582.1z"/>
	<polygon id="happypetal3_1_" class="sthappy23" points="639.4,607.9 667.3,598.5 659.7,612.8 638.2,612.8 	"/>
	<polygon id="happypetal2_1_" class="sthappy23" points="633.8,615.5 633.8,637 617.9,645.3 629.5,615.5 	"/>
	<polygon id="happypetal1_1_" class="sthappy23" points="624.9,611.8 604.8,611.1 597.5,626.3 624.2,616.4 	"/>
	<path class="sthappy24" d="M670.7,571.8c-9.9-9.8-34.4-1.1-54.7,19.5c-20.3,20.5-28.8,45.1-19,54.9c9.9,9.8,34.4,1.1,54.7-19.5
		C672.1,606.1,680.6,581.5,670.7,571.8z M647.5,622.5c-16.9,17-36.6,24.7-44.2,17.2c-7.5-7.5,0-27.3,16.8-44.3
		c16.9-17,36.6-24.7,44.2-17.2C671.9,585.6,664.4,605.5,647.5,622.5z"/>
	
		<ellipse id="happycenter_1_" transform="matrix(0.6974 -0.7167 0.7167 0.6974 -246.9845 638.0471)" class="sthappy23" cx="632.1" cy="611.5" rx="11.3" ry="8.5"/>
</g>
<path id="happycarcase_x5F_main" class="sthappy17" d="M547.8,611l-153.5-8.3c19.7-26.9,23.5-55,11.4-69.3c-8.6-10.2-23.4-11.1-31.8-11.5
	c-18.3-1-34.6,4.7-72.2,27.5c-17.1,10.4-39,24.5-63.5,42.6c-6.8-6.7-14.5-13.7-23.3-20.7c-11.3-9-22.2-16.4-32.2-22.5
	c0,0,5.5-25.6,22.1-33.2c0,0-22.8-28.3-30.4-27c33.4-17.5,62.9-26.1,83.3-30.7c38-8.5,82.4-18.5,122.5,4.2c12.4,7,21,15.3,26.3,21
	c34.5,2.5,69,5,103.5,7.6l73.6-27c0,0,53.2-23.5,135.5-2.1s146.6,62.2,167.3,130.7c0,0-28.3,80.9-197,27c0,0,36.6-44.6,22.3-67
	c-8.1-12.6-28.4-12.4-38.2-12.5c-0.4,0-0.9,0-1.5,0c-26.9,0.5-62.1,22.8-62.1,22.8C593.7,573,571.9,588.6,547.8,611z"/>
<g id="happycover_1_">
	<path id="happyshadow" class="sthappy2" d="M351.7,430.6c0.2-8,33.8-16.1,33.8-16.1l0,0c-1.1,3.4-2.1,7-3.1,10.8
		c-1.7,6.5-2.9,12.7-3.8,18.5C355.9,438,351.7,433.5,351.7,430.6z"/>
	<path id="happycover" class="sthappy25" d="M389.1,401.6c-6.6-0.2-45.8-1.2-62.1,20.7c-3,4-10,13.4-7,22.4c0.4,1.1,1.9,5.3,8.1,9.4
		c15.4,10.2,27-1.9,48.3,6c11.7,4.4,20.7,12.7,22.4,14.3c3.5,3.3,6.1,6.4,7.9,8.7l4.5-1.1c-2.4-5.6-6.2-12.6-11.8-19.9
		c-7.3-9.4-15-15.7-20.8-19.8c-0.8-0.5-2-1.4-3.4-2.3c-1.3-0.9-2.8-1.8-4.4-2.9c-4.1-2.7-8.4-5.5-9.5-6c-2.2-1.2,8.5-13.6,22.5-11
		C383.6,420.2,388.2,404.3,389.1,401.6z"/>
	<circle class="sthappy26" cx="335.5" cy="448.1" r="3.7"/>
	<circle class="sthappy26" cx="355.5" cy="449.6" r="3.7"/>
	<circle class="sthappy26" cx="375.8" cy="452.7" r="3.7"/>
	<path class="sthappy7" d="M351.7,428.4c0,0,13,2.6,26.1,13.4"/>
</g>
<path id="happydoor" class="sthappy27" d="M406.6,483.2c0,0-12.5,18.6-10.3,30.5c0,0,38.9,9.7,17.9,73.2c0,0,120.4,4.5,125.6,8.2
	c0,0-0.1-65.8,44.8-133C584.7,462.1,493.1,463.8,406.6,483.2z"/>
<path id="happycarcase_x5F_line" class="sthappy7" d="M590.8,462.1c0,0,151.1-2.7,216.5,66.5"/>
<g id="happylight2_1_">
	
		<ellipse id="happylight_x5F_border2" transform="matrix(0.116 -0.9932 0.9932 0.116 153.3349 1296.7649)" class="sthappy18" cx="805.2" cy="562.2" rx="33.3" ry="20.4"/>
	
		<ellipse id="happylight2" transform="matrix(0.116 -0.9932 0.9932 0.116 156.9604 1300.8361)" class="sthappy19" cx="809.3" cy="562.2" rx="30.5" ry="18.5"/>
</g>
<path id="happybumper" class="sthappy24" d="M873.3,552.6c0,0,30,3,30.4,23s-24.8,39-45.2,46.6c-20.4,7.7-56.5,9.5-97.7-4.4
	c-41.2-13.8-25.5-25.2-13.8-27.5c11.7-2.4,72.6,30.1,111.5,2.2c0,0,14.9-9.7,20.4-19.1l-8.1-15.8L873.3,552.6z"/>
<path id="happytsapa" class="sthappy24" d="M190.2,515.5c0,0-8.2-6.6-13.3-15.5s-5-6.9-3.2-10.9c1.8-3.9,10.1,0.2,16.5,7.1
	s11.9,11.9,15.1,19.2c0,0-14.9,12.4-16.4,21.5h-16.4C172.6,537,176.4,526.4,190.2,515.5z"/>
<path id="happybackbumper" class="sthappy24" d="M155.5,537.1l57.4,1.4c3.2,0.1,6.3,1.4,8.5,3.8c2.7,2.9,5.3,7.4,3.1,12.7
	c-1.8,4.3-6.3,7-11,7c-13.6,0-49.7,0-61.9,0c-3.2,0-6.2-1.2-8.5-3.5c-3.3-3.4-6.6-8.9-1.4-15.3C145.1,539.2,150.2,537,155.5,537.1z"
	/>
<g id="happyclowd1">
	<path id="happyclowd1_2_" class="sthappy28" d="M95.3,585.2l-14.7,0.1c0.3-0.8,0.6-1.6,0.9-2.4c0.7-1.8,2.1-6.6,0.5-12.1
		c-0.5-1.6-1.4-4.8-4.3-7.2c-3.3-2.8-9.5-5-14.8-1.8c-5.8,3.5-5.2,13.2-5.2,13.2s-5.6-3.4-13.5,5.4c-7.9,8.8,3.9,18.8,3.9,18.8
		s-6.3,3.9,0,13s17.9,0,17.9,0c0.5,0.6,3.1,3.5,6.7,3.4c5.3-0.2,7.8-6.7,8.1-7.5c3-7.7-3.1-15.4-3.6-16h14.2"/>
	<line class="sthappy7" x1="70.9" y1="585.5" x2="95.2" y2="585.5"/>
	<line class="sthappy7" x1="65.6" y1="592.2" x2="90.9" y2="592.2"/>
	<path class="sthappy7" d="M72.2,579c0,0-14.2,9.7-2.3,21.8"/>
</g>
<g id="happyclowd2_1_">
	<path id="happyclowd2" class="sthappy28" d="M153.1,594.7l-31-0.2c5.5,8.8,0,13.5,0,13.5c-13.1,11.2-14-2.7-14-2.7
		c-7.1,6.1-11.8,0-11.8,0c-9.1-11.5,4.8-19.6,4.8-19.6c-11.5-9-2.5-16.9,0-18.6c2.5-1.7,17.3-4.7,19.4,5.6
		c2.2,10.3-2.8,14.5-2.8,14.5h33.8"/>
	<path id="happyclowd2line2" class="sthappy7" d="M112.7,580.6c0,0-7.5,9.3,1.4,19"/>
	<line id="happyclowd2line" class="sthappy7" x1="110.8" y1="587.1" x2="148.8" y2="587.1"/>
</g>
<path id="happymuffler" class="sthappy24" d="M148.3,575c0,0-0.4,21.8,16.9,31.4c0,0,20.7-8.8,45.6,0c0,0,15.3-20.3,22.2-20.3
	c0,0-10.7-10-13.8-11.1c0,0-12.3,6.5-16.1,13.8C203.1,588.8,195.5,574.2,148.3,575z"/>
<ellipse id="happyhandle" class="sthappy24" cx="445.6" cy="495.4" rx="28.3" ry="4.6"/>
<g id="smilecloud">
	<path id="smilecloudpath" class="sthappy29" d="M591.1,354.9l30-100.9c-1.9,1.7-8.8,7.7-19.3,8c-3.8,0.1-16-0.5-22.7-10.7
		c-6.9-10.6-2-22.5-1.6-23.5c-1.1,1-9.1,8.2-19.8,6.5c-12.2-2-20.2-14.3-19.5-23.3c0.6-8.3,8.7-17.8,8.7-17.8l0,0
		c-2.9-0.6-8.5-2.1-13-6.8c-9.1-9.3-9-25.6-2.5-34c4.2-5.4,13.3-10.6,13.3-10.6l0,0c-4-3.4-14.4-13.4-16.5-29.1
		C525.3,91.4,539.2,68.9,559,63c9.6-2.9,18.3-1.2,23,0.1c-0.6-6.2-0.8-17.9,6.6-27.8c14-18.7,46-18.7,59.8-6.9
		c5.4,4.6,13.9,16.1,14.5,16.9l0,0c1-2.2,11.1-22.8,33.9-27c2.2-0.4,26.2-4.4,40.3,12.6c6.9,8.4,8.1,17.9,8.4,22.2
		c2.3-2.4,19-19,42.6-16.5c24.8,2.6,43.5,24.8,45.4,47.3c1.1,12.8-3.4,23.1-6.3,28.4c1.8,0.2,20.9,2.5,29.6,18.9
		c8.2,15.4,2.2,33.7-8.2,44.1c-9.8,9.8-22.2,11.2-26.1,11.4c2.1,3.8,6.3,12.8,4.6,23.9c-2.6,16.7-17.1,27.8-30.2,31.5
		c-23.6,6.7-42.1-10.3-43.1-11.2c0.5,4,1.2,14.1-4.8,23.8c-8.2,13.5-24.8,19.3-39,17c-12.5-2-20.3-9.8-23.2-12.9L591.1,354.9z"/>
	<circle id="smilebody" class="sthappy30" cx="684.3" cy="146.3" r="100.1"/>
	<ellipse id="smileeye2" class="sthappy31" cx="718.4" cy="112.7" rx="7.4" ry="22.2"/>
	<ellipse id="smileeye1" class="sthappy31" cx="651.2" cy="112.7" rx="7.4" ry="22.2"/>
	<path id="smilemouth" class="sthappy32" d="M741.9,179.4c-27.4,43.9-89.4,44.6-115.4,0.4"/>
</g>
</svg>
