<?xml version="1.0" encoding="utf-8"?>
<!-- Generator: Adobe Illustrator 19.0.0, SVG Export Plug-In . SVG Version: 6.00 Build 0)  -->
<svg version="1.1" id="money" class="absolute absoluteposition1 quotepicidea " xmlns="http://www.w3.org/2000/svg" xmlns:xlink="http://www.w3.org/1999/xlink" x="0px" y="0px"
	 width="1000px" height="1000px" viewBox="0 0 1000 1000" style="enable-background:new 0 0 1000 1000;" xml:space="preserve">
<style type="text/css">
	.stmoney0{fill:#FFFFFF;stroke:#000000;stroke-width:2;stroke-miterlimit:10;}
	.stmoney1{fill:#B2B3B3;stroke:#000000;stroke-width:2;stroke-miterlimit:10;}
	.stmoney2{fill:#6B6464;}
	.stmoney3{fill:#FFFFFF;}
	.stmoney4{fill:#746B6B;}
	.stmoney5{fill:#C4C4C4;}
	.stmoney6{fill:none;stroke:#000000;stroke-width:2;stroke-miterlimit:10;}
	.stmoney7{fill:none;stroke:#000000;stroke-width:3;stroke-linecap:round;stroke-linejoin:round;stroke-miterlimit:10;}
	.stmoney8{fill:#999999;}
	.stmoney9{fill:#66972F;stroke:#000000;stroke-width:2;stroke-miterlimit:10;}
	.stmoney10{fill:#72AA31;stroke:#000000;stroke-width:2;stroke-linecap:round;stroke-linejoin:round;stroke-miterlimit:10;}
	.stmoney11{fill:#88CE1C;stroke:#000000;stroke-width:2;stroke-miterlimit:10;}
	.stmoney12{fill:#66972F;stroke:#000000;stroke-width:3;stroke-linecap:round;stroke-linejoin:round;stroke-miterlimit:10;}
	.stmoney13{fill:#FDFDFD;}
	.stmoney14{fill:none;stroke:#000000;stroke-width:2;stroke-linecap:round;stroke-linejoin:round;stroke-miterlimit:10;}
</style>
<path id="moneycloud" class="stmoney0" d="M213.5,991.8L298.9,705c0,0-33.3,30.2-87.3,12.7s-36.5-87.3-36.5-87.3s-50.8,52.4-101.6,17.5
	C22.7,612.9,87.8,532,87.8,532S14.3,508.2,28,451s53.4-65.1,53.4-65.1S21.1,351,43.3,243.1s144.4-81,144.4-81s9.5-76.2,92.1-109.5
	s138.1,58.7,138.1,58.7S460.8,0.2,564,22.4s88.9,111.1,88.9,111.1S738.6,0.2,856,108.2s41.3,207.9,41.3,207.9s60.3-6.3,74.6,82.5
	c14.3,88.9-100,114.3-100,114.3s71.4,71.4-41.3,125.4s-154,0-154,0s39.7,84.1-63.5,111.1s-127-31.7-127-31.7L213.5,991.8z"/>
<g id="moneycoins3">
	<path id="moneyXMLID_44_" class="stmoney1" d="M493.8,202.5l0.7,83.9c0,0-0.9,29.2,87,32.5s92.9-32.5,92.9-32.5v-83.8"/>
	<g id="moneyblicks_1_">
		<polygon id="moneyXMLID_43_" class="stmoney2" points="531.1,228.7 531.1,310.2 542.2,313.4 542.2,231.2 		"/>
		<polygon id="moneyXMLID_42_" class="stmoney2" points="550.9,232.6 550.9,315 553.3,315.1 553.3,233.4 		"/>
		<polygon id="moneyXMLID_41_" class="stmoney3" points="577.8,235 577.8,317.3 581,317.3 581,235 		"/>
		<polygon id="moneyXMLID_40_" class="stmoney3" points="585.8,235 585.8,317.3 594.5,317.5 594.5,235 		"/>
		<polygon id="moneyXMLID_39_" class="stmoney3" points="599.2,235 599.2,258 602.4,258 602.4,234.2 		"/>
		<polygon id="moneyXMLID_38_" class="stmoney4" points="651.4,223.9 651.4,269.8 656.2,267.2 656.2,222.4 		"/>
		<path id="moneyXMLID_37_" class="stmoney4" d="M660.9,219.2v64.1c0,0,11.9-8.9,13.5-13.5v-64.9C674.4,204.9,670.8,216.3,660.9,219.2z"/>
		<path id="moneyXMLID_36_" class="stmoney5" d="M518.5,307v-82.3l-24.5-23.4v83.6C493.9,284.9,495.5,297.7,518.5,307z"/>
	</g>
	<ellipse id="moneyXMLID_35_" class="stmoney1" cx="584.3" cy="202.5" rx="89.8" ry="32.5"/>
	<path id="moneyXMLID_34_" class="stmoney6" d="M494.4,225.4c0,0-0.9,29.2,86.9,32.5c87.9,3.3,92.8-32.5,92.8-32.5"/>
	<path id="moneyXMLID_33_" class="stmoney6" d="M494.4,246.8c0,0-0.9,29.2,86.9,32.5s92.8-32.5,92.8-32.5"/>
	<path id="moneyXMLID_32_" class="stmoney6" d="M494.4,265.8c0,0-0.9,29.2,86.9,32.5s92.8-32.5,92.8-32.5"/>
	<path id="moneyXMLID_31_" class="stmoney6" d="M494.4,284.8c0,0-0.9,29.2,86.9,32.5s92.8-32.5,92.8-32.5"/>
	<line id="moneyXMLID_30_" class="stmoney7" x1="494.3" y1="200.2" x2="494.3" y2="285.7"/>
	<line id="moneyXMLID_29_" class="stmoney7" x1="674" y1="285.7" x2="674" y2="200.2"/>
	<path id="moneyXMLID_28_" class="stmoney8" d="M582.4,225c0,0-57,3.2-71.9-18.7c-15-21.9,57.9-32.7,102.8-27.1c44.9,5.6,52.3,23.3,44.9,27.1
		s5.1-19.2-46.7-16.4c-6.4,4.8-12.3,7.7-16.4,9.3c-18.5,7.5-38.3,6.2-45,5c-2.1-0.4-4.2-0.6-8.2-0.8c-5.3-0.3-7.7-0.2-9.8,1.2
		c-0.7,0.4-3,1.9-3,3.8c0,2.3,3.3,4,5.8,5.1c13.4,6,28.3,6.5,28.3,6.5c12,0.4,19.9-0.9,20.8,1.7C584.3,222.9,583.3,224.2,582.4,225z
		"/>
</g>
<g id="moneypack_1_">
	<polygon id="moneyvertical_x5F_left_1_" class="stmoney9" points="197.1,366.4 197.1,431.3 535.9,584.8 535.9,510.5 	"/>
	<polygon id="moneyvertical_x5F_front_1_" class="stmoney10" points="537.5,510.5 537.5,584.8 766.2,532.9 766.2,459.8 	"/>
	<polygon id="moneytop_1_" class="stmoney11" points="406.9,339 197.9,366.4 537.5,510.5 766.2,459.8 	"/>
	<polygon id="moneytop_x5F_pic_1_" class="stmoney12" points="253.4,370 536.7,492.6 704.6,455.8 395.4,350.6 	"/>
	<path id="moneycircle_1_" class="stmoney11" d="M374.4,410.4c0,0-3.6-37.5,107.4-19.5c111,18,59.8,74.2-56.9,51.2
		C424.9,442.1,393.9,435.7,374.4,410.4z"/>
	<polygon id="moneypaperline1_1_" class="stmoney5" points="323.8,420.2 323.8,488.3 390.3,518.4 390.3,447.9 	"/>
	<polygon id="moneypaperline2_1_" class="stmoney13" points="599.5,403.8 390.3,447.9 323.8,420.2 533.5,381.6 	"/>
	<polyline id="moneyXMLID_8_" class="stmoney14" points="390.3,518.4 390.3,447.9 599.5,403.8 	"/>
	<polyline id="moneyXMLID_7_" class="stmoney14" points="323.8,488.3 323.8,420.2 533.5,381.6 	"/>
</g>
<g id="moneypack_2_">
	<polygon id="moneyvertical_x5F_left_2_" class="stmoney9" points="235.1,300.7 235.1,365.6 573.9,519.2 573.9,444.8 	"/>
	<polygon id="moneyvertical_x5F_front_2_" class="stmoney10" points="575.5,444.8 575.5,519.2 804.2,467.2 804.2,394.1 	"/>
	<polygon id="moneytop_2_" class="stmoney11" points="444.9,273.3 235.9,300.7 575.5,444.8 804.2,394.1 	"/>
	<polygon id="moneytop_x5F_pic_2_" class="stmoney12" points="291.4,304.4 574.7,426.9 742.5,390.1 433.4,284.9 	"/>
	<path id="moneycircle_2_" class="stmoney11" d="M412.4,344.7c0,0-3.6-37.5,107.4-19.5c111,18,59.8,74.2-56.9,51.2
		C462.9,376.5,431.9,370,412.4,344.7z"/>
	<polygon id="moneypaperline1_2_" class="stmoney5" points="361.8,354.5 361.8,422.6 428.3,452.7 428.3,382.2 	"/>
	<polygon id="moneypaperline2_2_" class="stmoney13" points="637.5,338.1 428.3,382.2 361.8,354.5 571.5,315.9 	"/>
	<polyline id="moneyXMLID_10_" class="stmoney14" points="428.3,452.7 428.3,382.2 637.5,338.1 	"/>
	<polyline id="moneyXMLID_9_" class="stmoney14" points="361.8,422.6 361.8,354.5 571.5,315.9 	"/>
</g>
<g id="moneypack">
	<polygon id="moneyvertical_x5F_left" class="stmoney9" points="183.7,223.1 183.7,288 522.4,441.6 522.4,367.2 	"/>
	<polygon id="moneyvertical_x5F_front" class="stmoney10" points="524,367.2 524,441.6 752.8,389.7 752.8,316.5 	"/>
	<polygon id="moneytop" class="stmoney11" points="393.4,195.8 184.5,223.1 524,367.2 752.8,316.5 	"/>
	<polygon id="moneytop_x5F_pic" class="stmoney12" points="240,226.8 523.2,349.3 691.1,312.6 382,207.3 	"/>
	<path id="moneycircle" class="stmoney11" d="M361,267.2c0,0-3.6-37.5,107.4-19.5c111,18,59.8,74.2-56.9,51.2
		C411.5,298.9,380.5,292.4,361,267.2z"/>
	<polygon id="moneypaperline1" class="stmoney5" points="310.3,277 310.3,345 376.8,375.1 376.8,304.7 	"/>
	<polygon id="moneypaperline2" class="stmoney13" points="586.1,260.5 376.8,304.7 310.3,277 520.1,238.3 	"/>
	<polyline id="moneyXMLID_1_" class="stmoney14" points="376.8,375.1 376.8,304.7 586.1,260.5 	"/>
	<polyline id="moneyXMLID_5_" class="stmoney14" points="310.3,345 310.3,277 520.1,238.3 	"/>
</g>
<g id="moneycoins2">
	<path id="moneyXMLID_18_" class="stmoney1" d="M149.5,449.4l0.7,83.9c0,0-0.9,29.2,87,32.5c87.9,3.3,92.9-32.5,92.9-32.5v-83.8"/>
	<g id="moneyblicks">
		<polygon id="moneyXMLID_16_" class="stmoney2" points="186.9,475.6 186.9,557.1 197.9,560.3 197.9,478.2 		"/>
		<polygon id="moneyXMLID_19_" class="stmoney2" points="206.6,479.6 206.6,561.9 209,562.1 209,480.4 		"/>
		<polygon id="moneyXMLID_20_" class="stmoney3" points="233.6,482 233.6,564.3 236.7,564.3 236.7,482 		"/>
		<polygon id="moneyXMLID_21_" class="stmoney3" points="241.5,482 241.5,564.3 250.2,564.4 250.2,482 		"/>
		<polygon id="moneyXMLID_22_" class="stmoney3" points="254.9,482 254.9,504.9 258.1,504.9 258.1,481.2 		"/>
		<polygon id="moneyXMLID_23_" class="stmoney4" points="307.2,470.9 307.2,516.8 311.9,514.1 311.9,469.3 		"/>
		<path id="moneyXMLID_25_" class="stmoney4" d="M316.7,466.1v64.1c0,0,11.9-8.9,13.5-13.5v-64.9C330.1,451.9,326.5,463.2,316.7,466.1z"/>
		<path id="moneyXMLID_24_" class="stmoney5" d="M174.2,554v-82.3l-24.5-23.4v83.6C149.7,531.8,151.2,544.6,174.2,554z"/>
	</g>
	<ellipse id="moneyXMLID_6_" class="stmoney1" cx="240" cy="449.4" rx="89.8" ry="32.5"/>
	<path id="moneyXMLID_11_" class="stmoney6" d="M150.1,472.4c0,0-0.9,29.2,86.9,32.5c87.9,3.3,92.8-32.5,92.8-32.5"/>
	<path id="moneyXMLID_13_" class="stmoney6" d="M150.1,493.8c0,0-0.9,29.2,86.9,32.5s92.8-32.5,92.8-32.5"/>
	<path id="moneyXMLID_14_" class="stmoney6" d="M150.1,512.7c0,0-0.9,29.2,86.9,32.5c87.9,3.3,92.8-32.5,92.8-32.5"/>
	<path id="moneyXMLID_15_" class="stmoney6" d="M150.1,531.7c0,0-0.9,29.2,86.9,32.5c87.9,3.3,92.8-32.5,92.8-32.5"/>
	<line id="moneyXMLID_12_" class="stmoney7" x1="150.1" y1="447.1" x2="150.1" y2="532.6"/>
	<line id="moneyXMLID_17_" class="stmoney7" x1="329.7" y1="532.6" x2="329.7" y2="447.1"/>
	<path id="moneyXMLID_27_" class="stmoney8" d="M238.1,472c0,0-57,3.2-71.9-18.7c-15-21.9,57.9-32.7,102.8-27.1s52.3,23.3,44.9,27.1
		c-7.4,3.7,5.1-19.2-46.7-16.4c-6.4,4.8-12.3,7.7-16.4,9.3c-18.5,7.5-38.3,6.2-45,5c-2.1-0.4-4.2-0.6-8.2-0.8
		c-5.3-0.3-7.7-0.2-9.8,1.2c-0.7,0.4-3,1.9-3,3.8c0,2.3,3.3,4,5.8,5.1c13.4,6,28.3,6.5,28.3,6.5c12,0.4,19.9-0.9,20.8,1.7
		C240,469.8,239,471.1,238.1,472z"/>
</g>
<g id="moneycoins2_1_">
	<path id="moneyXMLID_61_" class="stmoney1" d="M352.9,540.4l0.7,83.9c0,0-0.9,29.2,87,32.5c87.9,3.3,92.9-32.5,92.9-32.5v-83.8"/>
	<g id="moneyblicks_2_">
		<polygon id="moneyXMLID_60_" class="stmoney2" points="390.3,566.6 390.3,648.2 401.3,651.3 401.3,569.2 		"/>
		<polygon id="moneyXMLID_59_" class="stmoney2" points="410.1,570.6 410.1,652.9 412.4,653.1 412.4,571.4 		"/>
		<polygon id="moneyXMLID_58_" class="stmoney3" points="437,573 437,655.3 440.1,655.3 440.1,573 		"/>
		<polygon id="moneyXMLID_57_" class="stmoney3" points="444.9,573 444.9,655.3 453.6,655.4 453.6,573 		"/>
		<polygon id="moneyXMLID_56_" class="stmoney3" points="458.3,573 458.3,595.9 461.5,595.9 461.5,572.2 		"/>
		<polygon id="moneyXMLID_55_" class="stmoney4" points="510.6,561.9 510.6,607.8 515.3,605.1 515.3,560.3 		"/>
		<path id="moneyXMLID_54_" class="stmoney4" d="M520.1,557.1v64.1c0,0,11.9-8.9,13.5-13.5v-64.9C533.5,542.9,529.9,554.2,520.1,557.1z"/>
		<path id="moneyXMLID_53_" class="stmoney5" d="M377.6,645v-82.3l-24.5-23.4v83.6C353.1,622.8,354.6,635.7,377.6,645z"/>
	</g>
	<ellipse id="moneyXMLID_52_" class="stmoney1" cx="443.4" cy="540.4" rx="89.8" ry="32.5"/>
	<path id="moneyXMLID_51_" class="stmoney6" d="M353.5,563.4c0,0-0.9,29.2,86.9,32.5s92.8-32.5,92.8-32.5"/>
	<path id="moneyXMLID_50_" class="stmoney6" d="M353.5,584.8c0,0-0.9,29.2,86.9,32.5s92.8-32.5,92.8-32.5"/>
	<path id="moneyXMLID_49_" class="stmoney6" d="M353.5,603.8c0,0-0.9,29.2,86.9,32.5c87.9,3.3,92.8-32.5,92.8-32.5"/>
	<path id="moneyXMLID_48_" class="stmoney6" d="M353.5,622.8c0,0-0.9,29.2,86.9,32.5c87.9,3.3,92.8-32.5,92.8-32.5"/>
	<line id="moneyXMLID_47_" class="stmoney7" x1="353.5" y1="538.2" x2="353.5" y2="623.6"/>
	<line id="moneyXMLID_46_" class="stmoney7" x1="533.1" y1="623.6" x2="533.1" y2="538.2"/>
	<path id="moneyXMLID_45_" class="stmoney8" d="M441.6,563c0,0-57,3.2-71.9-18.7s57.9-32.7,102.8-27.1s52.3,23.3,44.9,27.1
		c-7.4,3.7,5.1-19.2-46.7-16.4c-6.4,4.8-12.3,7.7-16.4,9.3c-18.5,7.5-38.3,6.2-45,5c-2.1-0.4-4.2-0.6-8.2-0.8
		c-5.3-0.3-7.7-0.2-9.8,1.2c-0.7,0.4-3,1.9-3,3.8c0,2.3,3.3,4,5.8,5.1c13.4,6,28.3,6.5,28.3,6.5c12,0.4,19.9-0.9,20.8,1.7
		C443.4,560.9,442.4,562.1,441.6,563z"/>
</g>
</svg>