<?xml version="1.0" encoding="utf-8"?>
<!-- Generator: Adobe Illustrator 19.0.0, SVG Export Plug-In . SVG Version: 6.00 Build 0)  -->
<svg version="1.1" id="scrollmouse" xmlns="http://www.w3.org/2000/svg" xmlns:xlink="http://www.w3.org/1999/xlink" x="0px"
	 y="0px" width="30px" height="46px" viewBox="-484 477.1 30 46" style="enable-background:new -484 477.1 30 46;"
	 xml:space="preserve">
<style type="text/css">
	.st0{fill:none;stroke:#000000;stroke-width:2;stroke-miterlimit:10;}
	.st1{fill:none;stroke:#000000;stroke-width:2;stroke-linecap:round;stroke-linejoin:round;stroke-miterlimit:10;}
</style>
<path class="st0" d="M-480.7,492.5c0-2.5,0.7-5,2.1-7.1c1.6-2.4,4.5-4.9,9.3-4.8c4.1,0,6.8,1.8,8.6,3.8c2,2.3,3,5.3,3,8.4v14.4
	c0,2.7-0.8,5.4-2.4,7.6c-1.8,2.4-4.7,4.8-9.2,4.8c-4.6,0-7.4-2.4-9.1-4.8c-1.5-2.3-2.3-4.9-2.3-7.5V492.5z"/>
<line id="scrollring" class="st1" x1="-469.4" y1="490.4" x2="-469.4" y2="495.8"/>
</svg>
