
 
<svg xmlns="http://www.w3.org/2000/svg" xmlns:xlink="http://www.w3.org/1999/xlink" viewBox="-2 -2 504 504" id="menu" style="transform-origin: 50% 50% 0px; transform: matrix3d(0.826673, 0.562683, 0, 0, -0.562683, 0.826673, 0, 0, 0, 0, 1, 0, 0, 0, 0, 1); touch-action: none; -webkit-user-select: none;">
<style>#menu{display:block;margin:0 auto;}a{cursor:pointer;outline:none;}.item .sector{transition:all .1s linear;fill:#fff;stroke:#111;}.item:hover .sector,.item:focus .sector{fill:#eee;}.menu-trigger{fill:#EA2A55;pointer-events:auto;}.menu-trigger:hover,.menu-trigger:focus{cursor:pointer;}symbol{overflow:visible;}</style>
<g id="symbolsContainer">    <symbol class="icon icon-" id="icon-1" viewBox="0 0 45 45"><!--Replace the contents of this symbol with the content of your icon--><rect fill="none" stroke="#111" stroke-width="1" width="100%" height="100%"></rect><text fill="#222" x="50%" y="50%" dy=".3em" text-anchor="middle" font-size="1.2em">1</text></symbol>

    <symbol class="icon icon-" id="icon-2" viewBox="0 0 45 45"><!--Replace the contents of this symbol with the content of your icon--><rect fill="none" stroke="#111" stroke-width="1" width="100%" height="100%"></rect><text fill="#222" x="50%" y="50%" dy=".3em" text-anchor="middle" font-size="1.2em">2</text></symbol>

    <symbol class="icon icon-" id="icon-3" viewBox="0 0 45 45"><!--Replace the contents of this symbol with the content of your icon--><rect fill="none" stroke="#111" stroke-width="1" width="100%" height="100%"></rect><text fill="#222" x="50%" y="50%" dy=".3em" text-anchor="middle" font-size="1.2em">3</text></symbol>

    <symbol class="icon icon-" id="icon-4" viewBox="0 0 45 45"><!--Replace the contents of this symbol with the content of your icon--><rect fill="none" stroke="#111" stroke-width="1" width="100%" height="100%"></rect><text fill="#222" x="50%" y="50%" dy=".3em" text-anchor="middle" font-size="1.2em">4</text></symbol>

    <symbol class="icon icon-" id="icon-5" viewBox="0 0 45 45"><!--Replace the contents of this symbol with the content of your icon--><rect fill="none" stroke="#111" stroke-width="1" width="100%" height="100%"></rect><text fill="#222" x="50%" y="50%" dy=".3em" text-anchor="middle" font-size="1.2em">5</text></symbol>

    <symbol class="icon icon-" id="icon-6" viewBox="0 0 45 45"><!--Replace the contents of this symbol with the content of your icon--><rect fill="none" stroke="#111" stroke-width="1" width="100%" height="100%"></rect><text fill="#222" x="50%" y="50%" dy=".3em" text-anchor="middle" font-size="1.2em">6</text></symbol>

    <symbol class="icon icon-" id="icon-7" viewBox="0 0 45 45"><!--Replace the contents of this symbol with the content of your icon--><rect fill="none" stroke="#111" stroke-width="1" width="100%" height="100%"></rect><text fill="#222" x="50%" y="50%" dy=".3em" text-anchor="middle" font-size="1.2em">7</text></symbol>

    <symbol class="icon icon-" id="icon-8" viewBox="0 0 45 45"><!--Replace the contents of this symbol with the content of your icon--><rect fill="none" stroke="#111" stroke-width="1" width="100%" height="100%"></rect><text fill="#222" x="50%" y="50%" dy=".3em" text-anchor="middle" font-size="1.2em">8</text></symbol>

</g>
<g id="itemsContainer">        <a class="item" id="item-1" role="link" tabindex="0" xlink:href=" " xlink:title=" " transform="matrix(1,0,0,1,0,0)" data-svg-origin="250 250" style=""><path fill="none" stroke="#111" d="M380,250 l120,0 A250,250 0 0,0 484.92315519647707,164.49496416858284 l-112.76311449430898,41.042417199080234 A130,130 0 0,1 380,250" class="sector"></path><use xlink:href="#icon-1" width="45" height="45" x="416.5830993652344" y="194.1595458984375" transform="rotate(80 439.0830993652344 216.6595458984375)"></use></a>
        <a class="item" id="item-2" role="link" tabindex="0" xlink:href=" " xlink:title=" " transform="matrix(0.92147,-0.38843,0.38843,0.92147,-77.4777520362756,116.7396461010718)" data-svg-origin="250 250" style=""><path fill="none" stroke="#111" d="M380,250 l120,0 A250,250 0 0,0 484.92315519647707,164.49496416858284 l-112.76311449430898,41.042417199080234 A130,130 0 0,1 380,250" class="sector"></path><use xlink:href="#icon-2" width="45" height="45" x="416.5830993652344" y="194.1595458984375" transform="rotate(80 439.0830993652344 216.6595458984375)"></use></a>
        <a class="item" id="item-3" role="link" tabindex="0" xlink:href=" " xlink:title=" " transform="matrix(0.69823,-0.71586,0.71586,0.69823,-103.52591683644783,254.4075077934114)" data-svg-origin="250 250" style=""><path fill="none" stroke="#111" d="M380,250 l120,0 A250,250 0 0,0 484.92315519647707,164.49496416858284 l-112.76311449430898,41.042417199080234 A130,130 0 0,1 380,250" class="sector"></path><use xlink:href="#icon-3" width="45" height="45" x="416.5830993652344" y="194.1595458984375" transform="rotate(80 439.0830993652344 216.6595458984375)"></use></a>
        <a class="item" id="item-4" role="link" tabindex="0" xlink:href=" " xlink:title=" " transform="matrix(0.36534,-0.93087,0.93087,0.36534,-74.05369325264985,391.38318106945235)" data-svg-origin="250 250" style=""><path fill="none" stroke="#111" d="M380,250 l120,0 A250,250 0 0,0 484.92315519647707,164.49496416858284 l-112.76311449430898,41.042417199080234 A130,130 0 0,1 380,250" class="sector"></path><use xlink:href="#icon-4" width="45" height="45" x="416.5830993652344" y="194.1595458984375" transform="rotate(80 439.0830993652344 216.6595458984375)"></use></a>
        <a class="item" id="item-5" role="link" tabindex="0" xlink:href=" " xlink:title=" " transform="matrix(-0.02493,-0.99968,0.99968,-0.02493,6.3103774343141765,506.15496843472226)" data-svg-origin="250 250" style=""><path fill="none" stroke="#111" d="M380,250 l120,0 A250,250 0 0,0 484.92315519647707,164.49496416858284 l-112.76311449430898,41.042417199080234 A130,130 0 0,1 380,250" class="sector"></path><use xlink:href="#icon-5" width="45" height="45" x="416.5830993652344" y="194.1595458984375" transform="rotate(80 439.0830993652344 216.6595458984375)"></use></a>
        <a class="item" id="item-6" role="link" tabindex="0" xlink:href=" " xlink:title=" " transform="matrix(-0.41128,-0.9115,0.9115,-0.41128,124.9453127047346,580.6982388605711)" data-svg-origin="250 250" style=""><path fill="none" stroke="#111" d="M380,250 l120,0 A250,250 0 0,0 484.92315519647707,164.49496416858284 l-112.76311449430898,41.042417199080234 A130,130 0 0,1 380,250" class="sector"></path><use xlink:href="#icon-6" width="45" height="45" x="416.5830993652344" y="194.1595458984375" transform="rotate(80 439.0830993652344 216.6595458984375)"></use></a>
        <a class="item" id="item-7" role="link" tabindex="0" xlink:href=" " xlink:title=" " transform="matrix(-0.73305,-0.68017,0.68017,-0.73305,263.2197835147267,603.3061524001864)" data-svg-origin="250 250" style=""><path fill="none" stroke="#111" d="M380,250 l120,0 A250,250 0 0,0 484.92315519647707,164.49496416858284 l-112.76311449430898,41.042417199080234 A130,130 0 0,1 380,250" class="sector"></path><use xlink:href="#icon-7" width="45" height="45" x="416.5830993652344" y="194.1595458984375" transform="rotate(80 439.0830993652344 216.6595458984375)"></use></a>
        <a class="item" id="item-8" role="link" tabindex="0" xlink:href=" " xlink:title=" " transform="matrix(-0.93969,-0.34202,0.34202,-0.93969,399.41811936505985,570.4281910278943)" data-svg-origin="250 250" style=""><path fill="none" stroke="#111" d="M380,250 l120,0 A250,250 0 0,0 484.92315519647707,164.49496416858284 l-112.76311449430898,41.042417199080234 A130,130 0 0,1 380,250" class="sector"></path><use xlink:href="#icon-8" width="45" height="45" x="416.5830993652344" y="194.1595458984375" transform="rotate(80 439.0830993652344 216.6595458984375)"></use></a>
</g>
<g id="trigger" class="trigger menu-trigger" role="button">
<circle cx="250" cy="250" r="30"></circle>
 
</g>
</svg>
